IBM Plex Serif-Thin.ufo
<glyph name="exclam" format="1">
  <advance width="256"/>
  <unicode hex="0021"/>
  <outline>
    <contour>
      <point x="128" y="-5" type="curve" smooth="yes"/>
      <point x="145" y="-5"/>
      <point x="156" y="6"/>
      <point x="156" y="23" type="curve" smooth="yes"/>
      <point x="156" y="25" type="line" smooth="yes"/>
      <point x="156" y="42"/>
      <point x="145" y="53"/>
      <point x="128" y="53" type="curve" smooth="yes"/>
      <point x="111" y="53"/>
      <point x="100" y="42"/>
      <point x="100" y="25" type="curve" smooth="yes"/>
      <point x="100" y="23" type="line" smooth="yes"/>
      <point x="100" y="6"/>
      <point x="111" y="-5"/>
    </contour>
    <contour>
      <point x="122" y="176" type="line"/>
      <point x="134" y="176" type="line"/>
      <point x="139" y="415" type="line" name="hr01"/>
      <point x="139" y="698" type="line"/>
      <point x="117" y="698" type="line"/>
      <point x="117" y="415" type="line"/>
    </contour>
  </outline>
</glyph>
<glyph name="dollar" format="1">
  <advance width="597"/>
  <unicode hex="0024"/>
  <outline>
    <contour>
      <point x="293" y="-82" type="line"/>
      <point x="311" y="-82" type="line"/>
      <point x="311" y="1" type="line"/>
      <point x="454" y="9"/>
      <point x="517" y="80"/>
      <point x="517" y="182" type="curve" smooth="yes"/>
      <point x="517" y="262"/>
      <point x="472" y="327"/>
      <point x="341" y="361" type="curve" smooth="yes"/>
      <point x="311" y="369" type="line"/>
      <point x="311" y="680" type="line"/>
      <point x="401" y="678"/>
      <point x="439" y="655"/>
      <point x="466" y="632" type="curve"/>
      <point x="466" y="630" type="line"/>
      <point x="451" y="623"/>
      <point x="441" y="612"/>
      <point x="441" y="596" type="curve" smooth="yes" name="hr01"/>
      <point x="441" y="580"/>
      <point x="452" y="566"/>
      <point x="470" y="566" type="curve" smooth="yes"/>
      <point x="488" y="566"/>
      <point x="500" y="580"/>
      <point x="500" y="596" type="curve" smooth="yes"/>
      <point x="500" y="638"/>
      <point x="431" y="695"/>
      <point x="311" y="698" type="curve"/>
      <point x="311" y="780" type="line"/>
      <point x="293" y="780" type="line"/>
      <point x="293" y="698" type="line"/>
      <point x="161" y="696"/>
      <point x="84" y="641"/>
      <point x="84" y="530" type="curve" smooth="yes"/>
      <point x="84" y="445"/>
      <point x="137" y="393"/>
      <point x="263" y="360" type="curve" smooth="yes"/>
      <point x="293" y="352" type="line"/>
      <point x="293" y="18" type="line"/>
      <point x="281" y="18" type="line"/>
      <point x="184" y="18"/>
      <point x="142" y="42"/>
      <point x="114" y="66" type="curve"/>
      <point x="114" y="68" type="line"/>
      <point x="129" y="75"/>
      <point x="139" y="86"/>
      <point x="139" y="102" type="curve" smooth="yes" name="hr02"/>
      <point x="139" y="118"/>
      <point x="128" y="132"/>
      <point x="110" y="132" type="curve" smooth="yes"/>
      <point x="92" y="132"/>
      <point x="80" y="118"/>
      <point x="80" y="102" type="curve" smooth="yes"/>
      <point x="80" y="59"/>
      <point x="155" y="0"/>
      <point x="281" y="0" type="curve"/>
      <point x="293" y="0" type="line"/>
    </contour>
    <contour>
      <point x="269" y="380" type="line"/>
      <point x="186" y="402"/>
      <point x="106" y="433"/>
      <point x="106" y="530" type="curve" smooth="yes" name="hr03"/>
      <point x="106" y="625"/>
      <point x="168" y="678"/>
      <point x="293" y="680" type="curve"/>
      <point x="293" y="374" type="line"/>
    </contour>
    <contour>
      <point x="311" y="347" type="line"/>
      <point x="335" y="341" type="line" smooth="yes"/>
      <point x="416" y="320"/>
      <point x="495" y="285"/>
      <point x="495" y="179" type="curve" smooth="yes"/>
      <point x="495" y="84"/>
      <point x="436" y="27"/>
      <point x="311" y="19" type="curve"/>
    </contour>
  </outline>
</glyph>
<glyph name="percent" format="1">
  <advance width="882"/>
  <unicode hex="0025"/>
  <outline>
    <contour>
      <point x="217" y="342" type="curve"/>
      <point x="155" y="342"/>
      <point x="97" y="387"/>
      <point x="97" y="501" type="curve" smooth="yes"/>
      <point x="97" y="535" type="line" smooth="yes"/>
      <point x="97" y="649"/>
      <point x="155" y="694"/>
      <point x="217" y="694" type="curve" smooth="yes"/>
      <point x="279" y="694"/>
      <point x="337" y="649"/>
      <point x="337" y="535" type="curve" smooth="yes"/>
      <point x="337" y="501" type="line" smooth="yes"/>
      <point x="337" y="387"/>
      <point x="279" y="342"/>
    </contour>
    <contour>
      <point x="665" y="4" type="curve"/>
      <point x="603" y="4"/>
      <point x="545" y="49"/>
      <point x="545" y="163" type="curve" smooth="yes"/>
      <point x="545" y="197" type="line" smooth="yes"/>
      <point x="545" y="311"/>
      <point x="603" y="356"/>
      <point x="665" y="356" type="curve" smooth="yes"/>
      <point x="727" y="356"/>
      <point x="785" y="311"/>
      <point x="785" y="197" type="curve" smooth="yes"/>
      <point x="785" y="163" type="line" smooth="yes"/>
      <point x="785" y="49"/>
      <point x="727" y="4"/>
    </contour>
    <contour>
      <point x="217" y="326" type="curve" smooth="yes"/>
      <point x="294" y="326"/>
      <point x="359" y="381"/>
      <point x="359" y="518" type="curve" smooth="yes"/>
      <point x="359" y="655"/>
      <point x="294" y="710"/>
      <point x="217" y="710" type="curve" smooth="yes"/>
      <point x="140" y="710"/>
      <point x="75" y="655"/>
      <point x="75" y="518" type="curve" smooth="yes"/>
      <point x="75" y="381"/>
      <point x="140" y="326"/>
    </contour>
    <contour>
      <point x="665" y="-12" type="curve" smooth="yes"/>
      <point x="742" y="-12"/>
      <point x="807" y="43"/>
      <point x="807" y="180" type="curve" smooth="yes"/>
      <point x="807" y="317"/>
      <point x="742" y="372"/>
      <point x="665" y="372" type="curve" smooth="yes"/>
      <point x="588" y="372"/>
      <point x="523" y="317"/>
      <point x="523" y="180" type="curve" smooth="yes"/>
      <point x="523" y="43"/>
      <point x="588" y="-12"/>
    </contour>
    <contour>
      <point x="187" y="0" type="line" name="hr01"/>
      <point x="210" y="0" type="line"/>
      <point x="695" y="698" type="line"/>
      <point x="672" y="698" type="line"/>
    </contour>
  </outline>
</glyph>
<glyph name="ampersand" format="1">
  <advance width="713"/>
  <unicode hex="0026"/>
  <outline>
    <contour>
      <point x="272" y="-12" type="curve" smooth="yes"/>
      <point x="370" y="-12"/>
      <point x="450" y="28"/>
      <point x="498" y="115" type="curve"/>
      <point x="553" y="61" type="line" smooth="yes"/>
      <point x="597" y="17"/>
      <point x="623" y="0"/>
      <point x="675" y="0" type="curve" smooth="yes" name="hr01"/>
      <point x="688" y="0" type="line"/>
      <point x="688" y="18" type="line"/>
      <point x="633" y="18"/>
      <point x="611" y="31"/>
      <point x="574" y="67" type="curve" smooth="yes"/>
      <point x="507" y="133" type="line"/>
      <point x="531" y="185"/>
      <point x="545" y="250"/>
      <point x="546" y="331" type="curve"/>
      <point x="635" y="331" type="line"/>
      <point x="635" y="349" type="line"/>
      <point x="435" y="349" type="line"/>
      <point x="435" y="331" type="line"/>
      <point x="526" y="331" type="line"/>
      <point x="525" y="262"/>
      <point x="515" y="199"/>
      <point x="493" y="148" type="curve"/>
      <point x="272" y="368" type="line"/>
      <point x="394" y="424"/>
      <point x="471" y="480"/>
      <point x="471" y="570" type="curve" smooth="yes"/>
      <point x="471" y="648"/>
      <point x="406" y="710"/>
      <point x="310" y="710" type="curve" smooth="yes"/>
      <point x="206" y="710"/>
      <point x="140" y="646"/>
      <point x="140" y="554" type="curve" smooth="yes"/>
      <point x="140" y="490"/>
      <point x="182" y="429"/>
      <point x="240" y="371" type="curve" smooth="yes"/>
      <point x="142" y="325"/>
      <point x="70" y="273"/>
      <point x="70" y="166" type="curve" smooth="yes"/>
      <point x="70" y="59"/>
      <point x="150" y="-12"/>
    </contour>
    <contour>
      <point x="260" y="380" type="curve"/>
      <point x="205" y="435"/>
      <point x="164" y="489"/>
      <point x="164" y="546" type="curve" smooth="yes"/>
      <point x="164" y="564" type="line" smooth="yes"/>
      <point x="164" y="635"/>
      <point x="218" y="692"/>
      <point x="310" y="692" type="curve"/>
      <point x="383" y="692"/>
      <point x="447" y="648"/>
      <point x="447" y="574" type="curve" smooth="yes"/>
      <point x="447" y="560" type="line" smooth="yes"/>
      <point x="447" y="486"/>
      <point x="374" y="432"/>
    </contour>
    <contour>
      <point x="272" y="8" type="curve"/>
      <point x="169" y="8"/>
      <point x="94" y="66"/>
      <point x="94" y="156" type="curve" smooth="yes"/>
      <point x="94" y="176" type="line" smooth="yes"/>
      <point x="94" y="269"/>
      <point x="161" y="316"/>
      <point x="252" y="359" type="curve"/>
      <point x="484" y="129" type="line"/>
      <point x="446" y="55"/>
      <point x="379" y="8"/>
    </contour>
  </outline>
</glyph>
<glyph name="quotesingle" format="1">
  <advance width="220"/>
  <unicode hex="0027"/>
  <outline>
    <contour>
      <point x="104" y="498" type="line" name="hr00"/>
      <point x="116" y="498" type="line"/>
      <point x="121" y="648" type="line"/>
      <point x="121" y="748" type="line"/>
      <point x="99" y="748" type="line"/>
      <point x="99" y="648" type="line"/>
    </contour>
  </outline>
</glyph>
<glyph name="parenleft" format="1">
  <advance width="329"/>
  <unicode hex="0028"/>
  <outline>
    <contour>
      <point x="289" y="-138" type="curve" name="hr00"/>
      <point x="314" y="-138" type="line"/>
      <point x="216" y="-51"/>
      <point x="126" y="109"/>
      <point x="126" y="294" type="curve" smooth="yes"/>
      <point x="126" y="328" type="line" smooth="yes"/>
      <point x="126" y="513"/>
      <point x="216" y="673"/>
      <point x="314" y="760" type="curve"/>
      <point x="289" y="760" type="line"/>
      <point x="197" y="675"/>
      <point x="105" y="515"/>
      <point x="105" y="311" type="curve" smooth="yes"/>
      <point x="105" y="107"/>
      <point x="197" y="-53"/>
    </contour>
  </outline>
</glyph>
<glyph name="parenright" format="1">
  <advance width="329"/>
  <unicode hex="0029"/>
  <outline>
    <contour>
      <point x="15" y="-138" type="curve" name="hr00"/>
      <point x="40" y="-138" type="line"/>
      <point x="132" y="-53"/>
      <point x="224" y="107"/>
      <point x="224" y="311" type="curve" smooth="yes"/>
      <point x="224" y="515"/>
      <point x="132" y="675"/>
      <point x="40" y="760" type="curve"/>
      <point x="15" y="760" type="line"/>
      <point x="113" y="673"/>
      <point x="203" y="513"/>
      <point x="203" y="328" type="curve" smooth="yes"/>
      <point x="203" y="294" type="line" smooth="yes"/>
      <point x="203" y="109"/>
      <point x="113" y="-51"/>
    </contour>
  </outline>
</glyph>
<glyph name="asterisk" format="1">
  <advance width="358"/>
  <unicode hex="002A"/>
  <outline>
    <contour>
      <point x="87" y="435" type="line" name="hr00"/>
      <point x="117" y="475" type="line"/>
      <point x="170" y="557" type="line"/>
      <point x="161" y="564" type="line"/>
      <point x="99" y="488" type="line"/>
      <point x="69" y="448" type="line"/>
    </contour>
    <contour>
      <point x="156" y="578" type="line"/>
      <point x="160" y="589" type="line"/>
      <point x="69" y="625" type="line"/>
      <point x="21" y="640" type="line"/>
      <point x="14" y="619" type="line"/>
      <point x="62" y="604" type="line"/>
    </contour>
    <contour>
      <point x="173" y="600" type="line"/>
      <point x="185" y="600" type="line"/>
      <point x="190" y="697" type="line"/>
      <point x="190" y="747" type="line"/>
      <point x="168" y="747" type="line"/>
      <point x="168" y="697" type="line"/>
    </contour>
    <contour>
      <point x="202" y="578" type="line"/>
      <point x="296" y="604" type="line"/>
      <point x="344" y="619" type="line"/>
      <point x="337" y="640" type="line"/>
      <point x="289" y="625" type="line"/>
      <point x="198" y="589" type="line"/>
    </contour>
    <contour>
      <point x="271" y="435" type="line"/>
      <point x="289" y="448" type="line"/>
      <point x="259" y="488" type="line"/>
      <point x="197" y="564" type="line"/>
      <point x="188" y="557" type="line"/>
      <point x="241" y="475" type="line"/>
    </contour>
  </outline>
</glyph>
<glyph name="plus" format="1">
  <advance width="600"/>
  <unicode hex="002B"/>
  <outline>
    <contour>
      <point x="290" y="63" type="line" name="hr00"/>
      <point x="311" y="63" type="line"/>
      <point x="311" y="297" type="line"/>
      <point x="539" y="297" type="line"/>
      <point x="539" y="315" type="line"/>
      <point x="311" y="315" type="line"/>
      <point x="311" y="549" type="line"/>
      <point x="290" y="549" type="line"/>
      <point x="290" y="315" type="line"/>
      <point x="62" y="315" type="line"/>
      <point x="62" y="297" type="line"/>
      <point x="290" y="297" type="line"/>
    </contour>
  </outline>
</glyph>
<glyph name="comma" format="1">
  <advance width="236"/>
  <unicode hex="002C"/>
  <outline>
    <contour>
      <point x="50" y="-147" type="curve" name="hr00"/>
      <point x="68" y="-147" type="line"/>
      <point x="113" y="-105"/>
      <point x="146" y="-39"/>
      <point x="146" y="23" type="curve" smooth="yes"/>
      <point x="146" y="25" type="line" smooth="yes"/>
      <point x="146" y="42"/>
      <point x="135" y="53"/>
      <point x="118" y="53" type="curve" smooth="yes"/>
      <point x="101" y="53"/>
      <point x="90" y="42"/>
      <point x="90" y="25" type="curve" smooth="yes"/>
      <point x="90" y="23" type="line" smooth="yes"/>
      <point x="90" y="6"/>
      <point x="101" y="-5"/>
      <point x="118" y="-5" type="curve" smooth="yes"/>
      <point x="123" y="-5" type="line"/>
      <point x="119" y="-51"/>
      <point x="99" y="-96"/>
    </contour>
  </outline>
</glyph>
<glyph name="hyphen" format="1">
  <advance width="399"/>
  <unicode hex="002D"/>
  <outline>
    <contour>
      <point x="85" y="295" type="line" name="hr00"/>
      <point x="314" y="295" type="line"/>
      <point x="314" y="315" type="line"/>
      <point x="85" y="315" type="line"/>
    </contour>
  </outline>
</glyph>
<glyph name="period" format="1">
  <advance width="236"/>
  <unicode hex="002E"/>
  <outline>
    <contour>
      <point x="118" y="-5" type="curve" smooth="yes" name="hr00"/>
      <point x="135" y="-5"/>
      <point x="146" y="6"/>
      <point x="146" y="23" type="curve" smooth="yes"/>
      <point x="146" y="25" type="line" smooth="yes"/>
      <point x="146" y="42"/>
      <point x="135" y="53"/>
      <point x="118" y="53" type="curve" smooth="yes"/>
      <point x="101" y="53"/>
      <point x="90" y="42"/>
      <point x="90" y="25" type="curve" smooth="yes"/>
      <point x="90" y="23" type="line" smooth="yes"/>
      <point x="90" y="6"/>
      <point x="101" y="-5"/>
    </contour>
  </outline>
</glyph>
<glyph name="slash" format="1">
  <advance width="308"/>
  <unicode hex="002F"/>
  <outline>
    <contour>
      <point x="11" y="-143" type="line" name="hr00"/>
      <point x="31" y="-143" type="line"/>
      <point x="269" y="748" type="line"/>
      <point x="249" y="748" type="line"/>
    </contour>
  </outline>
</glyph>
<glyph name="one" format="1">
  <advance width="600"/>
  <unicode hex="0031"/>
  <outline>
    <contour>
      <point x="94" y="0" type="line" name="hr00"/>
      <point x="544" y="0" type="line"/>
      <point x="544" y="18" type="line"/>
      <point x="334" y="18" type="line"/>
      <point x="334" y="698" type="line"/>
      <point x="316" y="698" type="line"/>
      <point x="75" y="562" type="line"/>
      <point x="84" y="546" type="line"/>
      <point x="312" y="672" type="line"/>
      <point x="312" y="18" type="line"/>
      <point x="94" y="18" type="line"/>
    </contour>
  </outline>
</glyph>
<glyph name="two" format="1">
  <advance width="600"/>
  <unicode hex="0032"/>
  <outline>
    <contour>
      <point x="102" y="0" type="line" name="hr00"/>
      <point x="527" y="0" type="line"/>
      <point x="527" y="148" type="line"/>
      <point x="506" y="148" type="line"/>
      <point x="506" y="18" type="line"/>
      <point x="126" y="18" type="line"/>
      <point x="126" y="22" type="line"/>
      <point x="370" y="284" type="line" smooth="yes"/>
      <point x="442" y="361"/>
      <point x="488" y="431"/>
      <point x="488" y="520" type="curve" smooth="yes"/>
      <point x="488" y="641"/>
      <point x="410" y="710"/>
      <point x="286" y="710" type="curve" smooth="yes"/>
      <point x="183" y="710"/>
      <point x="102" y="656"/>
      <point x="102" y="610" type="curve" smooth="yes"/>
      <point x="102" y="594"/>
      <point x="114" y="580"/>
      <point x="132" y="580" type="curve" smooth="yes"/>
      <point x="150" y="580"/>
      <point x="161" y="594"/>
      <point x="161" y="610" type="curve" smooth="yes"/>
      <point x="161" y="626"/>
      <point x="149" y="638"/>
      <point x="134" y="644" type="curve"/>
      <point x="134" y="646" type="line"/>
      <point x="161" y="670"/>
      <point x="216" y="692"/>
      <point x="283" y="692" type="curve" smooth="yes"/>
      <point x="396" y="692"/>
      <point x="464" y="628"/>
      <point x="464" y="537" type="curve" smooth="yes"/>
      <point x="464" y="506" type="line" smooth="yes"/>
      <point x="464" y="432"/>
      <point x="421" y="368"/>
      <point x="357" y="297" type="curve" smooth="yes"/>
      <point x="102" y="18" type="line"/>
    </contour>
  </outline>
</glyph>
<glyph name="three" format="1">
  <advance width="600"/>
  <unicode hex="0033"/>
  <outline>
    <contour>
      <point x="279" y="-12" type="curve" smooth="yes"/>
      <point x="406" y="-12"/>
      <point x="494" y="64"/>
      <point x="494" y="187" type="curve" smooth="yes"/>
      <point x="494" y="290"/>
      <point x="428" y="354"/>
      <point x="334" y="366" type="curve"/>
      <point x="334" y="369" type="line"/>
      <point x="416" y="385"/>
      <point x="479" y="437"/>
      <point x="479" y="536" type="curve" smooth="yes" name="hr01"/>
      <point x="479" y="642"/>
      <point x="397" y="710"/>
      <point x="283" y="710" type="curve" smooth="yes"/>
      <point x="184" y="710"/>
      <point x="107" y="655"/>
      <point x="107" y="610" type="curve" smooth="yes"/>
      <point x="107" y="594"/>
      <point x="119" y="580"/>
      <point x="137" y="580" type="curve" smooth="yes"/>
      <point x="155" y="580"/>
      <point x="166" y="594"/>
      <point x="166" y="610" type="curve" smooth="yes"/>
      <point x="166" y="626"/>
      <point x="154" y="637"/>
      <point x="139" y="644" type="curve"/>
      <point x="139" y="646" type="line"/>
      <point x="166" y="669"/>
      <point x="216" y="692"/>
      <point x="283" y="692" type="curve" smooth="yes"/>
      <point x="383" y="692"/>
      <point x="455" y="633"/>
      <point x="455" y="547" type="curve" smooth="yes"/>
      <point x="455" y="521" type="line" smooth="yes"/>
      <point x="455" y="435"/>
      <point x="383" y="376"/>
      <point x="283" y="376" type="curve" smooth="yes"/>
      <point x="197" y="376" type="line"/>
      <point x="197" y="358" type="line"/>
      <point x="286" y="358" type="line" smooth="yes"/>
      <point x="399" y="358"/>
      <point x="470" y="293"/>
      <point x="470" y="198" type="curve" smooth="yes" name="hr02"/>
      <point x="470" y="169" type="line" smooth="yes"/>
      <point x="470" y="72"/>
      <point x="387" y="6"/>
      <point x="279" y="6" type="curve" smooth="yes"/>
      <point x="205" y="6"/>
      <point x="149" y="26"/>
      <point x="122" y="49" type="curve"/>
      <point x="122" y="51" type="line"/>
      <point x="138" y="59"/>
      <point x="149" y="69"/>
      <point x="149" y="85" type="curve" smooth="yes"/>
      <point x="149" y="101"/>
      <point x="138" y="115"/>
      <point x="120" y="115" type="curve" smooth="yes"/>
      <point x="102" y="115"/>
      <point x="90" y="101"/>
      <point x="90" y="85" type="curve" smooth="yes"/>
      <point x="90" y="34"/>
      <point x="172" y="-12"/>
    </contour>
  </outline>
</glyph>
<glyph name="four" format="1">
  <advance width="600"/>
  <unicode hex="0034"/>
  <outline>
    <contour>
      <point x="412" y="0" type="line" name="hr00"/>
      <point x="434" y="0" type="line"/>
      <point x="434" y="161" type="line"/>
      <point x="550" y="161" type="line"/>
      <point x="550" y="179" type="line"/>
      <point x="434" y="179" type="line"/>
      <point x="434" y="698" type="line"/>
      <point x="405" y="698" type="line"/>
      <point x="47" y="179" type="line"/>
      <point x="47" y="161" type="line"/>
      <point x="412" y="161" type="line"/>
    </contour>
    <contour>
      <point x="410" y="673" type="line"/>
      <point x="412" y="673" type="line"/>
      <point x="412" y="179" type="line"/>
      <point x="70" y="179" type="line"/>
    </contour>
  </outline>
</glyph>
<glyph name="five" format="1">
  <advance width="600"/>
  <unicode hex="0035"/>
  <outline>
    <contour>
      <point x="289" y="-12" type="curve" smooth="yes" name="hr00"/>
      <point x="419" y="-12"/>
      <point x="505" y="72"/>
      <point x="505" y="203" type="curve" smooth="yes"/>
      <point x="505" y="332"/>
      <point x="431" y="413"/>
      <point x="304" y="413" type="curve" smooth="yes"/>
      <point x="234" y="413"/>
      <point x="179" y="393"/>
      <point x="137" y="338" type="curve"/>
      <point x="135" y="339" type="line"/>
      <point x="159" y="680" type="line"/>
      <point x="481" y="680" type="line"/>
      <point x="481" y="698" type="line"/>
      <point x="140" y="698" type="line"/>
      <point x="114" y="326" type="line"/>
      <point x="137" y="323" type="line"/>
      <point x="178" y="371"/>
      <point x="219" y="395"/>
      <point x="304" y="395" type="curve" smooth="yes"/>
      <point x="419" y="395"/>
      <point x="481" y="322"/>
      <point x="481" y="217" type="curve" smooth="yes"/>
      <point x="481" y="187" type="line" smooth="yes"/>
      <point x="481" y="82"/>
      <point x="407" y="6"/>
      <point x="287" y="6" type="curve" smooth="yes"/>
      <point x="213" y="6"/>
      <point x="160" y="27"/>
      <point x="133" y="49" type="curve"/>
      <point x="133" y="51" type="line"/>
      <point x="149" y="59"/>
      <point x="160" y="69"/>
      <point x="160" y="85" type="curve" smooth="yes"/>
      <point x="160" y="101"/>
      <point x="149" y="115"/>
      <point x="131" y="115" type="curve" smooth="yes"/>
      <point x="113" y="115"/>
      <point x="101" y="101"/>
      <point x="101" y="85" type="curve" smooth="yes"/>
      <point x="101" y="34"/>
      <point x="183" y="-12"/>
    </contour>
  </outline>
</glyph>
<glyph name="six" format="1">
  <advance width="600"/>
  <unicode hex="0036"/>
  <outline>
    <contour>
      <point x="299" y="-12" type="curve" smooth="yes" name="hr00"/>
      <point x="428" y="-12"/>
      <point x="511" y="72"/>
      <point x="511" y="203" type="curve" smooth="yes"/>
      <point x="511" y="334"/>
      <point x="428" y="418"/>
      <point x="299" y="418" type="curve" smooth="yes"/>
      <point x="207" y="418"/>
      <point x="141" y="370"/>
      <point x="115" y="296" type="curve"/>
      <point x="112" y="297" type="line"/>
      <point x="136" y="526"/>
      <point x="258" y="657"/>
      <point x="441" y="694" type="curve"/>
      <point x="433" y="710" type="line"/>
      <point x="253" y="674"/>
      <point x="87" y="525"/>
      <point x="87" y="226" type="curve" smooth="yes"/>
      <point x="87" y="93"/>
      <point x="147" y="-12"/>
    </contour>
    <contour>
      <point x="299" y="6" type="curve"/>
      <point x="181" y="6"/>
      <point x="111" y="85"/>
      <point x="111" y="186" type="curve"/>
      <point x="111" y="220" type="line" smooth="yes"/>
      <point x="111" y="321"/>
      <point x="181" y="400"/>
      <point x="299" y="400" type="curve" smooth="yes"/>
      <point x="417" y="400"/>
      <point x="487" y="321"/>
      <point x="487" y="220" type="curve" smooth="yes"/>
      <point x="487" y="186" type="line" smooth="yes"/>
      <point x="487" y="85"/>
      <point x="417" y="6"/>
    </contour>
  </outline>
</glyph>
<glyph name="seven" format="1">
  <advance width="600"/>
  <unicode hex="0037"/>
  <outline>
    <contour>
      <point x="187" y="0" type="line" name="hr00"/>
      <point x="211" y="0" type="line"/>
      <point x="512" y="680" type="line"/>
      <point x="512" y="698" type="line"/>
      <point x="79" y="698" type="line"/>
      <point x="79" y="512" type="line"/>
      <point x="99" y="512" type="line"/>
      <point x="99" y="680" type="line"/>
      <point x="490" y="680" type="line"/>
    </contour>
  </outline>
</glyph>
<glyph name="eight" format="1">
  <advance width="600"/>
  <unicode hex="0038"/>
  <outline>
    <contour>
      <point x="300" y="-12" type="curve"/>
      <point x="440" y="-12"/>
      <point x="528" y="64"/>
      <point x="528" y="180" type="curve" smooth="yes"/>
      <point x="528" y="279"/>
      <point x="461" y="347"/>
      <point x="363" y="364" type="curve"/>
      <point x="363" y="368" type="line"/>
      <point x="446" y="385"/>
      <point x="504" y="445"/>
      <point x="504" y="535" type="curve" smooth="yes"/>
      <point x="504" y="642"/>
      <point x="425" y="710"/>
      <point x="300" y="710" type="curve" smooth="yes"/>
      <point x="175" y="710"/>
      <point x="96" y="642"/>
      <point x="96" y="535" type="curve" smooth="yes"/>
      <point x="96" y="445"/>
      <point x="154" y="385"/>
      <point x="237" y="368" type="curve"/>
      <point x="237" y="364" type="line"/>
      <point x="139" y="347"/>
      <point x="72" y="279"/>
      <point x="72" y="180" type="curve" smooth="yes"/>
      <point x="72" y="64"/>
      <point x="160" y="-12"/>
    </contour>
    <contour>
      <point x="300" y="6" type="curve"/>
      <point x="176" y="6"/>
      <point x="96" y="72"/>
      <point x="96" y="167" type="curve" smooth="yes"/>
      <point x="96" y="195" type="line" smooth="yes"/>
      <point x="96" y="290"/>
      <point x="176" y="356"/>
      <point x="300" y="356" type="curve" smooth="yes"/>
      <point x="424" y="356"/>
      <point x="504" y="290"/>
      <point x="504" y="195" type="curve" smooth="yes"/>
      <point x="504" y="167" type="line" smooth="yes"/>
      <point x="504" y="72"/>
      <point x="424" y="6"/>
    </contour>
    <contour>
      <point x="300" y="374" type="curve"/>
      <point x="191" y="374"/>
      <point x="120" y="433"/>
      <point x="120" y="520" type="curve" smooth="yes" name="hr01"/>
      <point x="120" y="546" type="line" smooth="yes"/>
      <point x="120" y="633"/>
      <point x="191" y="692"/>
      <point x="300" y="692" type="curve" smooth="yes"/>
      <point x="409" y="692"/>
      <point x="480" y="633"/>
      <point x="480" y="546" type="curve" smooth="yes"/>
      <point x="480" y="520" type="line" smooth="yes"/>
      <point x="480" y="433"/>
      <point x="409" y="374"/>
    </contour>
  </outline>
</glyph>
<glyph name="nine" format="1">
  <advance width="600"/>
  <unicode hex="0039"/>
  <outline>
    <contour>
      <point x="170" y="-12" type="line" name="hr00"/>
      <point x="350" y="24"/>
      <point x="516" y="173"/>
      <point x="516" y="472" type="curve" smooth="yes"/>
      <point x="516" y="605"/>
      <point x="456" y="710"/>
      <point x="304" y="710" type="curve" smooth="yes"/>
      <point x="175" y="710"/>
      <point x="92" y="626"/>
      <point x="92" y="495" type="curve" smooth="yes"/>
      <point x="92" y="364"/>
      <point x="175" y="280"/>
      <point x="304" y="280" type="curve" smooth="yes"/>
      <point x="396" y="280"/>
      <point x="462" y="328"/>
      <point x="488" y="402" type="curve"/>
      <point x="491" y="401" type="line"/>
      <point x="467" y="172"/>
      <point x="345" y="41"/>
      <point x="162" y="4" type="curve"/>
    </contour>
    <contour>
      <point x="304" y="298" type="curve"/>
      <point x="186" y="298"/>
      <point x="116" y="377"/>
      <point x="116" y="478" type="curve" smooth="yes"/>
      <point x="116" y="512" type="line" smooth="yes"/>
      <point x="116" y="613"/>
      <point x="186" y="692"/>
      <point x="304" y="692" type="curve" smooth="yes"/>
      <point x="422" y="692"/>
      <point x="492" y="613"/>
      <point x="492" y="512" type="curve" smooth="yes"/>
      <point x="492" y="478" type="line" smooth="yes"/>
      <point x="492" y="377"/>
      <point x="422" y="298"/>
    </contour>
  </outline>
</glyph>
<glyph name="less" format="1">
  <advance width="600"/>
  <unicode hex="003C"/>
  <outline>
    <contour>
      <point x="515" y="-12" type="line" name="hr00"/>
      <point x="515" y="11" type="line"/>
      <point x="108" y="254" type="line"/>
      <point x="108" y="256" type="line"/>
      <point x="515" y="499" type="line"/>
      <point x="515" y="522" type="line"/>
      <point x="85" y="264" type="line"/>
      <point x="85" y="246" type="line"/>
    </contour>
  </outline>
</glyph>
<glyph name="equal" format="1">
  <advance width="600"/>
  <unicode hex="003D"/>
  <outline>
    <contour>
      <point x="62" y="207" type="line" name="hr00"/>
      <point x="538" y="207" type="line"/>
      <point x="538" y="225" type="line"/>
      <point x="62" y="225" type="line"/>
    </contour>
    <contour>
      <point x="62" y="386" type="line"/>
      <point x="538" y="386" type="line"/>
      <point x="538" y="404" type="line"/>
      <point x="62" y="404" type="line"/>
    </contour>
  </outline>
</glyph>
<glyph name="greater" format="1">
  <advance width="600"/>
  <unicode hex="003E"/>
  <outline>
    <contour>
      <point x="85" y="-12" type="line" name="hr00"/>
      <point x="515" y="246" type="line"/>
      <point x="515" y="264" type="line"/>
      <point x="85" y="522" type="line"/>
      <point x="85" y="499" type="line"/>
      <point x="492" y="256" type="line"/>
      <point x="492" y="254" type="line"/>
      <point x="85" y="11" type="line"/>
    </contour>
  </outline>
</glyph>
<glyph name="question" format="1">
  <advance width="431"/>
  <unicode hex="003F"/>
  <outline>
    <contour>
      <point x="173" y="176" type="line"/>
      <point x="194" y="176" type="line"/>
      <point x="194" y="331" type="line"/>
      <point x="326" y="344"/>
      <point x="396" y="417"/>
      <point x="396" y="531" type="curve" smooth="yes"/>
      <point x="396" y="638"/>
      <point x="321" y="710"/>
      <point x="207" y="710" type="curve" smooth="yes"/>
      <point x="109" y="710"/>
      <point x="35" y="657"/>
      <point x="35" y="610" type="curve" smooth="yes"/>
      <point x="35" y="594"/>
      <point x="47" y="580"/>
      <point x="65" y="580" type="curve" smooth="yes"/>
      <point x="83" y="580"/>
      <point x="94" y="594"/>
      <point x="94" y="610" type="curve" smooth="yes"/>
      <point x="94" y="626"/>
      <point x="82" y="639"/>
      <point x="67" y="644" type="curve"/>
      <point x="67" y="646" type="line"/>
      <point x="98" y="673"/>
      <point x="141" y="692"/>
      <point x="206" y="692" type="curve" smooth="yes"/>
      <point x="310" y="692"/>
      <point x="373" y="631"/>
      <point x="373" y="542" type="curve" smooth="yes"/>
      <point x="373" y="516" type="line" smooth="yes"/>
      <point x="373" y="419"/>
      <point x="300" y="351"/>
      <point x="173" y="349" type="curve"/>
    </contour>
    <contour>
      <point x="184" y="-5" type="curve" smooth="yes"/>
      <point x="201" y="-5"/>
      <point x="212" y="6"/>
      <point x="212" y="23" type="curve" smooth="yes" name="hr01"/>
      <point x="212" y="25" type="line" smooth="yes"/>
      <point x="212" y="42"/>
      <point x="201" y="53"/>
      <point x="184" y="53" type="curve" smooth="yes"/>
      <point x="167" y="53"/>
      <point x="156" y="42"/>
      <point x="156" y="25" type="curve" smooth="yes"/>
      <point x="156" y="23" type="line" smooth="yes"/>
      <point x="156" y="6"/>
      <point x="167" y="-5"/>
    </contour>
  </outline>
</glyph>
<glyph name="at" format="1">
  <advance width="882"/>
  <unicode hex="0040"/>
  <outline>
    <contour>
      <point x="441" y="-121" type="curve" smooth="yes" name="hr00"/>
      <point x="517" y="-121"/>
      <point x="599" y="-119"/>
      <point x="657" y="-115" type="curve"/>
      <point x="657" y="-103" type="line"/>
      <point x="441" y="-103" type="line" smooth="yes"/>
      <point x="241" y="-103"/>
      <point x="93" y="50"/>
      <point x="93" y="273" type="curve" smooth="yes"/>
      <point x="93" y="328" type="line" smooth="yes"/>
      <point x="93" y="541"/>
      <point x="243" y="692"/>
      <point x="443" y="692" type="curve" smooth="yes"/>
      <point x="638" y="692"/>
      <point x="789" y="559"/>
      <point x="789" y="354" type="curve" smooth="yes"/>
      <point x="789" y="304" type="line" smooth="yes"/>
      <point x="789" y="166"/>
      <point x="741" y="87"/>
      <point x="669" y="87" type="curve" smooth="yes"/>
      <point x="625" y="87"/>
      <point x="595" y="116"/>
      <point x="595" y="160" type="curve" smooth="yes"/>
      <point x="595" y="494" type="line"/>
      <point x="579" y="494" type="line"/>
      <point x="575" y="416" type="line"/>
      <point x="572" y="416" type="line"/>
      <point x="557" y="457"/>
      <point x="514" y="506"/>
      <point x="437" y="506" type="curve" smooth="yes"/>
      <point x="329" y="506"/>
      <point x="264" y="434"/>
      <point x="264" y="288" type="curve" smooth="yes"/>
      <point x="264" y="141"/>
      <point x="329" y="69"/>
      <point x="437" y="69" type="curve" smooth="yes"/>
      <point x="514" y="69"/>
      <point x="558" y="119"/>
      <point x="573" y="160" type="curve"/>
      <point x="577" y="160" type="line"/>
      <point x="579" y="107"/>
      <point x="614" y="69"/>
      <point x="669" y="69" type="curve" smooth="yes"/>
      <point x="770" y="69"/>
      <point x="812" y="185"/>
      <point x="812" y="330" type="curve" smooth="yes"/>
      <point x="812" y="576"/>
      <point x="644" y="710"/>
      <point x="443" y="710" type="curve" smooth="yes"/>
      <point x="232" y="710"/>
      <point x="70" y="554"/>
      <point x="70" y="300" type="curve" smooth="yes"/>
      <point x="70" y="30"/>
      <point x="235" y="-121"/>
    </contour>
    <contour>
      <point x="437" y="87" type="curve"/>
      <point x="340" y="87"/>
      <point x="287" y="154"/>
      <point x="287" y="266" type="curve" smooth="yes"/>
      <point x="287" y="309" type="line" smooth="yes"/>
      <point x="287" y="421"/>
      <point x="340" y="488"/>
      <point x="437" y="488" type="curve" smooth="yes"/>
      <point x="510" y="488"/>
      <point x="575" y="439"/>
      <point x="575" y="362" type="curve" smooth="yes"/>
      <point x="575" y="214" type="line" smooth="yes"/>
      <point x="575" y="136"/>
      <point x="510" y="87"/>
    </contour>
  </outline>
</glyph>
<glyph name="A" format="1">
  <advance width="691"/>
  <unicode hex="0041"/>
  <outline>
    <contour>
      <point x="25" y="0" type="line" name="hr00"/>
      <point x="213" y="0" type="line"/>
      <point x="213" y="18" type="line"/>
      <point x="108" y="18" type="line"/>
      <point x="186" y="234" type="line"/>
      <point x="506" y="234" type="line"/>
      <point x="584" y="18" type="line"/>
      <point x="479" y="18" type="line"/>
      <point x="479" y="0" type="line"/>
      <point x="667" y="0" type="line"/>
      <point x="667" y="18" type="line"/>
      <point x="607" y="18" type="line"/>
      <point x="360" y="698" type="line"/>
      <point x="332" y="698" type="line"/>
      <point x="85" y="18" type="line"/>
      <point x="25" y="18" type="line"/>
    </contour>
    <contour>
      <point x="344" y="675" type="line"/>
      <point x="347" y="675" type="line"/>
      <point x="499" y="252" type="line"/>
      <point x="193" y="252" type="line"/>
    </contour>
    <contour>
      <point x="346" y="0" type="move" name="bottom"/>
    </contour>
    <contour>
      <point x="667" y="0" type="move" name="bottomright"/>
    </contour>
    <contour>
      <point x="346" y="698" type="move" name="top"/>
    </contour>
  </outline>
</glyph>
<glyph name="B" format="1">
  <advance width="632"/>
  <unicode hex="0042"/>
  <outline>
    <contour>
      <point x="50" y="0" type="line" name="hr00"/>
      <point x="393" y="0" type="line" smooth="yes"/>
      <point x="507" y="0"/>
      <point x="567" y="74"/>
      <point x="567" y="189" type="curve" smooth="yes"/>
      <point x="567" y="288"/>
      <point x="522" y="354"/>
      <point x="435" y="370" type="curve"/>
      <point x="435" y="372" type="line"/>
      <point x="497" y="392"/>
      <point x="535" y="440"/>
      <point x="535" y="528" type="curve" smooth="yes"/>
      <point x="535" y="639"/>
      <point x="476" y="698"/>
      <point x="377" y="698" type="curve" smooth="yes"/>
      <point x="50" y="698" type="line"/>
      <point x="50" y="680" type="line"/>
      <point x="135" y="680" type="line"/>
      <point x="135" y="18" type="line"/>
      <point x="50" y="18" type="line"/>
    </contour>
    <contour>
      <point x="157" y="359" type="line"/>
      <point x="393" y="359" type="line" smooth="yes"/>
      <point x="496" y="359"/>
      <point x="543" y="288"/>
      <point x="543" y="211" type="curve" smooth="yes"/>
      <point x="543" y="166" type="line" smooth="yes"/>
      <point x="543" y="89"/>
      <point x="496" y="18"/>
      <point x="393" y="18" type="curve"/>
      <point x="157" y="18" type="line"/>
    </contour>
    <contour>
      <point x="157" y="680" type="line"/>
      <point x="377" y="680" type="line" smooth="yes"/>
      <point x="469" y="680"/>
      <point x="511" y="619"/>
      <point x="511" y="552" type="curve" smooth="yes"/>
      <point x="511" y="505" type="line" smooth="yes"/>
      <point x="511" y="438"/>
      <point x="469" y="377"/>
      <point x="377" y="377" type="curve"/>
      <point x="157" y="377" type="line"/>
    </contour>
    <contour>
      <point x="308" y="0" type="move" name="bottom"/>
    </contour>
    <contour>
      <point x="308" y="698" type="move" name="top"/>
    </contour>
  </outline>
</glyph>
<glyph name="C" format="1">
  <advance width="653"/>
  <unicode hex="0043"/>
  <outline>
    <contour>
      <point x="346" y="-12" type="curve" smooth="yes"/>
      <point x="475" y="-12"/>
      <point x="548" y="49"/>
      <point x="583" y="141" type="curve"/>
      <point x="567" y="148" type="line"/>
      <point x="533" y="59"/>
      <point x="465" y="6"/>
      <point x="346" y="6" type="curve" smooth="yes"/>
      <point x="188" y="6"/>
      <point x="89" y="112"/>
      <point x="89" y="327" type="curve" smooth="yes"/>
      <point x="89" y="371" type="line" smooth="yes"/>
      <point x="89" y="586"/>
      <point x="188" y="692"/>
      <point x="346" y="692" type="curve" smooth="yes"/>
      <point x="469" y="692"/>
      <point x="553" y="633"/>
      <point x="553" y="556" type="curve" smooth="yes"/>
      <point x="553" y="493" type="line"/>
      <point x="574" y="493" type="line"/>
      <point x="574" y="698" type="line" name="hr01"/>
      <point x="553" y="698" type="line"/>
      <point x="553" y="613" type="line"/>
      <point x="550" y="613" type="line"/>
      <point x="535" y="655"/>
      <point x="473" y="710"/>
      <point x="346" y="710" type="curve" smooth="yes" name="hr02"/>
      <point x="168" y="710"/>
      <point x="65" y="589"/>
      <point x="65" y="349" type="curve" smooth="yes"/>
      <point x="65" y="109"/>
      <point x="168" y="-12"/>
    </contour>
    <contour>
      <point x="346" y="0" type="move" name="bottom"/>
    </contour>
    <contour>
      <point x="346" y="698" type="move" name="top"/>
    </contour>
  </outline>
</glyph>
<glyph name="E" format="1">
  <advance width="580"/>
  <unicode hex="0045"/>
  <outline>
    <contour>
      <point x="50" y="0" type="line"/>
      <point x="520" y="0" type="line"/>
      <point x="520" y="148" type="line"/>
      <point x="499" y="148" type="line"/>
      <point x="499" y="18" type="line"/>
      <point x="157" y="18" type="line"/>
      <point x="157" y="359" type="line"/>
      <point x="419" y="359" type="line"/>
      <point x="419" y="274" type="line"/>
      <point x="440" y="274" type="line"/>
      <point x="440" y="462" type="line"/>
      <point x="419" y="462" type="line"/>
      <point x="419" y="377" type="line"/>
      <point x="157" y="377" type="line"/>
      <point x="157" y="680" type="line"/>
      <point x="491" y="680" type="line" name="hr01"/>
      <point x="491" y="550" type="line"/>
      <point x="512" y="550" type="line"/>
      <point x="512" y="698" type="line"/>
      <point x="50" y="698" type="line"/>
      <point x="50" y="680" type="line"/>
      <point x="135" y="680" type="line"/>
      <point x="135" y="18" type="line"/>
      <point x="50" y="18" type="line"/>
    </contour>
    <contour>
      <point x="306" y="0" type="move" name="bottom"/>
    </contour>
    <contour>
      <point x="520" y="0" type="move" name="bottomright"/>
    </contour>
    <contour>
      <point x="306" y="698" type="move" name="top"/>
    </contour>
  </outline>
</glyph>
<glyph name="F" format="1">
  <advance width="552"/>
  <unicode hex="0046"/>
  <outline>
    <contour>
      <point x="50" y="0" type="line" name="hr00"/>
      <point x="262" y="0" type="line"/>
      <point x="262" y="18" type="line"/>
      <point x="157" y="18" type="line"/>
      <point x="157" y="349" type="line"/>
      <point x="419" y="349" type="line"/>
      <point x="419" y="264" type="line"/>
      <point x="440" y="264" type="line"/>
      <point x="440" y="452" type="line"/>
      <point x="419" y="452" type="line"/>
      <point x="419" y="367" type="line"/>
      <point x="157" y="367" type="line"/>
      <point x="157" y="680" type="line"/>
      <point x="481" y="680" type="line"/>
      <point x="481" y="550" type="line"/>
      <point x="502" y="550" type="line"/>
      <point x="502" y="698" type="line"/>
      <point x="50" y="698" type="line"/>
      <point x="50" y="680" type="line"/>
      <point x="135" y="680" type="line"/>
      <point x="135" y="18" type="line"/>
      <point x="50" y="18" type="line"/>
    </contour>
    <contour>
      <point x="146" y="0" type="move" name="bottom"/>
    </contour>
    <contour>
      <point x="277" y="698" type="move" name="top"/>
    </contour>
  </outline>
</glyph>
<glyph name="G" format="1">
  <advance width="757"/>
  <unicode hex="0047"/>
  <outline>
    <contour>
      <point x="356" y="-12" type="curve" smooth="yes"/>
      <point x="478" y="-12"/>
      <point x="553" y="38"/>
      <point x="586" y="121" type="curve"/>
      <point x="589" y="121" type="line"/>
      <point x="593" y="0" type="line" name="hr01"/>
      <point x="612" y="0" type="line"/>
      <point x="612" y="302" type="line"/>
      <point x="697" y="302" type="line"/>
      <point x="697" y="320" type="line"/>
      <point x="440" y="320" type="line"/>
      <point x="440" y="302" type="line"/>
      <point x="590" y="302" type="line"/>
      <point x="590" y="206" type="line" smooth="yes"/>
      <point x="590" y="74"/>
      <point x="480" y="6"/>
      <point x="356" y="6" type="curve" smooth="yes" name="hr02"/>
      <point x="190" y="6"/>
      <point x="89" y="117"/>
      <point x="89" y="328" type="curve" smooth="yes"/>
      <point x="89" y="370" type="line" smooth="yes"/>
      <point x="89" y="583"/>
      <point x="190" y="692"/>
      <point x="366" y="692" type="curve" smooth="yes"/>
      <point x="481" y="692"/>
      <point x="583" y="639"/>
      <point x="583" y="562" type="curve" smooth="yes"/>
      <point x="583" y="493" type="line"/>
      <point x="604" y="493" type="line"/>
      <point x="604" y="698" type="line" name="hr03"/>
      <point x="583" y="698" type="line"/>
      <point x="583" y="613" type="line"/>
      <point x="580" y="613" type="line"/>
      <point x="563" y="659"/>
      <point x="490" y="710"/>
      <point x="366" y="710" type="curve" smooth="yes" name="hr04"/>
      <point x="178" y="710"/>
      <point x="65" y="596"/>
      <point x="65" y="349" type="curve" smooth="yes"/>
      <point x="65" y="109"/>
      <point x="169" y="-12"/>
    </contour>
    <contour>
      <point x="356" y="0" type="move" name="bottom"/>
    </contour>
    <contour>
      <point x="365" y="698" type="move" name="top"/>
    </contour>
  </outline>
</glyph>
<glyph name="I" format="1">
  <advance width="292"/>
  <unicode hex="0049"/>
  <outline>
    <contour>
      <point x="50" y="0" type="line" name="hr00"/>
      <point x="242" y="0" type="line"/>
      <point x="242" y="18" type="line"/>
      <point x="157" y="18" type="line"/>
      <point x="157" y="680" type="line"/>
      <point x="242" y="680" type="line"/>
      <point x="242" y="698" type="line"/>
      <point x="50" y="698" type="line"/>
      <point x="50" y="680" type="line"/>
      <point x="135" y="680" type="line"/>
      <point x="135" y="18" type="line"/>
      <point x="50" y="18" type="line"/>
    </contour>
    <contour>
      <point x="146" y="0" type="move" name="bottom"/>
    </contour>
    <contour>
      <point x="242" y="0" type="move" name="bottomright"/>
    </contour>
    <contour>
      <point x="146" y="698" type="move" name="top"/>
    </contour>
  </outline>
</glyph>
<glyph name="J" format="1">
  <advance width="400"/>
  <unicode hex="004A"/>
  <outline>
    <contour>
      <point x="141" y="-12" type="curve" smooth="yes" name="hr00"/>
      <point x="218" y="-12"/>
      <point x="275" y="21"/>
      <point x="275" y="116" type="curve" smooth="yes"/>
      <point x="275" y="680" type="line"/>
      <point x="360" y="680" type="line"/>
      <point x="360" y="698" type="line"/>
      <point x="148" y="698" type="line"/>
      <point x="148" y="680" type="line"/>
      <point x="253" y="680" type="line"/>
      <point x="253" y="114" type="line" smooth="yes"/>
      <point x="253" y="29"/>
      <point x="207" y="2"/>
      <point x="141" y="2" type="curve" smooth="yes"/>
      <point x="91" y="2"/>
      <point x="69" y="13"/>
      <point x="51" y="21" type="curve"/>
      <point x="51" y="23" type="line"/>
      <point x="72" y="28"/>
      <point x="84" y="41"/>
      <point x="84" y="57" type="curve" smooth="yes"/>
      <point x="84" y="73"/>
      <point x="73" y="87"/>
      <point x="55" y="87" type="curve" smooth="yes"/>
      <point x="37" y="87"/>
      <point x="25" y="73"/>
      <point x="25" y="57" type="curve" smooth="yes"/>
      <point x="25" y="22"/>
      <point x="64" y="-12"/>
    </contour>
    <contour>
      <point x="152" y="0" type="move" name="bottom"/>
    </contour>
    <contour>
      <point x="253" y="698" type="move" name="top"/>
    </contour>
  </outline>
</glyph>
<glyph name="K" format="1">
  <advance width="667"/>
  <unicode hex="004B"/>
  <outline>
    <contour>
      <point x="50" y="0" type="line" name="hr00"/>
      <point x="242" y="0" type="line"/>
      <point x="242" y="18" type="line"/>
      <point x="157" y="18" type="line"/>
      <point x="157" y="239" type="line"/>
      <point x="298" y="388" type="line"/>
      <point x="546" y="18" type="line"/>
      <point x="456" y="18" type="line"/>
      <point x="456" y="0" type="line"/>
      <point x="642" y="0" type="line"/>
      <point x="642" y="18" type="line"/>
      <point x="572" y="18" type="line"/>
      <point x="312" y="403" type="line"/>
      <point x="565" y="680" type="line"/>
      <point x="630" y="680" type="line"/>
      <point x="630" y="698" type="line"/>
      <point x="448" y="698" type="line"/>
      <point x="448" y="680" type="line"/>
      <point x="538" y="680" type="line"/>
      <point x="295" y="413" type="line"/>
      <point x="159" y="267" type="line"/>
      <point x="157" y="267" type="line"/>
      <point x="157" y="680" type="line"/>
      <point x="242" y="680" type="line"/>
      <point x="242" y="698" type="line"/>
      <point x="50" y="698" type="line"/>
      <point x="50" y="680" type="line"/>
      <point x="135" y="680" type="line"/>
      <point x="135" y="18" type="line"/>
      <point x="50" y="18" type="line"/>
    </contour>
    <contour>
      <point x="346" y="0" type="move" name="bottom"/>
    </contour>
    <contour>
      <point x="344" y="698" type="move" name="top"/>
    </contour>
  </outline>
</glyph>
<glyph name="L" format="1">
  <advance width="547"/>
  <unicode hex="004C"/>
  <outline>
    <contour>
      <point x="50" y="0" type="line" name="hr00"/>
      <point x="501" y="0" type="line"/>
      <point x="501" y="148" type="line"/>
      <point x="480" y="148" type="line"/>
      <point x="480" y="18" type="line"/>
      <point x="157" y="18" type="line"/>
      <point x="157" y="680" type="line"/>
      <point x="242" y="680" type="line"/>
      <point x="242" y="698" type="line"/>
      <point x="50" y="698" type="line"/>
      <point x="50" y="680" type="line"/>
      <point x="135" y="680" type="line"/>
      <point x="135" y="18" type="line"/>
      <point x="50" y="18" type="line"/>
    </contour>
    <contour>
      <point x="276" y="0" type="move" name="bottom"/>
    </contour>
    <contour>
      <point x="146" y="698" type="move" name="top"/>
    </contour>
    <contour>
      <point x="321" y="740" type="move" name="topright"/>
    </contour>
  </outline>
</glyph>
<glyph name="M" format="1">
  <advance width="852"/>
  <unicode hex="004D"/>
  <outline>
    <contour>
      <point x="50" y="0" type="line"/>
      <point x="242" y="0" type="line"/>
      <point x="242" y="18" type="line"/>
      <point x="157" y="18" type="line"/>
      <point x="157" y="675" type="line"/>
      <point x="160" y="675" type="line"/>
      <point x="256" y="515" type="line"/>
      <point x="426" y="236" type="line"/>
      <point x="596" y="516" type="line"/>
      <point x="692" y="676" type="line"/>
      <point x="695" y="676" type="line"/>
      <point x="695" y="18" type="line"/>
      <point x="610" y="18" type="line"/>
      <point x="610" y="0" type="line"/>
      <point x="802" y="0" type="line"/>
      <point x="802" y="18" type="line"/>
      <point x="717" y="18" type="line"/>
      <point x="717" y="680" type="line" name="hr01"/>
      <point x="802" y="680" type="line"/>
      <point x="802" y="698" type="line"/>
      <point x="683" y="698" type="line"/>
      <point x="428" y="277" type="line"/>
      <point x="425" y="277" type="line"/>
      <point x="169" y="698" type="line"/>
      <point x="50" y="698" type="line"/>
      <point x="50" y="680" type="line"/>
      <point x="135" y="680" type="line"/>
      <point x="135" y="18" type="line"/>
      <point x="50" y="18" type="line"/>
    </contour>
    <contour>
      <point x="426" y="0" type="move" name="bottom"/>
    </contour>
    <contour>
      <point x="426" y="698" type="move" name="top"/>
    </contour>
  </outline>
</glyph>
<glyph name="N" format="1">
  <advance width="739"/>
  <unicode hex="004E"/>
  <outline>
    <contour>
      <point x="50" y="0" type="line"/>
      <point x="242" y="0" type="line"/>
      <point x="242" y="18" type="line"/>
      <point x="157" y="18" type="line"/>
      <point x="157" y="674" type="line"/>
      <point x="160" y="674" type="line"/>
      <point x="584" y="0" type="line"/>
      <point x="614" y="0" type="line"/>
      <point x="614" y="680" type="line" name="hr01"/>
      <point x="699" y="680" type="line"/>
      <point x="699" y="698" type="line"/>
      <point x="507" y="698" type="line"/>
      <point x="507" y="680" type="line"/>
      <point x="592" y="680" type="line"/>
      <point x="592" y="31" type="line"/>
      <point x="589" y="31" type="line"/>
      <point x="169" y="698" type="line"/>
      <point x="50" y="698" type="line"/>
      <point x="50" y="680" type="line"/>
      <point x="135" y="680" type="line"/>
      <point x="135" y="18" type="line" name="hr02"/>
      <point x="50" y="18" type="line"/>
    </contour>
    <contour>
      <point x="369" y="0" type="move" name="bottom"/>
    </contour>
    <contour>
      <point x="369" y="698" type="move" name="top"/>
    </contour>
  </outline>
</glyph>
<glyph name="O" format="1">
  <advance width="710"/>
  <unicode hex="004F"/>
  <outline>
    <contour>
      <point x="355" y="6" type="curve" name="hr00"/>
      <point x="190" y="6"/>
      <point x="89" y="116"/>
      <point x="89" y="327" type="curve" smooth="yes"/>
      <point x="89" y="371" type="line" smooth="yes"/>
      <point x="89" y="582"/>
      <point x="190" y="692"/>
      <point x="355" y="692" type="curve" smooth="yes"/>
      <point x="520" y="692"/>
      <point x="621" y="582"/>
      <point x="621" y="371" type="curve"/>
      <point x="621" y="327" type="line" smooth="yes"/>
      <point x="621" y="116"/>
      <point x="520" y="6"/>
    </contour>
    <contour>
      <point x="355" y="-12" type="curve" smooth="yes"/>
      <point x="540" y="-12"/>
      <point x="645" y="109"/>
      <point x="645" y="349" type="curve" smooth="yes"/>
      <point x="645" y="589"/>
      <point x="540" y="710"/>
      <point x="355" y="710" type="curve" smooth="yes"/>
      <point x="170" y="710"/>
      <point x="65" y="589"/>
      <point x="65" y="349" type="curve" smooth="yes"/>
      <point x="65" y="109"/>
      <point x="170" y="-12"/>
    </contour>
    <contour>
      <point x="355" y="0" type="move" name="bottom"/>
    </contour>
    <contour>
      <point x="355" y="698" type="move" name="top"/>
    </contour>
  </outline>
</glyph>
<glyph name="P" format="1">
  <advance width="589"/>
  <unicode hex="0050"/>
  <outline>
    <contour>
      <point x="50" y="0" type="line" name="hr00"/>
      <point x="262" y="0" type="line"/>
      <point x="262" y="18" type="line"/>
      <point x="157" y="18" type="line"/>
      <point x="157" y="332" type="line"/>
      <point x="368" y="332" type="line" smooth="yes"/>
      <point x="482" y="332"/>
      <point x="544" y="403"/>
      <point x="544" y="515" type="curve" smooth="yes"/>
      <point x="544" y="627"/>
      <point x="482" y="698"/>
      <point x="368" y="698" type="curve" smooth="yes"/>
      <point x="50" y="698" type="line"/>
      <point x="50" y="680" type="line"/>
      <point x="135" y="680" type="line"/>
      <point x="135" y="18" type="line"/>
      <point x="50" y="18" type="line"/>
    </contour>
    <contour>
      <point x="157" y="680" type="line"/>
      <point x="368" y="680" type="line" smooth="yes"/>
      <point x="469" y="680"/>
      <point x="520" y="610"/>
      <point x="520" y="534" type="curve"/>
      <point x="520" y="496" type="line" smooth="yes"/>
      <point x="520" y="420"/>
      <point x="469" y="350"/>
      <point x="368" y="350" type="curve" smooth="yes"/>
      <point x="157" y="350" type="line"/>
    </contour>
    <contour>
      <point x="146" y="0" type="move" name="bottom"/>
    </contour>
    <contour>
      <point x="283" y="698" type="move" name="top"/>
    </contour>
  </outline>
</glyph>
<glyph name="Q" format="1">
  <advance width="710"/>
  <unicode hex="0051"/>
  <outline>
    <contour>
      <point x="507" y="-146" type="curve" smooth="yes" name="hr00"/>
      <point x="547" y="-146" type="line"/>
      <point x="547" y="-128" type="line"/>
      <point x="512" y="-128" type="line" smooth="yes"/>
      <point x="469" y="-128"/>
      <point x="438" y="-114"/>
      <point x="412" y="-77" type="curve" smooth="yes"/>
      <point x="366" y="-12" type="line"/>
      <point x="544" y="-7"/>
      <point x="645" y="114"/>
      <point x="645" y="349" type="curve" smooth="yes"/>
      <point x="645" y="589"/>
      <point x="540" y="710"/>
      <point x="355" y="710" type="curve" smooth="yes"/>
      <point x="170" y="710"/>
      <point x="65" y="589"/>
      <point x="65" y="349" type="curve" smooth="yes"/>
      <point x="65" y="114"/>
      <point x="165" y="-6"/>
      <point x="342" y="-12" type="curve"/>
      <point x="390" y="-81" type="line" smooth="yes"/>
      <point x="417" y="-121"/>
      <point x="456" y="-146"/>
    </contour>
    <contour>
      <point x="355" y="6" type="curve"/>
      <point x="190" y="6"/>
      <point x="89" y="116"/>
      <point x="89" y="327" type="curve" smooth="yes"/>
      <point x="89" y="371" type="line" smooth="yes"/>
      <point x="89" y="582"/>
      <point x="190" y="692"/>
      <point x="355" y="692" type="curve" smooth="yes"/>
      <point x="520" y="692"/>
      <point x="621" y="582"/>
      <point x="621" y="371" type="curve"/>
      <point x="621" y="327" type="line" smooth="yes"/>
      <point x="621" y="116"/>
      <point x="520" y="6"/>
    </contour>
    <contour>
      <point x="355" y="698" type="move" name="top"/>
    </contour>
  </outline>
</glyph>
<glyph name="R" format="1">
  <advance width="663"/>
  <unicode hex="0052"/>
  <outline>
    <contour>
      <point x="50" y="0" type="line" name="hr00"/>
      <point x="242" y="0" type="line"/>
      <point x="242" y="18" type="line"/>
      <point x="157" y="18" type="line"/>
      <point x="157" y="332" type="line"/>
      <point x="342" y="332" type="line"/>
      <point x="478" y="74" type="line" smooth="yes"/>
      <point x="503" y="26"/>
      <point x="542" y="0"/>
      <point x="596" y="0" type="curve" smooth="yes"/>
      <point x="623" y="0" type="line"/>
      <point x="623" y="18" type="line"/>
      <point x="599" y="18" type="line" smooth="yes"/>
      <point x="556" y="18"/>
      <point x="520" y="41"/>
      <point x="498" y="83" type="curve" smooth="yes"/>
      <point x="365" y="332" type="line"/>
      <point x="482" y="332"/>
      <point x="544" y="403"/>
      <point x="544" y="515" type="curve" smooth="yes"/>
      <point x="544" y="627"/>
      <point x="482" y="698"/>
      <point x="368" y="698" type="curve" smooth="yes"/>
      <point x="50" y="698" type="line"/>
      <point x="50" y="680" type="line"/>
      <point x="135" y="680" type="line"/>
      <point x="135" y="18" type="line"/>
      <point x="50" y="18" type="line"/>
    </contour>
    <contour>
      <point x="157" y="680" type="line"/>
      <point x="368" y="680" type="line" smooth="yes"/>
      <point x="469" y="680"/>
      <point x="520" y="610"/>
      <point x="520" y="534" type="curve"/>
      <point x="520" y="496" type="line" smooth="yes"/>
      <point x="520" y="420"/>
      <point x="469" y="350"/>
      <point x="368" y="350" type="curve" smooth="yes"/>
      <point x="157" y="350" type="line"/>
    </contour>
    <contour>
      <point x="356" y="0" type="move" name="bottom"/>
    </contour>
    <contour>
      <point x="314" y="698" type="move" name="top"/>
    </contour>
  </outline>
</glyph>
<glyph name="S" format="1">
  <advance width="577"/>
  <unicode hex="0053"/>
  <outline>
    <contour>
      <point x="283" y="-12" type="curve" smooth="yes"/>
      <point x="435" y="-12"/>
      <point x="507" y="63"/>
      <point x="507" y="176" type="curve" smooth="yes"/>
      <point x="507" y="258"/>
      <point x="469" y="321"/>
      <point x="329" y="359" type="curve" smooth="yes"/>
      <point x="259" y="378" type="line" smooth="yes"/>
      <point x="174" y="401"/>
      <point x="97" y="435"/>
      <point x="97" y="536" type="curve" smooth="yes"/>
      <point x="97" y="637"/>
      <point x="165" y="692"/>
      <point x="287" y="692" type="curve" smooth="yes"/>
      <point x="398" y="692"/>
      <point x="473" y="639"/>
      <point x="473" y="562" type="curve" smooth="yes" name="hr01"/>
      <point x="473" y="493" type="line"/>
      <point x="494" y="493" type="line"/>
      <point x="494" y="698" type="line"/>
      <point x="473" y="698" type="line"/>
      <point x="473" y="625" type="line"/>
      <point x="470" y="625" type="line"/>
      <point x="451" y="663"/>
      <point x="399" y="710"/>
      <point x="287" y="710" type="curve" name="hr02"/>
      <point x="158" y="710"/>
      <point x="75" y="652"/>
      <point x="75" y="536" type="curve" smooth="yes"/>
      <point x="75" y="454"/>
      <point x="116" y="394"/>
      <point x="253" y="357" type="curve" smooth="yes"/>
      <point x="323" y="338" type="line" smooth="yes"/>
      <point x="406" y="316"/>
      <point x="485" y="282"/>
      <point x="485" y="173" type="curve" smooth="yes"/>
      <point x="485" y="67"/>
      <point x="418" y="6"/>
      <point x="281" y="6" type="curve" smooth="yes"/>
      <point x="139" y="6"/>
      <point x="91" y="70"/>
      <point x="91" y="151" type="curve" smooth="yes" name="hr03"/>
      <point x="91" y="215" type="line"/>
      <point x="70" y="215" type="line"/>
      <point x="70" y="0" type="line"/>
      <point x="91" y="0" type="line"/>
      <point x="91" y="77" type="line"/>
      <point x="94" y="77" type="line"/>
      <point x="116" y="33"/>
      <point x="160" y="-12"/>
    </contour>
    <contour>
      <point x="283" y="0" type="move" name="bottom"/>
    </contour>
    <contour>
      <point x="287" y="698" type="move" name="top"/>
    </contour>
  </outline>
</glyph>
<glyph name="T" format="1">
  <advance width="642"/>
  <unicode hex="0054"/>
  <outline>
    <contour>
      <point x="204" y="0" type="line" name="hr00"/>
      <point x="438" y="0" type="line"/>
      <point x="438" y="18" type="line"/>
      <point x="332" y="18" type="line"/>
      <point x="332" y="680" type="line"/>
      <point x="576" y="680" type="line"/>
      <point x="576" y="550" type="line"/>
      <point x="597" y="550" type="line"/>
      <point x="597" y="698" type="line"/>
      <point x="45" y="698" type="line"/>
      <point x="45" y="550" type="line"/>
      <point x="66" y="550" type="line"/>
      <point x="66" y="680" type="line"/>
      <point x="310" y="680" type="line"/>
      <point x="310" y="18" type="line"/>
      <point x="204" y="18" type="line"/>
    </contour>
    <contour>
      <point x="321" y="0" type="move" name="bottom"/>
    </contour>
    <contour>
      <point x="321" y="698" type="move" name="top"/>
    </contour>
  </outline>
</glyph>
<glyph name="U" format="1">
  <advance width="710"/>
  <unicode hex="0055"/>
  <outline>
    <contour>
      <point x="355" y="-12" type="curve" smooth="yes" name="hr00"/>
      <point x="527" y="-12"/>
      <point x="585" y="63"/>
      <point x="585" y="270" type="curve" smooth="yes"/>
      <point x="585" y="680" type="line"/>
      <point x="670" y="680" type="line"/>
      <point x="670" y="698" type="line"/>
      <point x="480" y="698" type="line"/>
      <point x="480" y="680" type="line"/>
      <point x="565" y="680" type="line"/>
      <point x="565" y="268" type="line" smooth="yes"/>
      <point x="565" y="78"/>
      <point x="517" y="7"/>
      <point x="356" y="7" type="curve" smooth="yes"/>
      <point x="195" y="7"/>
      <point x="147" y="78"/>
      <point x="147" y="268" type="curve" smooth="yes"/>
      <point x="147" y="680" type="line"/>
      <point x="232" y="680" type="line"/>
      <point x="232" y="698" type="line"/>
      <point x="40" y="698" type="line"/>
      <point x="40" y="680" type="line"/>
      <point x="125" y="680" type="line"/>
      <point x="125" y="270" type="line" smooth="yes"/>
      <point x="125" y="63"/>
      <point x="183" y="-12"/>
    </contour>
    <contour>
      <point x="356" y="0" type="move" name="bottom"/>
    </contour>
    <contour>
      <point x="454" y="0" type="move" name="bottomright"/>
    </contour>
    <contour>
      <point x="356" y="698" type="move" name="top"/>
    </contour>
  </outline>
</glyph>
<glyph name="V" format="1">
  <advance width="667"/>
  <unicode hex="0056"/>
  <outline>
    <contour>
      <point x="320" y="0" type="line" name="hr00"/>
      <point x="347" y="0" type="line"/>
      <point x="582" y="680" type="line"/>
      <point x="642" y="680" type="line"/>
      <point x="642" y="698" type="line"/>
      <point x="456" y="698" type="line"/>
      <point x="456" y="680" type="line"/>
      <point x="561" y="680" type="line"/>
      <point x="431" y="303" type="line"/>
      <point x="336" y="25" type="line"/>
      <point x="333" y="25" type="line"/>
      <point x="238" y="301" type="line"/>
      <point x="108" y="680" type="line"/>
      <point x="213" y="680" type="line"/>
      <point x="213" y="698" type="line"/>
      <point x="25" y="698" type="line"/>
      <point x="25" y="680" type="line"/>
      <point x="85" y="680" type="line"/>
    </contour>
    <contour>
      <point x="334" y="0" type="move" name="bottom"/>
    </contour>
    <contour>
      <point x="334" y="698" type="move" name="top"/>
    </contour>
  </outline>
</glyph>
<glyph name="W" format="1">
  <advance width="969"/>
  <unicode hex="0057"/>
  <outline>
    <contour>
      <point x="266" y="0" type="line"/>
      <point x="294" y="0" type="line"/>
      <point x="483" y="674" type="line"/>
      <point x="486" y="674" type="line"/>
      <point x="675" y="0" type="line"/>
      <point x="703" y="0" type="line"/>
      <point x="884" y="680" type="line" name="hr01"/>
      <point x="944" y="680" type="line"/>
      <point x="944" y="698" type="line"/>
      <point x="759" y="698" type="line"/>
      <point x="759" y="680" type="line"/>
      <point x="864" y="680" type="line"/>
      <point x="690" y="31" type="line"/>
      <point x="687" y="31" type="line"/>
      <point x="501" y="698" type="line"/>
      <point x="470" y="698" type="line"/>
      <point x="282" y="31" type="line"/>
      <point x="279" y="31" type="line"/>
      <point x="109" y="680" type="line"/>
      <point x="214" y="680" type="line"/>
      <point x="214" y="698" type="line"/>
      <point x="25" y="698" type="line"/>
      <point x="25" y="680" type="line"/>
      <point x="85" y="680" type="line"/>
    </contour>
    <contour>
      <point x="484" y="0" type="move" name="bottom"/>
    </contour>
    <contour>
      <point x="484" y="698" type="move" name="top"/>
    </contour>
  </outline>
</glyph>
<glyph name="X" format="1">
  <advance width="641"/>
  <unicode hex="0058"/>
  <outline>
    <contour>
      <point x="15" y="0" type="line" name="hr00"/>
      <point x="205" y="0" type="line"/>
      <point x="205" y="18" type="line"/>
      <point x="105" y="18" type="line"/>
      <point x="318" y="337" type="line"/>
      <point x="321" y="337" type="line"/>
      <point x="535" y="18" type="line"/>
      <point x="435" y="18" type="line"/>
      <point x="435" y="0" type="line"/>
      <point x="626" y="0" type="line"/>
      <point x="626" y="18" type="line"/>
      <point x="561" y="18" type="line"/>
      <point x="333" y="357" type="line"/>
      <point x="549" y="680" type="line"/>
      <point x="614" y="680" type="line"/>
      <point x="614" y="698" type="line"/>
      <point x="424" y="698" type="line"/>
      <point x="424" y="680" type="line"/>
      <point x="524" y="680" type="line"/>
      <point x="322" y="375" type="line"/>
      <point x="319" y="375" type="line"/>
      <point x="115" y="680" type="line"/>
      <point x="215" y="680" type="line"/>
      <point x="215" y="698" type="line"/>
      <point x="24" y="698" type="line"/>
      <point x="24" y="680" type="line"/>
      <point x="89" y="680" type="line"/>
      <point x="307" y="356" type="line"/>
      <point x="80" y="18" type="line"/>
      <point x="15" y="18" type="line"/>
    </contour>
    <contour>
      <point x="320" y="0" type="move" name="bottom"/>
    </contour>
    <contour>
      <point x="320" y="698" type="move" name="top"/>
    </contour>
  </outline>
</glyph>
<glyph name="Y" format="1">
  <advance width="624"/>
  <unicode hex="0059"/>
  <outline>
    <contour>
      <point x="196" y="0" type="line"/>
      <point x="428" y="0" type="line"/>
      <point x="428" y="18" type="line"/>
      <point x="323" y="18" type="line"/>
      <point x="323" y="286" type="line"/>
      <point x="545" y="680" type="line"/>
      <point x="610" y="680" type="line" name="hr01"/>
      <point x="610" y="698" type="line"/>
      <point x="423" y="698" type="line"/>
      <point x="423" y="680" type="line"/>
      <point x="523" y="680" type="line"/>
      <point x="314" y="309" type="line"/>
      <point x="311" y="309" type="line"/>
      <point x="103" y="680" type="line"/>
      <point x="203" y="680" type="line"/>
      <point x="203" y="698" type="line"/>
      <point x="14" y="698" type="line"/>
      <point x="14" y="680" type="line"/>
      <point x="79" y="680" type="line"/>
      <point x="301" y="283" type="line" name="hr02"/>
      <point x="301" y="18" type="line"/>
      <point x="196" y="18" type="line"/>
    </contour>
    <contour>
      <point x="312" y="0" type="move" name="bottom"/>
    </contour>
    <contour>
      <point x="312" y="698" type="move" name="top"/>
    </contour>
  </outline>
</glyph>
<glyph name="Z" format="1">
  <advance width="607"/>
  <unicode hex="005A"/>
  <outline>
    <contour>
      <point x="60" y="0" type="line" name="hr00"/>
      <point x="547" y="0" type="line"/>
      <point x="547" y="148" type="line"/>
      <point x="526" y="148" type="line"/>
      <point x="526" y="18" type="line"/>
      <point x="84" y="18" type="line"/>
      <point x="537" y="680" type="line"/>
      <point x="537" y="698" type="line"/>
      <point x="69" y="698" type="line"/>
      <point x="69" y="550" type="line"/>
      <point x="90" y="550" type="line"/>
      <point x="90" y="680" type="line"/>
      <point x="512" y="680" type="line"/>
      <point x="60" y="18" type="line"/>
    </contour>
    <contour>
      <point x="303" y="0" type="move" name="bottom"/>
    </contour>
    <contour>
      <point x="303" y="698" type="move" name="top"/>
    </contour>
  </outline>
</glyph>
<glyph name="bracketleft" format="1">
  <advance width="305"/>
  <unicode hex="005B"/>
  <outline>
    <contour>
      <point x="110" y="-138" type="line" name="hr00"/>
      <point x="235" y="-138" type="line"/>
      <point x="235" y="-120" type="line"/>
      <point x="130" y="-120" type="line"/>
      <point x="130" y="742" type="line"/>
      <point x="235" y="742" type="line"/>
      <point x="235" y="760" type="line"/>
      <point x="110" y="760" type="line"/>
    </contour>
  </outline>
</glyph>
<glyph name="backslash" format="1">
  <advance width="308"/>
  <unicode hex="005C"/>
  <outline>
    <contour>
      <point x="281" y="-143" type="line" name="hr00"/>
      <point x="301" y="-143" type="line"/>
      <point x="63" y="748" type="line"/>
      <point x="43" y="748" type="line"/>
    </contour>
  </outline>
</glyph>
<glyph name="bracketright" format="1">
  <advance width="305"/>
  <unicode hex="005D"/>
  <outline>
    <contour>
      <point x="70" y="-138" type="line" name="hr00"/>
      <point x="195" y="-138" type="line"/>
      <point x="195" y="760" type="line"/>
      <point x="70" y="760" type="line"/>
      <point x="70" y="742" type="line"/>
      <point x="175" y="742" type="line"/>
      <point x="175" y="-120" type="line"/>
      <point x="70" y="-120" type="line"/>
    </contour>
  </outline>
</glyph>
<glyph name="grave" format="1">
  <advance width="600"/>
  <unicode hex="0060"/>
  <outline>
    <contour>
      <point x="318" y="588" type="line" name="hr00"/>
      <point x="331" y="597" type="line"/>
      <point x="221" y="751" type="line"/>
      <point x="202" y="739" type="line"/>
    </contour>
    <contour>
      <point x="300" y="540" type="move" name="_top"/>
    </contour>
  </outline>
</glyph>
<glyph name="a" format="1">
  <advance width="523"/>
  <unicode hex="0061"/>
  <outline>
    <contour>
      <point x="221" y="-12" type="curve" smooth="yes"/>
      <point x="320" y="-12"/>
      <point x="368" y="43"/>
      <point x="385" y="90" type="curve"/>
      <point x="388" y="90" type="line"/>
      <point x="388" y="35" type="line" smooth="yes"/>
      <point x="388" y="2"/>
      <point x="399" y="-7"/>
      <point x="430" y="-7" type="curve" smooth="yes" name="hr01"/>
      <point x="447" y="-7"/>
      <point x="477" y="-3"/>
      <point x="489" y="2" type="curve"/>
      <point x="489" y="14" type="line"/>
      <point x="408" y="14" type="line"/>
      <point x="408" y="363" type="line" smooth="yes"/>
      <point x="408" y="464"/>
      <point x="342" y="518"/>
      <point x="240" y="518" type="curve" smooth="yes"/>
      <point x="150" y="518"/>
      <point x="80" y="479"/>
      <point x="80" y="440" type="curve" smooth="yes"/>
      <point x="80" y="424"/>
      <point x="90" y="414"/>
      <point x="106" y="414" type="curve" smooth="yes"/>
      <point x="122" y="414"/>
      <point x="132" y="424"/>
      <point x="132" y="440" type="curve" smooth="yes"/>
      <point x="132" y="453"/>
      <point x="123" y="463"/>
      <point x="110" y="468" type="curve"/>
      <point x="110" y="470" type="line"/>
      <point x="131" y="487"/>
      <point x="171" y="500"/>
      <point x="240" y="500" type="curve" smooth="yes"/>
      <point x="334" y="500"/>
      <point x="387" y="453"/>
      <point x="387" y="360" type="curve" smooth="yes"/>
      <point x="387" y="268" type="line"/>
      <point x="276" y="268" type="line" smooth="yes"/>
      <point x="121" y="268"/>
      <point x="60" y="220"/>
      <point x="60" y="123" type="curve" smooth="yes" name="hr02"/>
      <point x="60" y="42"/>
      <point x="120" y="-12"/>
    </contour>
    <contour>
      <point x="221" y="6" type="curve"/>
      <point x="132" y="6"/>
      <point x="83" y="52"/>
      <point x="83" y="112" type="curve" smooth="yes"/>
      <point x="83" y="136" type="line" smooth="yes"/>
      <point x="83" y="210"/>
      <point x="132" y="252"/>
      <point x="282" y="252" type="curve" smooth="yes"/>
      <point x="387" y="252" type="line"/>
      <point x="387" y="144" type="line" smooth="yes"/>
      <point x="387" y="68"/>
      <point x="316" y="6"/>
    </contour>
    <contour>
      <point x="227" y="0" type="move" name="bottom"/>
    </contour>
    <contour>
      <point x="483" y="0" type="move" name="bottomright"/>
    </contour>
    <contour>
      <point x="240" y="540" type="move" name="top"/>
    </contour>
  </outline>
</glyph>
<glyph name="c" format="1">
  <advance width="496"/>
  <unicode hex="0063"/>
  <outline>
    <contour>
      <point x="275" y="-12" type="curve" smooth="yes" name="hr00"/>
      <point x="377" y="-12"/>
      <point x="424" y="52"/>
      <point x="451" y="104" type="curve"/>
      <point x="437" y="112" type="line"/>
      <point x="407" y="58"/>
      <point x="363" y="6"/>
      <point x="275" y="6" type="curve" smooth="yes"/>
      <point x="162" y="6"/>
      <point x="83" y="93"/>
      <point x="83" y="229" type="curve" smooth="yes"/>
      <point x="83" y="277" type="line" smooth="yes"/>
      <point x="83" y="411"/>
      <point x="152" y="500"/>
      <point x="275" y="500" type="curve" smooth="yes"/>
      <point x="319" y="500"/>
      <point x="360" y="494"/>
      <point x="391" y="473" type="curve"/>
      <point x="391" y="471" type="line"/>
      <point x="378" y="466"/>
      <point x="368" y="455"/>
      <point x="368" y="442" type="curve" smooth="yes"/>
      <point x="368" y="426"/>
      <point x="378" y="416"/>
      <point x="394" y="416" type="curve" smooth="yes"/>
      <point x="410" y="416"/>
      <point x="420" y="426"/>
      <point x="420" y="442" type="curve" smooth="yes"/>
      <point x="420" y="482"/>
      <point x="354" y="518"/>
      <point x="275" y="518" type="curve" smooth="yes"/>
      <point x="145" y="518"/>
      <point x="60" y="429"/>
      <point x="60" y="253" type="curve" smooth="yes"/>
      <point x="60" y="79"/>
      <point x="146" y="-12"/>
    </contour>
    <contour>
      <point x="275" y="0" type="move" name="bottom"/>
    </contour>
    <contour>
      <point x="275" y="540" type="move" name="top"/>
    </contour>
  </outline>
</glyph>
<glyph name="d" format="1">
  <advance width="575"/>
  <unicode hex="0064"/>
  <outline>
    <contour>
      <point x="272" y="-12" type="curve" smooth="yes"/>
      <point x="361" y="-12"/>
      <point x="415" y="35"/>
      <point x="436" y="85" type="curve"/>
      <point x="439" y="85" type="line"/>
      <point x="439" y="-6" type="line" name="hr01"/>
      <point x="545" y="4" type="line"/>
      <point x="545" y="17" type="line"/>
      <point x="460" y="22" type="line"/>
      <point x="460" y="764" type="line"/>
      <point x="354" y="754" type="line"/>
      <point x="354" y="741" type="line"/>
      <point x="439" y="736" type="line"/>
      <point x="439" y="421" type="line"/>
      <point x="436" y="421" type="line"/>
      <point x="415" y="471"/>
      <point x="361" y="518"/>
      <point x="272" y="518" type="curve" smooth="yes"/>
      <point x="139" y="518"/>
      <point x="60" y="429"/>
      <point x="60" y="253" type="curve" smooth="yes"/>
      <point x="60" y="77"/>
      <point x="139" y="-12"/>
    </contour>
    <contour>
      <point x="272" y="6" type="curve"/>
      <point x="151" y="6"/>
      <point x="83" y="92"/>
      <point x="83" y="229" type="curve" smooth="yes"/>
      <point x="83" y="277" type="line" smooth="yes"/>
      <point x="83" y="414"/>
      <point x="151" y="500"/>
      <point x="272" y="500" type="curve" smooth="yes"/>
      <point x="360" y="500"/>
      <point x="439" y="446"/>
      <point x="439" y="365" type="curve"/>
      <point x="439" y="141" type="line"/>
      <point x="439" y="60"/>
      <point x="360" y="6"/>
    </contour>
    <contour>
      <point x="273" y="0" type="move" name="bottom"/>
    </contour>
    <contour>
      <point x="528" y="758" type="move" name="topright"/>
    </contour>
  </outline>
</glyph>
<glyph name="e" format="1">
  <advance width="531"/>
  <unicode hex="0065"/>
  <outline>
    <contour>
      <point x="274" y="-12" type="curve" smooth="yes" name="hr00"/>
      <point x="374" y="-12"/>
      <point x="432" y="51"/>
      <point x="460" y="104" type="curve"/>
      <point x="446" y="112" type="line"/>
      <point x="416" y="58"/>
      <point x="362" y="6"/>
      <point x="274" y="6" type="curve" smooth="yes"/>
      <point x="161" y="6"/>
      <point x="83" y="82"/>
      <point x="83" y="234" type="curve" smooth="yes"/>
      <point x="83" y="275" type="line"/>
      <point x="471" y="275" type="line"/>
      <point x="471" y="284" type="line" smooth="yes"/>
      <point x="471" y="421"/>
      <point x="395" y="518"/>
      <point x="276" y="518" type="curve" smooth="yes"/>
      <point x="147" y="518"/>
      <point x="60" y="424"/>
      <point x="60" y="253" type="curve" smooth="yes"/>
      <point x="60" y="71"/>
      <point x="149" y="-12"/>
    </contour>
    <contour>
      <point x="83" y="291" type="line"/>
      <point x="86" y="417"/>
      <point x="163" y="500"/>
      <point x="276" y="500" type="curve" smooth="yes"/>
      <point x="383" y="500"/>
      <point x="447" y="412"/>
      <point x="448" y="291" type="curve"/>
    </contour>
    <contour>
      <point x="274" y="0" type="move" name="bottom"/>
    </contour>
    <contour>
      <point x="345" y="0" type="move" name="bottomright"/>
    </contour>
    <contour>
      <point x="276" y="540" type="move" name="top"/>
    </contour>
  </outline>
</glyph>
<glyph name="f" format="1">
  <advance width="306"/>
  <unicode hex="0066"/>
  <outline>
    <contour>
      <point x="50" y="0" type="line" name="hr00"/>
      <point x="261" y="0" type="line"/>
      <point x="261" y="18" type="line"/>
      <point x="156" y="18" type="line"/>
      <point x="156" y="488" type="line"/>
      <point x="261" y="488" type="line"/>
      <point x="261" y="506" type="line"/>
      <point x="156" y="506" type="line"/>
      <point x="156" y="635" type="line" smooth="yes"/>
      <point x="156" y="705"/>
      <point x="197" y="746"/>
      <point x="257" y="746" type="curve" smooth="yes"/>
      <point x="273" y="746"/>
      <point x="288" y="745"/>
      <point x="301" y="741" type="curve"/>
      <point x="301" y="739" type="line"/>
      <point x="288" y="734"/>
      <point x="279" y="725"/>
      <point x="279" y="711" type="curve" smooth="yes"/>
      <point x="279" y="696"/>
      <point x="289" y="686"/>
      <point x="305" y="686" type="curve" smooth="yes"/>
      <point x="321" y="686"/>
      <point x="331" y="696"/>
      <point x="331" y="713" type="curve" smooth="yes"/>
      <point x="331" y="734"/>
      <point x="308" y="760"/>
      <point x="254" y="760" type="curve" smooth="yes"/>
      <point x="190" y="760"/>
      <point x="135" y="717"/>
      <point x="135" y="634" type="curve" smooth="yes"/>
      <point x="135" y="506" type="line"/>
      <point x="50" y="506" type="line"/>
      <point x="50" y="488" type="line"/>
      <point x="135" y="488" type="line"/>
      <point x="135" y="18" type="line"/>
      <point x="50" y="18" type="line"/>
    </contour>
    <contour>
      <point x="145.0" y="0.0" type="move" name="bottom"/>
    </contour>
  </outline>
</glyph>
<glyph name="g" format="1">
  <advance width="533"/>
  <unicode hex="0067"/>
  <outline>
    <contour>
      <point x="258" y="-212" type="curve" smooth="yes"/>
      <point x="411" y="-212"/>
      <point x="498" y="-166"/>
      <point x="498" y="-65" type="curve" smooth="yes"/>
      <point x="498" y="7"/>
      <point x="450" y="53"/>
      <point x="334" y="53" type="curve" smooth="yes"/>
      <point x="199" y="53" type="line" smooth="yes"/>
      <point x="129" y="53"/>
      <point x="111" y="81"/>
      <point x="111" y="109" type="curve" smooth="yes"/>
      <point x="111" y="147"/>
      <point x="147" y="175"/>
      <point x="203" y="187" type="curve"/>
      <point x="220" y="182"/>
      <point x="239" y="180"/>
      <point x="259" y="180" type="curve"/>
      <point x="362" y="180"/>
      <point x="432" y="245"/>
      <point x="432" y="349" type="curve" smooth="yes"/>
      <point x="432" y="385"/>
      <point x="423" y="417"/>
      <point x="408" y="442" type="curve"/>
      <point x="408" y="505"/>
      <point x="410" y="531"/>
      <point x="417" y="548" type="curve"/>
      <point x="419" y="548" type="line"/>
      <point x="419" y="533"/>
      <point x="426" y="519"/>
      <point x="444" y="519" type="curve" smooth="yes"/>
      <point x="458" y="519"/>
      <point x="469" y="528"/>
      <point x="469" y="544" type="curve" smooth="yes"/>
      <point x="469" y="560"/>
      <point x="459" y="570"/>
      <point x="442" y="570" type="curve" smooth="yes"/>
      <point x="407" y="570"/>
      <point x="393" y="532"/>
      <point x="393" y="463" type="curve"/>
      <point x="363" y="498"/>
      <point x="316" y="518"/>
      <point x="259" y="518" type="curve" smooth="yes"/>
      <point x="156" y="518"/>
      <point x="86" y="453"/>
      <point x="86" y="349" type="curve" smooth="yes" name="hr01"/>
      <point x="86" y="274"/>
      <point x="122" y="219"/>
      <point x="181" y="195" type="curve"/>
      <point x="181" y="193" type="line"/>
      <point x="136" y="182"/>
      <point x="92" y="154"/>
      <point x="92" y="108" type="curve" smooth="yes" name="hr02"/>
      <point x="92" y="75"/>
      <point x="112" y="49"/>
      <point x="149" y="39" type="curve"/>
      <point x="149" y="36" type="line"/>
      <point x="87" y="20"/>
      <point x="45" y="-22"/>
      <point x="45" y="-82" type="curve" smooth="yes"/>
      <point x="45" y="-160"/>
      <point x="108" y="-212"/>
    </contour>
    <contour>
      <point x="259" y="198" type="curve"/>
      <point x="164" y="198"/>
      <point x="109" y="257"/>
      <point x="109" y="330" type="curve" smooth="yes" name="hr03"/>
      <point x="109" y="368" type="line" smooth="yes"/>
      <point x="109" y="441"/>
      <point x="164" y="500"/>
      <point x="259" y="500" type="curve" smooth="yes"/>
      <point x="354" y="500"/>
      <point x="409" y="441"/>
      <point x="409" y="368" type="curve" smooth="yes"/>
      <point x="409" y="330" type="line" smooth="yes"/>
      <point x="409" y="257"/>
      <point x="354" y="198"/>
    </contour>
    <contour>
      <point x="68" y="-83" type="curve" smooth="yes"/>
      <point x="68" y="-20"/>
      <point x="110" y="16"/>
      <point x="174" y="33" type="curve"/>
      <point x="331" y="33" type="line" smooth="yes"/>
      <point x="439" y="33"/>
      <point x="475" y="-4"/>
      <point x="475" y="-65" type="curve" smooth="yes"/>
      <point x="475" y="-154"/>
      <point x="396" y="-194"/>
      <point x="283" y="-194" type="curve"/>
      <point x="234" y="-194" type="line"/>
      <point x="132" y="-194"/>
      <point x="68" y="-149"/>
    </contour>
    <contour>
      <point x="259" y="540" type="move" name="top"/>
    </contour>
  </outline>
</glyph>
<glyph name="i" format="1">
  <advance width="266"/>
  <unicode hex="0069"/>
  <outline>
    <contour>
      <point x="136" y="669" type="curve" smooth="yes"/>
      <point x="153" y="669"/>
      <point x="162" y="680"/>
      <point x="162" y="694" type="curve" smooth="yes"/>
      <point x="162" y="696" type="line" smooth="yes"/>
      <point x="162" y="710"/>
      <point x="153" y="721"/>
      <point x="136" y="721" type="curve" smooth="yes"/>
      <point x="119" y="721"/>
      <point x="110" y="710"/>
      <point x="110" y="696" type="curve" smooth="yes"/>
      <point x="110" y="694" type="line" smooth="yes"/>
      <point x="110" y="680"/>
      <point x="119" y="669"/>
    </contour>
    <contour>
      <point x="41" y="0" type="line"/>
      <point x="232" y="0" type="line"/>
      <point x="232" y="18" type="line"/>
      <point x="147" y="18" type="line" name="hr01"/>
      <point x="147" y="512" type="line"/>
      <point x="41" y="502" type="line"/>
      <point x="41" y="489" type="line"/>
      <point x="126" y="484" type="line"/>
      <point x="126" y="18" type="line"/>
      <point x="41" y="18" type="line"/>
    </contour>
    <contour>
      <point x="136" y="0" type="move" name="bottom"/>
    </contour>
    <contour>
      <point x="231" y="0" type="move" name="bottomright"/>
    </contour>
  </outline>
</glyph>
<glyph name="j" format="1">
  <advance width="266"/>
  <unicode hex="006A"/>
  <outline>
    <contour>
      <point x="49" y="-212" type="curve" smooth="yes"/>
      <point x="102" y="-212"/>
      <point x="147" y="-183"/>
      <point x="147" y="-100" type="curve" smooth="yes"/>
      <point x="147" y="512" type="line"/>
      <point x="41" y="502" type="line"/>
      <point x="41" y="489" type="line"/>
      <point x="126" y="484" type="line"/>
      <point x="126" y="-102" type="line" smooth="yes"/>
      <point x="126" y="-166"/>
      <point x="94" y="-198"/>
      <point x="46" y="-198" type="curve" smooth="yes"/>
      <point x="32" y="-198"/>
      <point x="17" y="-197"/>
      <point x="5" y="-194" type="curve"/>
      <point x="5" y="-192" type="line"/>
      <point x="18" y="-187"/>
      <point x="27" y="-177"/>
      <point x="27" y="-164" type="curve" smooth="yes"/>
      <point x="27" y="-148"/>
      <point x="17" y="-138"/>
      <point x="1" y="-138" type="curve" smooth="yes"/>
      <point x="-15" y="-138"/>
      <point x="-25" y="-148"/>
      <point x="-25" y="-164" type="curve" smooth="yes"/>
      <point x="-25" y="-186"/>
      <point x="-3" y="-212"/>
    </contour>
    <contour>
      <point x="136" y="669" type="curve" smooth="yes"/>
      <point x="153" y="669"/>
      <point x="162" y="680"/>
      <point x="162" y="694" type="curve" smooth="yes" name="hr01"/>
      <point x="162" y="696" type="line" smooth="yes"/>
      <point x="162" y="710"/>
      <point x="153" y="721"/>
      <point x="136" y="721" type="curve" smooth="yes"/>
      <point x="119" y="721"/>
      <point x="110" y="710"/>
      <point x="110" y="696" type="curve" smooth="yes"/>
      <point x="110" y="694" type="line" smooth="yes"/>
      <point x="110" y="680"/>
      <point x="119" y="669"/>
    </contour>
  </outline>
</glyph>
<glyph name="k" format="1">
  <advance width="542"/>
  <unicode hex="006B"/>
  <outline>
    <contour>
      <point x="30" y="0" type="line" name="hr00"/>
      <point x="221" y="0" type="line"/>
      <point x="221" y="18" type="line"/>
      <point x="136" y="18" type="line"/>
      <point x="136" y="185" type="line"/>
      <point x="229" y="277" type="line"/>
      <point x="436" y="18" type="line"/>
      <point x="361" y="18" type="line"/>
      <point x="361" y="0" type="line"/>
      <point x="527" y="0" type="line"/>
      <point x="527" y="18" type="line"/>
      <point x="462" y="18" type="line"/>
      <point x="243" y="291" type="line"/>
      <point x="432" y="488" type="line"/>
      <point x="497" y="488" type="line"/>
      <point x="497" y="506" type="line"/>
      <point x="326" y="506" type="line"/>
      <point x="326" y="488" type="line"/>
      <point x="406" y="488" type="line"/>
      <point x="227" y="299" type="line"/>
      <point x="139" y="208" type="line"/>
      <point x="136" y="208" type="line"/>
      <point x="136" y="764" type="line"/>
      <point x="30" y="754" type="line"/>
      <point x="30" y="741" type="line"/>
      <point x="115" y="736" type="line"/>
      <point x="115" y="18" type="line"/>
      <point x="30" y="18" type="line"/>
    </contour>
    <contour>
      <point x="286" y="0" type="move" name="bottom"/>
    </contour>
  </outline>
</glyph>
<glyph name="l" format="1">
  <advance width="251"/>
  <unicode hex="006C"/>
  <outline>
    <contour>
      <point x="30" y="0" type="line" name="hr00"/>
      <point x="221" y="0" type="line"/>
      <point x="221" y="18" type="line"/>
      <point x="136" y="18" type="line"/>
      <point x="136" y="754" type="line"/>
      <point x="30" y="744" type="line"/>
      <point x="30" y="731" type="line"/>
      <point x="115" y="726" type="line"/>
      <point x="115" y="18" type="line"/>
      <point x="30" y="18" type="line"/>
    </contour>
    <contour>
      <point x="125.0" y="0.0" type="move" name="bottom"/>
    </contour>
    <contour>
      <point x="125.0" y="756.0" type="move" name="top"/>
    </contour>
    <contour>
      <point x="204.0" y="758.0" type="move" name="topright"/>
    </contour>
  </outline>
</glyph>
<glyph name="m" format="1">
  <advance width="911"/>
  <unicode hex="006D"/>
  <outline>
    <contour>
      <point x="40" y="0" type="line"/>
      <point x="231" y="0" type="line"/>
      <point x="231" y="18" type="line"/>
      <point x="146" y="18" type="line"/>
      <point x="146" y="363" type="line"/>
      <point x="146" y="455"/>
      <point x="218" y="500"/>
      <point x="300" y="500" type="curve" smooth="yes"/>
      <point x="398" y="500"/>
      <point x="450" y="445"/>
      <point x="450" y="322" type="curve" smooth="yes"/>
      <point x="450" y="18" type="line"/>
      <point x="365" y="18" type="line"/>
      <point x="365" y="0" type="line"/>
      <point x="556" y="0" type="line"/>
      <point x="556" y="18" type="line"/>
      <point x="471" y="18" type="line"/>
      <point x="471" y="363" type="line"/>
      <point x="471" y="455"/>
      <point x="543" y="500"/>
      <point x="625" y="500" type="curve" smooth="yes"/>
      <point x="723" y="500"/>
      <point x="775" y="445"/>
      <point x="775" y="322" type="curve" smooth="yes"/>
      <point x="775" y="18" type="line"/>
      <point x="690" y="18" type="line"/>
      <point x="690" y="0" type="line"/>
      <point x="881" y="0" type="line"/>
      <point x="881" y="18" type="line"/>
      <point x="796" y="18" type="line"/>
      <point x="796" y="325" type="line" smooth="yes"/>
      <point x="796" y="453"/>
      <point x="741" y="518"/>
      <point x="629" y="518" type="curve" smooth="yes"/>
      <point x="537" y="518"/>
      <point x="484" y="470"/>
      <point x="464" y="402" type="curve"/>
      <point x="461" y="402" type="line"/>
      <point x="439" y="482"/>
      <point x="387" y="518"/>
      <point x="304" y="518" type="curve" smooth="yes"/>
      <point x="213" y="518"/>
      <point x="167" y="474"/>
      <point x="149" y="423" type="curve"/>
      <point x="146" y="423" type="line"/>
      <point x="146" y="512" type="line" name="hr01"/>
      <point x="40" y="502" type="line"/>
      <point x="40" y="489" type="line"/>
      <point x="125" y="484" type="line"/>
      <point x="125" y="18" type="line"/>
      <point x="40" y="18" type="line"/>
    </contour>
    <contour>
      <point x="460" y="0" type="move" name="bottom"/>
    </contour>
    <contour>
      <point x="460" y="540" type="move" name="top"/>
    </contour>
  </outline>
</glyph>
<glyph name="n" format="1">
  <advance width="590"/>
  <unicode hex="006E"/>
  <outline>
    <contour>
      <point x="40" y="0" type="line"/>
      <point x="231" y="0" type="line"/>
      <point x="231" y="18" type="line"/>
      <point x="146" y="18" type="line"/>
      <point x="146" y="363" type="line"/>
      <point x="146" y="455"/>
      <point x="219" y="500"/>
      <point x="302" y="500" type="curve" smooth="yes"/>
      <point x="401" y="500"/>
      <point x="454" y="445"/>
      <point x="454" y="322" type="curve" smooth="yes"/>
      <point x="454" y="18" type="line"/>
      <point x="369" y="18" type="line"/>
      <point x="369" y="0" type="line"/>
      <point x="560" y="0" type="line"/>
      <point x="560" y="18" type="line"/>
      <point x="475" y="18" type="line"/>
      <point x="475" y="326" type="line" smooth="yes"/>
      <point x="475" y="453"/>
      <point x="419" y="518"/>
      <point x="306" y="518" type="curve" smooth="yes"/>
      <point x="214" y="518"/>
      <point x="167" y="474"/>
      <point x="149" y="423" type="curve"/>
      <point x="146" y="423" type="line"/>
      <point x="146" y="512" type="line" name="hr01"/>
      <point x="40" y="502" type="line"/>
      <point x="40" y="489" type="line"/>
      <point x="125" y="484" type="line"/>
      <point x="125" y="18" type="line"/>
      <point x="40" y="18" type="line"/>
    </contour>
    <contour>
      <point x="300" y="0" type="move" name="bottom"/>
    </contour>
    <contour>
      <point x="300" y="540" type="move" name="top"/>
    </contour>
  </outline>
</glyph>
<glyph name="o" format="1">
  <advance width="540"/>
  <unicode hex="006F"/>
  <outline>
    <contour>
      <point x="270" y="6" type="curve" name="hr00"/>
      <point x="150" y="6"/>
      <point x="83" y="92"/>
      <point x="83" y="228" type="curve" smooth="yes"/>
      <point x="83" y="278" type="line" smooth="yes"/>
      <point x="83" y="414"/>
      <point x="150" y="500"/>
      <point x="270" y="500" type="curve" smooth="yes"/>
      <point x="390" y="500"/>
      <point x="457" y="414"/>
      <point x="457" y="278" type="curve" smooth="yes"/>
      <point x="457" y="228" type="line" smooth="yes"/>
      <point x="457" y="92"/>
      <point x="390" y="6"/>
    </contour>
    <contour>
      <point x="270" y="-12" type="curve" smooth="yes"/>
      <point x="402" y="-12"/>
      <point x="480" y="78"/>
      <point x="480" y="253" type="curve" smooth="yes"/>
      <point x="480" y="428"/>
      <point x="402" y="518"/>
      <point x="270" y="518" type="curve" smooth="yes"/>
      <point x="138" y="518"/>
      <point x="60" y="428"/>
      <point x="60" y="253" type="curve" smooth="yes"/>
      <point x="60" y="78"/>
      <point x="138" y="-12"/>
    </contour>
    <contour>
      <point x="270" y="0" type="move" name="bottom"/>
    </contour>
    <contour>
      <point x="270" y="540" type="move" name="top"/>
    </contour>
  </outline>
</glyph>
<glyph name="p" format="1">
  <advance width="585"/>
  <unicode hex="0070"/>
  <outline>
    <contour>
      <point x="40" y="-200" type="line"/>
      <point x="251" y="-200" type="line"/>
      <point x="251" y="-182" type="line"/>
      <point x="146" y="-182" type="line"/>
      <point x="146" y="85" type="line"/>
      <point x="149" y="85" type="line"/>
      <point x="170" y="35"/>
      <point x="224" y="-12"/>
      <point x="313" y="-12" type="curve" smooth="yes"/>
      <point x="446" y="-12"/>
      <point x="525" y="77"/>
      <point x="525" y="253" type="curve" smooth="yes"/>
      <point x="525" y="429"/>
      <point x="446" y="518"/>
      <point x="313" y="518" type="curve" smooth="yes"/>
      <point x="224" y="518"/>
      <point x="170" y="471"/>
      <point x="149" y="421" type="curve"/>
      <point x="146" y="421" type="line"/>
      <point x="146" y="512" type="line" name="hr01"/>
      <point x="40" y="502" type="line"/>
      <point x="40" y="489" type="line"/>
      <point x="125" y="484" type="line"/>
      <point x="125" y="-182" type="line"/>
      <point x="40" y="-182" type="line"/>
    </contour>
    <contour>
      <point x="313" y="6" type="curve"/>
      <point x="225" y="6"/>
      <point x="146" y="60"/>
      <point x="146" y="141" type="curve"/>
      <point x="146" y="365" type="line"/>
      <point x="146" y="446"/>
      <point x="225" y="500"/>
      <point x="313" y="500" type="curve" smooth="yes" name="hr02"/>
      <point x="434" y="500"/>
      <point x="502" y="414"/>
      <point x="502" y="277" type="curve" smooth="yes"/>
      <point x="502" y="229" type="line" smooth="yes"/>
      <point x="502" y="92"/>
      <point x="434" y="6"/>
    </contour>
    <contour>
      <point x="313" y="540" type="move" name="top"/>
    </contour>
  </outline>
</glyph>
<glyph name="q" format="1">
  <advance width="565"/>
  <unicode hex="0071"/>
  <outline>
    <contour>
      <point x="334" y="-200" type="line"/>
      <point x="545" y="-200" type="line"/>
      <point x="545" y="-182" type="line"/>
      <point x="460" y="-182" type="line"/>
      <point x="460" y="506" type="line"/>
      <point x="443" y="506" type="line"/>
      <point x="439" y="421" type="line"/>
      <point x="436" y="421" type="line"/>
      <point x="415" y="471"/>
      <point x="361" y="518"/>
      <point x="272" y="518" type="curve" smooth="yes" name="hr01"/>
      <point x="139" y="518"/>
      <point x="60" y="429"/>
      <point x="60" y="253" type="curve" smooth="yes"/>
      <point x="60" y="77"/>
      <point x="139" y="-12"/>
      <point x="272" y="-12" type="curve" smooth="yes"/>
      <point x="361" y="-12"/>
      <point x="415" y="35"/>
      <point x="436" y="85" type="curve"/>
      <point x="439" y="85" type="line"/>
      <point x="439" y="-182" type="line"/>
      <point x="334" y="-182" type="line"/>
    </contour>
    <contour>
      <point x="272" y="6" type="curve"/>
      <point x="151" y="6"/>
      <point x="83" y="92"/>
      <point x="83" y="229" type="curve"/>
      <point x="83" y="277" type="line" smooth="yes"/>
      <point x="83" y="414"/>
      <point x="151" y="500"/>
      <point x="272" y="500" type="curve" smooth="yes"/>
      <point x="360" y="500"/>
      <point x="439" y="446"/>
      <point x="439" y="365" type="curve"/>
      <point x="439" y="141" type="line"/>
      <point x="439" y="60"/>
      <point x="360" y="6"/>
    </contour>
    <contour>
      <point x="272" y="540" type="move" name="top"/>
    </contour>
  </outline>
</glyph>
<glyph name="r" format="1">
  <advance width="368"/>
  <unicode hex="0072"/>
  <outline>
    <contour>
      <point x="40" y="0" type="line"/>
      <point x="251" y="0" type="line"/>
      <point x="251" y="18" type="line"/>
      <point x="146" y="18" type="line"/>
      <point x="146" y="359" type="line"/>
      <point x="146" y="431"/>
      <point x="222" y="504"/>
      <point x="286" y="504" type="curve" smooth="yes"/>
      <point x="308" y="504" type="line"/>
      <point x="308" y="502" type="line"/>
      <point x="303" y="500"/>
      <point x="296" y="489"/>
      <point x="296" y="479" type="curve" smooth="yes"/>
      <point x="296" y="463"/>
      <point x="306" y="453"/>
      <point x="322" y="453" type="curve" smooth="yes"/>
      <point x="338" y="453"/>
      <point x="348" y="463"/>
      <point x="348" y="480" type="curve" smooth="yes"/>
      <point x="348" y="504"/>
      <point x="331" y="518"/>
      <point x="296" y="518" type="curve" smooth="yes"/>
      <point x="217" y="518"/>
      <point x="167" y="462"/>
      <point x="149" y="411" type="curve"/>
      <point x="146" y="411" type="line"/>
      <point x="146" y="512" type="line" name="hr01"/>
      <point x="40" y="502" type="line"/>
      <point x="40" y="489" type="line"/>
      <point x="125" y="484" type="line"/>
      <point x="125" y="18" type="line"/>
      <point x="40" y="18" type="line"/>
    </contour>
    <contour>
      <point x="136" y="0" type="move" name="bottom"/>
    </contour>
    <contour>
      <point x="215" y="540" type="move" name="top"/>
    </contour>
  </outline>
</glyph>
<glyph name="s" format="1">
  <advance width="471"/>
  <unicode hex="0073"/>
  <outline>
    <contour>
      <point x="230" y="-12" type="curve" smooth="yes"/>
      <point x="336" y="-12"/>
      <point x="401" y="38"/>
      <point x="401" y="125" type="curve" smooth="yes"/>
      <point x="401" y="210"/>
      <point x="347" y="244"/>
      <point x="258" y="264" type="curve" smooth="yes"/>
      <point x="214" y="274" type="line" smooth="yes"/>
      <point x="134" y="292"/>
      <point x="89" y="318"/>
      <point x="89" y="394" type="curve" smooth="yes"/>
      <point x="89" y="464"/>
      <point x="144" y="500"/>
      <point x="228" y="500" type="curve" smooth="yes"/>
      <point x="312" y="500"/>
      <point x="367" y="464"/>
      <point x="367" y="394" type="curve" smooth="yes" name="hr01"/>
      <point x="367" y="362" type="line"/>
      <point x="388" y="362" type="line"/>
      <point x="388" y="506" type="line"/>
      <point x="367" y="506" type="line"/>
      <point x="367" y="451" type="line"/>
      <point x="364" y="451" type="line"/>
      <point x="348" y="485"/>
      <point x="306" y="518"/>
      <point x="228" y="518" type="curve" smooth="yes" name="hr02"/>
      <point x="136" y="518"/>
      <point x="68" y="475"/>
      <point x="68" y="393" type="curve" smooth="yes"/>
      <point x="68" y="304"/>
      <point x="125" y="273"/>
      <point x="210" y="254" type="curve" smooth="yes"/>
      <point x="254" y="244" type="line" smooth="yes"/>
      <point x="337" y="225"/>
      <point x="380" y="198"/>
      <point x="380" y="124" type="curve" smooth="yes"/>
      <point x="380" y="49"/>
      <point x="324" y="6"/>
      <point x="230" y="6" type="curve" smooth="yes"/>
      <point x="148" y="6"/>
      <point x="81" y="38"/>
      <point x="81" y="109" type="curve" smooth="yes" name="hr03"/>
      <point x="81" y="144" type="line"/>
      <point x="60" y="144" type="line"/>
      <point x="60" y="0" type="line"/>
      <point x="81" y="0" type="line"/>
      <point x="81" y="57" type="line"/>
      <point x="84" y="57" type="line"/>
      <point x="105" y="20"/>
      <point x="148" y="-12"/>
    </contour>
    <contour>
      <point x="237" y="0" type="move" name="bottom"/>
    </contour>
    <contour>
      <point x="226" y="540" type="move" name="top"/>
    </contour>
  </outline>
</glyph>
<glyph name="t" format="1">
  <advance width="319"/>
  <unicode hex="0074"/>
  <outline>
    <contour>
      <point x="165" y="-2" type="curve" smooth="yes" name="hr00"/>
      <point x="193" y="-2"/>
      <point x="259" y="0"/>
      <point x="289" y="2" type="curve"/>
      <point x="289" y="18" type="line"/>
      <point x="146" y="18" type="line"/>
      <point x="146" y="488" type="line"/>
      <point x="289" y="488" type="line"/>
      <point x="289" y="506" type="line"/>
      <point x="146" y="506" type="line"/>
      <point x="146" y="650" type="line"/>
      <point x="129" y="650" type="line"/>
      <point x="125" y="547" type="line" smooth="yes"/>
      <point x="124" y="516"/>
      <point x="111" y="506"/>
      <point x="76" y="506" type="curve" smooth="yes"/>
      <point x="53" y="506" type="line"/>
      <point x="53" y="488" type="line"/>
      <point x="125" y="488" type="line"/>
      <point x="125" y="29" type="line" smooth="yes"/>
      <point x="125" y="6"/>
      <point x="134" y="-2"/>
    </contour>
    <contour>
      <point x="207" y="0" type="move" name="bottom"/>
    </contour>
    <contour>
      <point x="214" y="758" type="move" name="topright"/>
    </contour>
  </outline>
</glyph>
<glyph name="u" format="1">
  <advance width="575"/>
  <unicode hex="0075"/>
  <outline>
    <contour>
      <point x="279" y="-12" type="curve" smooth="yes"/>
      <point x="371" y="-12"/>
      <point x="418" y="32"/>
      <point x="436" y="83" type="curve"/>
      <point x="439" y="83" type="line"/>
      <point x="439" y="-6" type="line" name="hr01"/>
      <point x="545" y="4" type="line"/>
      <point x="545" y="17" type="line"/>
      <point x="460" y="22" type="line"/>
      <point x="460" y="512" type="line"/>
      <point x="354" y="502" type="line"/>
      <point x="354" y="489" type="line"/>
      <point x="439" y="484" type="line"/>
      <point x="439" y="143" type="line"/>
      <point x="439" y="51"/>
      <point x="366" y="6"/>
      <point x="283" y="6" type="curve" smooth="yes" name="hr02"/>
      <point x="184" y="6"/>
      <point x="131" y="61"/>
      <point x="131" y="184" type="curve" smooth="yes"/>
      <point x="131" y="512" type="line"/>
      <point x="25" y="502" type="line"/>
      <point x="25" y="489" type="line"/>
      <point x="110" y="484" type="line"/>
      <point x="110" y="180" type="line" smooth="yes"/>
      <point x="110" y="53"/>
      <point x="166" y="-12"/>
    </contour>
    <contour>
      <point x="291" y="0" type="move" name="bottom"/>
    </contour>
    <contour>
      <point x="545" y="4" type="move" name="bottomright"/>
    </contour>
    <contour>
      <point x="267" y="540" type="move" name="top"/>
    </contour>
  </outline>
</glyph>
<glyph name="v" format="1">
  <advance width="506"/>
  <unicode hex="0076"/>
  <outline>
    <contour>
      <point x="240" y="0" type="line" name="hr00"/>
      <point x="264" y="0" type="line"/>
      <point x="446" y="488" type="line"/>
      <point x="496" y="488" type="line"/>
      <point x="496" y="506" type="line"/>
      <point x="322" y="506" type="line"/>
      <point x="322" y="488" type="line"/>
      <point x="426" y="488" type="line"/>
      <point x="254" y="24" type="line"/>
      <point x="251" y="24" type="line"/>
      <point x="80" y="488" type="line"/>
      <point x="185" y="488" type="line"/>
      <point x="185" y="506" type="line"/>
      <point x="8" y="506" type="line"/>
      <point x="8" y="488" type="line"/>
      <point x="58" y="488" type="line"/>
    </contour>
    <contour>
      <point x="252" y="0" type="move" name="bottom"/>
    </contour>
    <contour>
      <point x="253" y="540" type="move" name="top"/>
    </contour>
  </outline>
</glyph>
<glyph name="w" format="1">
  <advance width="792"/>
  <unicode hex="0077"/>
  <outline>
    <contour>
      <point x="224" y="0" type="line"/>
      <point x="248" y="0" type="line"/>
      <point x="394" y="472" type="line"/>
      <point x="397" y="472" type="line"/>
      <point x="543" y="0" type="line"/>
      <point x="567" y="0" type="line"/>
      <point x="717" y="488" type="line" name="hr01"/>
      <point x="767" y="488" type="line"/>
      <point x="767" y="506" type="line"/>
      <point x="592" y="506" type="line"/>
      <point x="592" y="488" type="line"/>
      <point x="697" y="488" type="line"/>
      <point x="557" y="27" type="line"/>
      <point x="554" y="27" type="line"/>
      <point x="407" y="506" type="line"/>
      <point x="386" y="506" type="line"/>
      <point x="238" y="27" type="line"/>
      <point x="235" y="27" type="line"/>
      <point x="96" y="488" type="line"/>
      <point x="201" y="488" type="line"/>
      <point x="201" y="506" type="line"/>
      <point x="24" y="506" type="line"/>
      <point x="24" y="488" type="line"/>
      <point x="74" y="488" type="line"/>
    </contour>
    <contour>
      <point x="396" y="0" type="move" name="bottom"/>
    </contour>
    <contour>
      <point x="396" y="540" type="move" name="top"/>
    </contour>
  </outline>
</glyph>
<glyph name="x" format="1">
  <advance width="525"/>
  <unicode hex="0078"/>
  <outline>
    <contour>
      <point x="15" y="0" type="line" name="hr00"/>
      <point x="183" y="0" type="line"/>
      <point x="183" y="18" type="line"/>
      <point x="98" y="18" type="line"/>
      <point x="260" y="240" type="line"/>
      <point x="263" y="240" type="line"/>
      <point x="425" y="18" type="line"/>
      <point x="340" y="18" type="line"/>
      <point x="340" y="0" type="line"/>
      <point x="510" y="0" type="line"/>
      <point x="510" y="18" type="line"/>
      <point x="450" y="18" type="line"/>
      <point x="274" y="256" type="line"/>
      <point x="444" y="488" type="line"/>
      <point x="504" y="488" type="line"/>
      <point x="504" y="506" type="line"/>
      <point x="336" y="506" type="line"/>
      <point x="336" y="488" type="line"/>
      <point x="421" y="488" type="line"/>
      <point x="266" y="269" type="line"/>
      <point x="263" y="269" type="line"/>
      <point x="103" y="488" type="line"/>
      <point x="188" y="488" type="line"/>
      <point x="188" y="506" type="line"/>
      <point x="18" y="506" type="line"/>
      <point x="18" y="488" type="line"/>
      <point x="78" y="488" type="line"/>
      <point x="251" y="254" type="line"/>
      <point x="75" y="18" type="line"/>
      <point x="15" y="18" type="line"/>
    </contour>
    <contour>
      <point x="262" y="0" type="move" name="bottom"/>
    </contour>
    <contour>
      <point x="262" y="540" type="move" name="top"/>
    </contour>
  </outline>
</glyph>
<glyph name="y" format="1">
  <advance width="506"/>
  <unicode hex="0079"/>
  <outline>
    <contour>
      <point x="105" y="-212" type="curve" smooth="yes"/>
      <point x="163" y="-212"/>
      <point x="200" y="-170"/>
      <point x="235" y="-77" type="curve" smooth="yes"/>
      <point x="446" y="488" type="line"/>
      <point x="496" y="488" type="line"/>
      <point x="496" y="506" type="line"/>
      <point x="322" y="506" type="line"/>
      <point x="322" y="488" type="line"/>
      <point x="426" y="488" type="line"/>
      <point x="255" y="24" type="line"/>
      <point x="252" y="24" type="line"/>
      <point x="81" y="488" type="line"/>
      <point x="185" y="488" type="line"/>
      <point x="185" y="506" type="line"/>
      <point x="9" y="506" type="line"/>
      <point x="9" y="488" type="line"/>
      <point x="59" y="488" type="line"/>
      <point x="243" y="-4" type="line"/>
      <point x="218" y="-73" type="line" smooth="yes"/>
      <point x="187" y="-159"/>
      <point x="153" y="-198"/>
      <point x="102" y="-198" type="curve" smooth="yes"/>
      <point x="90" y="-198"/>
      <point x="76" y="-197"/>
      <point x="67" y="-194" type="curve"/>
      <point x="67" y="-192" type="line"/>
      <point x="80" y="-187"/>
      <point x="89" y="-177"/>
      <point x="89" y="-164" type="curve" smooth="yes" name="hr01"/>
      <point x="89" y="-148"/>
      <point x="79" y="-138"/>
      <point x="63" y="-138" type="curve" smooth="yes"/>
      <point x="47" y="-138"/>
      <point x="37" y="-148"/>
      <point x="37" y="-164" type="curve" smooth="yes"/>
      <point x="37" y="-186"/>
      <point x="56" y="-212"/>
    </contour>
    <contour>
      <point x="382" y="0" type="move" name="bottom"/>
    </contour>
    <contour>
      <point x="253" y="540" type="move" name="top"/>
    </contour>
  </outline>
</glyph>
<glyph name="z" format="1">
  <advance width="468"/>
  <unicode hex="007A"/>
  <outline>
    <contour>
      <point x="45" y="0" type="line" name="hr00"/>
      <point x="413" y="0" type="line"/>
      <point x="413" y="144" type="line"/>
      <point x="392" y="144" type="line"/>
      <point x="392" y="18" type="line"/>
      <point x="68" y="18" type="line"/>
      <point x="404" y="487" type="line"/>
      <point x="404" y="506" type="line"/>
      <point x="55" y="506" type="line"/>
      <point x="55" y="362" type="line"/>
      <point x="76" y="362" type="line"/>
      <point x="76" y="488" type="line"/>
      <point x="382" y="488" type="line"/>
      <point x="45" y="19" type="line"/>
    </contour>
    <contour>
      <point x="234" y="0" type="move" name="bottom"/>
    </contour>
    <contour>
      <point x="234" y="540" type="move" name="top"/>
    </contour>
  </outline>
</glyph>
<glyph name="bar" format="1">
  <advance width="240"/>
  <unicode hex="007C"/>
  <outline>
    <contour>
      <point x="110" y="-138" type="line" name="hr00"/>
      <point x="130" y="-138" type="line"/>
      <point x="130" y="760" type="line"/>
      <point x="110" y="760" type="line"/>
    </contour>
  </outline>
</glyph>
<glyph name="braceright" format="1">
  <advance width="317"/>
  <unicode hex="007D"/>
  <outline>
    <contour>
      <point x="70" y="-138" type="line" name="hr00"/>
      <point x="170" y="-138" type="line" smooth="yes"/>
      <point x="187" y="-138"/>
      <point x="195" y="-131"/>
      <point x="195" y="-112" type="curve" smooth="yes"/>
      <point x="195" y="201" type="line" smooth="yes"/>
      <point x="195" y="261"/>
      <point x="232" y="288"/>
      <point x="292" y="288" type="curve"/>
      <point x="292" y="334" type="line"/>
      <point x="232" y="334"/>
      <point x="195" y="361"/>
      <point x="195" y="421" type="curve" smooth="yes"/>
      <point x="195" y="734" type="line" smooth="yes"/>
      <point x="195" y="753"/>
      <point x="187" y="760"/>
      <point x="170" y="760" type="curve" smooth="yes"/>
      <point x="70" y="760" type="line"/>
      <point x="70" y="743" type="line"/>
      <point x="175" y="743" type="line"/>
      <point x="175" y="421" type="line" smooth="yes"/>
      <point x="175" y="359"/>
      <point x="216" y="319"/>
      <point x="274" y="319" type="curve"/>
      <point x="274" y="303" type="line"/>
      <point x="216" y="303"/>
      <point x="175" y="263"/>
      <point x="175" y="201" type="curve" smooth="yes"/>
      <point x="175" y="-121" type="line"/>
      <point x="70" y="-121" type="line"/>
    </contour>
  </outline>
</glyph>
<glyph name="exclamdown" format="1">
  <advance width="256"/>
  <unicode hex="00A1"/>
  <outline>
    <contour>
      <point x="128" y="453" type="curve" smooth="yes"/>
      <point x="145" y="453"/>
      <point x="156" y="464"/>
      <point x="156" y="481" type="curve" smooth="yes"/>
      <point x="156" y="483" type="line" smooth="yes"/>
      <point x="156" y="500"/>
      <point x="145" y="511"/>
      <point x="128" y="511" type="curve" smooth="yes"/>
      <point x="111" y="511"/>
      <point x="100" y="500"/>
      <point x="100" y="483" type="curve" smooth="yes"/>
      <point x="100" y="481" type="line" smooth="yes"/>
      <point x="100" y="464"/>
      <point x="111" y="453"/>
    </contour>
    <contour>
      <point x="117" y="-192" type="line" name="hr01"/>
      <point x="139" y="-192" type="line"/>
      <point x="139" y="91" type="line"/>
      <point x="134" y="330" type="line"/>
      <point x="122" y="330" type="line"/>
      <point x="117" y="91" type="line"/>
    </contour>
  </outline>
</glyph>
<glyph name="cent" format="1">
  <advance width="506"/>
  <unicode hex="00A2"/>
  <outline>
    <contour>
      <point x="261" y="-114" type="line" name="hr00"/>
      <point x="279" y="-114" type="line"/>
      <point x="279" y="-12" type="line"/>
      <point x="377" y="-12"/>
      <point x="424" y="52"/>
      <point x="451" y="104" type="curve"/>
      <point x="437" y="112" type="line"/>
      <point x="407" y="59"/>
      <point x="364" y="8"/>
      <point x="279" y="6" type="curve"/>
      <point x="279" y="500" type="line"/>
      <point x="319" y="500"/>
      <point x="360" y="494"/>
      <point x="391" y="473" type="curve"/>
      <point x="391" y="471" type="line"/>
      <point x="378" y="466"/>
      <point x="368" y="455"/>
      <point x="368" y="442" type="curve" smooth="yes"/>
      <point x="368" y="426"/>
      <point x="378" y="416"/>
      <point x="394" y="416" type="curve" smooth="yes"/>
      <point x="410" y="416"/>
      <point x="420" y="426"/>
      <point x="420" y="442" type="curve" smooth="yes"/>
      <point x="420" y="481"/>
      <point x="356" y="517"/>
      <point x="279" y="518" type="curve"/>
      <point x="279" y="620" type="line"/>
      <point x="261" y="620" type="line"/>
      <point x="261" y="518" type="line"/>
      <point x="139" y="511"/>
      <point x="60" y="423"/>
      <point x="60" y="253" type="curve" smooth="yes"/>
      <point x="60" y="85"/>
      <point x="140" y="-5"/>
      <point x="261" y="-12" type="curve"/>
    </contour>
    <contour>
      <point x="261" y="6" type="line"/>
      <point x="156" y="13"/>
      <point x="83" y="99"/>
      <point x="83" y="229" type="curve"/>
      <point x="83" y="277" type="line" smooth="yes"/>
      <point x="83" y="406"/>
      <point x="147" y="493"/>
      <point x="261" y="500" type="curve"/>
    </contour>
  </outline>
</glyph>
<glyph name="sterling" format="1">
  <advance width="572"/>
  <unicode hex="00A3"/>
  <outline>
    <contour>
      <point x="83" y="0" type="line"/>
      <point x="512" y="0" type="line"/>
      <point x="512" y="148" type="line"/>
      <point x="491" y="148" type="line"/>
      <point x="491" y="18" type="line"/>
      <point x="99" y="18" type="line"/>
      <point x="99" y="20" type="line"/>
      <point x="163" y="62"/>
      <point x="199" y="140"/>
      <point x="199" y="221" type="curve" smooth="yes"/>
      <point x="199" y="255"/>
      <point x="194" y="284"/>
      <point x="186" y="312" type="curve"/>
      <point x="399" y="312" type="line"/>
      <point x="399" y="330" type="line"/>
      <point x="181" y="330" type="line"/>
      <point x="161" y="390"/>
      <point x="134" y="442"/>
      <point x="134" y="510" type="curve" smooth="yes"/>
      <point x="134" y="623"/>
      <point x="215" y="692"/>
      <point x="325" y="692" type="curve"/>
      <point x="392" y="692"/>
      <point x="449" y="670"/>
      <point x="476" y="646" type="curve"/>
      <point x="476" y="644" type="line"/>
      <point x="461" y="637"/>
      <point x="451" y="626"/>
      <point x="451" y="610" type="curve" smooth="yes" name="hr01"/>
      <point x="451" y="594"/>
      <point x="462" y="580"/>
      <point x="480" y="580" type="curve" smooth="yes"/>
      <point x="498" y="580"/>
      <point x="510" y="594"/>
      <point x="510" y="610" type="curve" smooth="yes"/>
      <point x="510" y="653"/>
      <point x="424" y="710"/>
      <point x="324" y="710" type="curve"/>
      <point x="205" y="710"/>
      <point x="112" y="635"/>
      <point x="112" y="510" type="curve" smooth="yes"/>
      <point x="112" y="439"/>
      <point x="139" y="387"/>
      <point x="158" y="330" type="curve"/>
      <point x="70" y="330" type="line"/>
      <point x="70" y="312" type="line"/>
      <point x="164" y="312" type="line"/>
      <point x="173" y="284"/>
      <point x="179" y="254"/>
      <point x="179" y="220" type="curve" smooth="yes"/>
      <point x="179" y="134"/>
      <point x="139" y="67"/>
      <point x="83" y="25" type="curve"/>
    </contour>
  </outline>
</glyph>
<glyph name="yen" format="1">
  <advance width="628"/>
  <unicode hex="00A5"/>
  <outline>
    <contour>
      <point x="199" y="0" type="line" name="hr00"/>
      <point x="429" y="0" type="line"/>
      <point x="429" y="18" type="line"/>
      <point x="325" y="18" type="line"/>
      <point x="325" y="169" type="line"/>
      <point x="523" y="169" type="line"/>
      <point x="523" y="186" type="line"/>
      <point x="325" y="186" type="line"/>
      <point x="325" y="326" type="line"/>
      <point x="523" y="326" type="line"/>
      <point x="523" y="343" type="line"/>
      <point x="335" y="343" type="line"/>
      <point x="539" y="680" type="line"/>
      <point x="603" y="680" type="line"/>
      <point x="603" y="698" type="line"/>
      <point x="416" y="698" type="line"/>
      <point x="416" y="680" type="line"/>
      <point x="516" y="680" type="line"/>
      <point x="316" y="348" type="line"/>
      <point x="313" y="348" type="line"/>
      <point x="113" y="680" type="line"/>
      <point x="213" y="680" type="line"/>
      <point x="213" y="698" type="line"/>
      <point x="25" y="698" type="line"/>
      <point x="25" y="680" type="line"/>
      <point x="89" y="680" type="line"/>
      <point x="293" y="343" type="line"/>
      <point x="105" y="343" type="line"/>
      <point x="105" y="326" type="line"/>
      <point x="303" y="326" type="line"/>
      <point x="303" y="186" type="line"/>
      <point x="105" y="186" type="line"/>
      <point x="105" y="169" type="line"/>
      <point x="303" y="169" type="line"/>
      <point x="303" y="18" type="line"/>
      <point x="199" y="18" type="line"/>
    </contour>
  </outline>
</glyph>
<glyph name="section" format="1">
  <advance width="562"/>
  <unicode hex="00A7"/>
  <outline>
    <contour>
      <point x="268" y="-154" type="curve" smooth="yes"/>
      <point x="364" y="-154"/>
      <point x="441" y="-110"/>
      <point x="441" y="-13" type="curve" smooth="yes"/>
      <point x="441" y="39"/>
      <point x="414" y="79"/>
      <point x="367" y="107" type="curve"/>
      <point x="367" y="110" type="line"/>
      <point x="434" y="136"/>
      <point x="477" y="184"/>
      <point x="477" y="260" type="curve" smooth="yes"/>
      <point x="477" y="351"/>
      <point x="422" y="390"/>
      <point x="333" y="419" type="curve" smooth="yes"/>
      <point x="266" y="441" type="line" smooth="yes"/>
      <point x="201" y="462"/>
      <point x="142" y="493"/>
      <point x="142" y="569" type="curve" smooth="yes"/>
      <point x="142" y="650"/>
      <point x="199" y="692"/>
      <point x="293" y="692" type="curve" smooth="yes"/>
      <point x="360" y="692"/>
      <point x="404" y="672"/>
      <point x="430" y="650" type="curve"/>
      <point x="430" y="648" type="line"/>
      <point x="415" y="641"/>
      <point x="405" y="630"/>
      <point x="405" y="614" type="curve" smooth="yes" name="hr01"/>
      <point x="405" y="598"/>
      <point x="416" y="584"/>
      <point x="434" y="584" type="curve" smooth="yes"/>
      <point x="452" y="584"/>
      <point x="464" y="598"/>
      <point x="464" y="614" type="curve" smooth="yes"/>
      <point x="464" y="654"/>
      <point x="390" y="710"/>
      <point x="294" y="710" type="curve" smooth="yes"/>
      <point x="198" y="710"/>
      <point x="121" y="666"/>
      <point x="121" y="569" type="curve" smooth="yes"/>
      <point x="121" y="517"/>
      <point x="148" y="477"/>
      <point x="195" y="449" type="curve"/>
      <point x="195" y="446" type="line"/>
      <point x="128" y="420"/>
      <point x="85" y="372"/>
      <point x="85" y="296" type="curve" smooth="yes"/>
      <point x="85" y="205"/>
      <point x="140" y="166"/>
      <point x="229" y="137" type="curve" smooth="yes"/>
      <point x="296" y="115" type="line" smooth="yes"/>
      <point x="361" y="94"/>
      <point x="420" y="63"/>
      <point x="420" y="-13" type="curve" smooth="yes" name="hr02"/>
      <point x="420" y="-94"/>
      <point x="363" y="-136"/>
      <point x="269" y="-136" type="curve" smooth="yes"/>
      <point x="202" y="-136"/>
      <point x="158" y="-116"/>
      <point x="132" y="-94" type="curve"/>
      <point x="132" y="-92" type="line"/>
      <point x="147" y="-85"/>
      <point x="157" y="-74"/>
      <point x="157" y="-58" type="curve" smooth="yes"/>
      <point x="157" y="-42"/>
      <point x="146" y="-28"/>
      <point x="128" y="-28" type="curve" smooth="yes"/>
      <point x="110" y="-28"/>
      <point x="98" y="-42"/>
      <point x="98" y="-58" type="curve" smooth="yes"/>
      <point x="98" y="-98"/>
      <point x="172" y="-154"/>
    </contour>
    <contour>
      <point x="349" y="116" type="curve"/>
      <point x="333" y="123"/>
      <point x="319" y="129"/>
      <point x="303" y="134" type="curve"/>
      <point x="237" y="155" type="line" smooth="yes"/>
      <point x="151" y="182"/>
      <point x="106" y="218"/>
      <point x="106" y="297" type="curve" smooth="yes" name="hr03"/>
      <point x="106" y="368"/>
      <point x="148" y="412"/>
      <point x="213" y="440" type="curve"/>
      <point x="229" y="433"/>
      <point x="243" y="427"/>
      <point x="259" y="422" type="curve" smooth="yes"/>
      <point x="325" y="401" type="line" smooth="yes"/>
      <point x="411" y="374"/>
      <point x="456" y="338"/>
      <point x="456" y="259" type="curve" smooth="yes"/>
      <point x="456" y="188"/>
      <point x="414" y="144"/>
    </contour>
  </outline>
</glyph>
<glyph name="dieresis" format="1">
  <advance width="600"/>
  <unicode hex="00A8"/>
  <outline>
    <contour>
      <point x="209" y="642" type="curve" smooth="yes" name="hr00"/>
      <point x="226" y="642"/>
      <point x="232" y="654"/>
      <point x="232" y="665" type="curve" smooth="yes"/>
      <point x="232" y="667" type="line" smooth="yes"/>
      <point x="232" y="678"/>
      <point x="226" y="690"/>
      <point x="209" y="690" type="curve" smooth="yes"/>
      <point x="192" y="690"/>
      <point x="186" y="678"/>
      <point x="186" y="667" type="curve" smooth="yes"/>
      <point x="186" y="665" type="line" smooth="yes"/>
      <point x="186" y="654"/>
      <point x="192" y="642"/>
    </contour>
    <contour>
      <point x="391" y="642" type="curve" smooth="yes"/>
      <point x="408" y="642"/>
      <point x="414" y="654"/>
      <point x="414" y="665" type="curve" smooth="yes"/>
      <point x="414" y="667" type="line" smooth="yes"/>
      <point x="414" y="678"/>
      <point x="408" y="690"/>
      <point x="391" y="690" type="curve" smooth="yes"/>
      <point x="374" y="690"/>
      <point x="368" y="678"/>
      <point x="368" y="667" type="curve" smooth="yes"/>
      <point x="368" y="665" type="line" smooth="yes"/>
      <point x="368" y="654"/>
      <point x="374" y="642"/>
    </contour>
    <contour>
      <point x="300" y="540" type="move" name="_top"/>
    </contour>
  </outline>
</glyph>
<glyph name="copyright" format="1">
  <advance width="772"/>
  <unicode hex="00A9"/>
  <outline>
    <contour>
      <point x="391" y="152" type="curve" smooth="yes" name="hr00"/>
      <point x="464" y="152"/>
      <point x="500" y="196"/>
      <point x="518" y="231" type="curve"/>
      <point x="507" y="237" type="line"/>
      <point x="488" y="202"/>
      <point x="454" y="168"/>
      <point x="391" y="168" type="curve" smooth="yes"/>
      <point x="310" y="168"/>
      <point x="260" y="233"/>
      <point x="260" y="332" type="curve" smooth="yes"/>
      <point x="260" y="366" type="line" smooth="yes"/>
      <point x="260" y="465"/>
      <point x="310" y="530"/>
      <point x="391" y="530" type="curve" smooth="yes"/>
      <point x="426" y="530"/>
      <point x="458" y="522"/>
      <point x="479" y="509" type="curve"/>
      <point x="479" y="507" type="line"/>
      <point x="465" y="504"/>
      <point x="457" y="497"/>
      <point x="457" y="485" type="curve" smooth="yes"/>
      <point x="457" y="474"/>
      <point x="465" y="467"/>
      <point x="478" y="467" type="curve" smooth="yes"/>
      <point x="491" y="467"/>
      <point x="499" y="475"/>
      <point x="499" y="490" type="curve" smooth="yes"/>
      <point x="499" y="518"/>
      <point x="449" y="546"/>
      <point x="391" y="546" type="curve" smooth="yes"/>
      <point x="300" y="546"/>
      <point x="239" y="478"/>
      <point x="239" y="349" type="curve" smooth="yes"/>
      <point x="239" y="220"/>
      <point x="300" y="152"/>
    </contour>
    <contour>
      <point x="386" y="6" type="curve"/>
      <point x="208" y="6"/>
      <point x="88" y="143"/>
      <point x="88" y="327" type="curve" smooth="yes"/>
      <point x="88" y="371" type="line" smooth="yes"/>
      <point x="88" y="555"/>
      <point x="208" y="692"/>
      <point x="386" y="692" type="curve" smooth="yes"/>
      <point x="564" y="692"/>
      <point x="684" y="555"/>
      <point x="684" y="371" type="curve" smooth="yes"/>
      <point x="684" y="327" type="line" smooth="yes"/>
      <point x="684" y="143"/>
      <point x="564" y="6"/>
    </contour>
    <contour>
      <point x="386" y="-12" type="curve" smooth="yes"/>
      <point x="575" y="-12"/>
      <point x="707" y="130"/>
      <point x="707" y="349" type="curve" smooth="yes"/>
      <point x="707" y="568"/>
      <point x="575" y="710"/>
      <point x="386" y="710" type="curve" smooth="yes"/>
      <point x="197" y="710"/>
      <point x="65" y="568"/>
      <point x="65" y="349" type="curve" smooth="yes"/>
      <point x="65" y="130"/>
      <point x="197" y="-12"/>
    </contour>
  </outline>
</glyph>
<glyph name="ordfeminine" format="1">
  <advance width="349"/>
  <unicode hex="00AA"/>
  <outline>
    <contour>
      <point x="145" y="354" type="curve" smooth="yes" name="hr00"/>
      <point x="208" y="354"/>
      <point x="237" y="381"/>
      <point x="251" y="410" type="curve"/>
      <point x="253" y="410" type="line"/>
      <point x="253" y="393" type="line" smooth="yes"/>
      <point x="253" y="366"/>
      <point x="262" y="359"/>
      <point x="287" y="359" type="curve" smooth="yes"/>
      <point x="300" y="359"/>
      <point x="319" y="362"/>
      <point x="329" y="365" type="curve"/>
      <point x="329" y="376" type="line"/>
      <point x="272" y="376" type="line"/>
      <point x="272" y="596" type="line" smooth="yes"/>
      <point x="272" y="661"/>
      <point x="233" y="704"/>
      <point x="159" y="704" type="curve" smooth="yes"/>
      <point x="96" y="704"/>
      <point x="53" y="676"/>
      <point x="53" y="648" type="curve" smooth="yes"/>
      <point x="53" y="635"/>
      <point x="61" y="626"/>
      <point x="75" y="626" type="curve" smooth="yes"/>
      <point x="89" y="626"/>
      <point x="98" y="635"/>
      <point x="98" y="647" type="curve" smooth="yes"/>
      <point x="98" y="659"/>
      <point x="92" y="668"/>
      <point x="81" y="671" type="curve"/>
      <point x="81" y="673" type="line"/>
      <point x="96" y="683"/>
      <point x="124" y="689"/>
      <point x="159" y="689" type="curve" smooth="yes"/>
      <point x="221" y="689"/>
      <point x="253" y="654"/>
      <point x="253" y="594" type="curve" smooth="yes"/>
      <point x="253" y="532" type="line"/>
      <point x="166" y="532" type="line" smooth="yes"/>
      <point x="80" y="532"/>
      <point x="40" y="499"/>
      <point x="40" y="442" type="curve" smooth="yes"/>
      <point x="40" y="389"/>
      <point x="74" y="354"/>
    </contour>
    <contour>
      <point x="146" y="369" type="curve"/>
      <point x="93" y="369"/>
      <point x="61" y="393"/>
      <point x="61" y="435" type="curve" smooth="yes"/>
      <point x="61" y="448" type="line" smooth="yes"/>
      <point x="61" y="490"/>
      <point x="91" y="517"/>
      <point x="168" y="517" type="curve" smooth="yes"/>
      <point x="253" y="517" type="line"/>
      <point x="253" y="454" type="line" smooth="yes"/>
      <point x="253" y="397"/>
      <point x="207" y="369"/>
    </contour>
  </outline>
</glyph>
<glyph name="logicalnot" format="1">
  <advance width="600"/>
  <unicode hex="00AC"/>
  <outline>
    <contour>
      <point x="501" y="103" type="line" name="hr00"/>
      <point x="522" y="103" type="line"/>
      <point x="522" y="314" type="line"/>
      <point x="62" y="314" type="line"/>
      <point x="62" y="296" type="line"/>
      <point x="501" y="296" type="line"/>
    </contour>
  </outline>
</glyph>
<glyph name="registered" format="1">
  <advance width="466"/>
  <unicode hex="00AE"/>
  <outline>
    <contour>
      <point x="149" y="398" type="line" name="hr00"/>
      <point x="216" y="398" type="line"/>
      <point x="216" y="410" type="line"/>
      <point x="189" y="410" type="line"/>
      <point x="189" y="496" type="line"/>
      <point x="236" y="496" type="line"/>
      <point x="277" y="422" type="line" smooth="yes"/>
      <point x="287" y="404"/>
      <point x="297" y="398"/>
      <point x="313" y="398" type="curve" smooth="yes"/>
      <point x="331" y="398" type="line"/>
      <point x="331" y="410" type="line"/>
      <point x="324" y="410" type="line" smooth="yes"/>
      <point x="310" y="410"/>
      <point x="299" y="414"/>
      <point x="294" y="423" type="curve" smooth="yes"/>
      <point x="253" y="497" type="line"/>
      <point x="287" y="500"/>
      <point x="307" y="522"/>
      <point x="307" y="553" type="curve" smooth="yes"/>
      <point x="307" y="587"/>
      <point x="283" y="610"/>
      <point x="243" y="610" type="curve" smooth="yes"/>
      <point x="149" y="610" type="line"/>
      <point x="149" y="598" type="line"/>
      <point x="173" y="598" type="line"/>
      <point x="173" y="410" type="line"/>
      <point x="149" y="410" type="line"/>
    </contour>
    <contour>
      <point x="233" y="312" type="curve"/>
      <point x="130" y="312"/>
      <point x="54" y="389"/>
      <point x="54" y="494" type="curve" smooth="yes"/>
      <point x="54" y="514" type="line" smooth="yes"/>
      <point x="54" y="619"/>
      <point x="130" y="696"/>
      <point x="233" y="696" type="curve" smooth="yes"/>
      <point x="336" y="696"/>
      <point x="412" y="619"/>
      <point x="412" y="514" type="curve" smooth="yes"/>
      <point x="412" y="494" type="line" smooth="yes"/>
      <point x="412" y="389"/>
      <point x="336" y="312"/>
    </contour>
    <contour>
      <point x="233" y="298" type="curve" smooth="yes"/>
      <point x="348" y="298"/>
      <point x="431" y="382"/>
      <point x="431" y="504" type="curve" smooth="yes"/>
      <point x="431" y="626"/>
      <point x="348" y="710"/>
      <point x="233" y="710" type="curve" smooth="yes"/>
      <point x="118" y="710"/>
      <point x="35" y="626"/>
      <point x="35" y="504" type="curve" smooth="yes"/>
      <point x="35" y="382"/>
      <point x="118" y="298"/>
    </contour>
    <contour>
      <point x="189" y="598" type="line"/>
      <point x="243" y="598" type="line" smooth="yes"/>
      <point x="272" y="598"/>
      <point x="289" y="581"/>
      <point x="289" y="561" type="curve"/>
      <point x="289" y="545" type="line" smooth="yes"/>
      <point x="289" y="525"/>
      <point x="272" y="508"/>
      <point x="243" y="508" type="curve" smooth="yes"/>
      <point x="189" y="508" type="line"/>
    </contour>
  </outline>
</glyph>
<glyph name="macron" format="1">
  <advance width="600"/>
  <unicode hex="00AF"/>
  <outline>
    <contour>
      <point x="171" y="659" type="line" name="hr00"/>
      <point x="429" y="659" type="line"/>
      <point x="429" y="676" type="line"/>
      <point x="171" y="676" type="line"/>
    </contour>
    <contour>
      <point x="300" y="540" type="move" name="_top"/>
    </contour>
  </outline>
</glyph>
<glyph name="degree" format="1">
  <advance width="464"/>
  <unicode hex="00B0"/>
  <outline>
    <contour>
      <point x="232" y="374" type="curve" smooth="yes" name="hr00"/>
      <point x="325" y="374"/>
      <point x="394" y="447"/>
      <point x="394" y="542" type="curve" smooth="yes"/>
      <point x="394" y="637"/>
      <point x="325" y="710"/>
      <point x="232" y="710" type="curve" smooth="yes"/>
      <point x="139" y="710"/>
      <point x="70" y="637"/>
      <point x="70" y="542" type="curve" smooth="yes"/>
      <point x="70" y="447"/>
      <point x="139" y="374"/>
    </contour>
    <contour>
      <point x="232" y="393" type="curve"/>
      <point x="146" y="393"/>
      <point x="91" y="460"/>
      <point x="91" y="542" type="curve" smooth="yes"/>
      <point x="91" y="624"/>
      <point x="146" y="691"/>
      <point x="232" y="691" type="curve" smooth="yes"/>
      <point x="318" y="691"/>
      <point x="373" y="624"/>
      <point x="373" y="542" type="curve" smooth="yes"/>
      <point x="373" y="460"/>
      <point x="318" y="393"/>
    </contour>
  </outline>
</glyph>
<glyph name="plusminus" format="1">
  <advance width="600"/>
  <unicode hex="00B1"/>
  <outline>
    <contour>
      <point x="62" y="0" type="line" name="hr00"/>
      <point x="538" y="0" type="line"/>
      <point x="538" y="18" type="line"/>
      <point x="62" y="18" type="line"/>
    </contour>
    <contour>
      <point x="290" y="116" type="line"/>
      <point x="311" y="116" type="line"/>
      <point x="311" y="350" type="line"/>
      <point x="539" y="350" type="line"/>
      <point x="539" y="368" type="line"/>
      <point x="311" y="368" type="line"/>
      <point x="311" y="602" type="line"/>
      <point x="290" y="602" type="line"/>
      <point x="290" y="368" type="line"/>
      <point x="62" y="368" type="line"/>
      <point x="62" y="350" type="line"/>
      <point x="290" y="350" type="line"/>
    </contour>
  </outline>
</glyph>
<glyph name="twosuperior" format="1">
  <advance width="346"/>
  <unicode hex="00B2"/>
  <outline>
    <contour>
      <point x="46" y="329" type="line" name="hr00"/>
      <point x="298" y="329" type="line"/>
      <point x="298" y="414" type="line"/>
      <point x="279" y="414" type="line"/>
      <point x="279" y="346" type="line"/>
      <point x="66" y="346" type="line"/>
      <point x="66" y="349" type="line"/>
      <point x="185" y="452" type="line" smooth="yes"/>
      <point x="246" y="505"/>
      <point x="275" y="549"/>
      <point x="275" y="599" type="curve" smooth="yes"/>
      <point x="275" y="660"/>
      <point x="238" y="704"/>
      <point x="159" y="704" type="curve" smooth="yes"/>
      <point x="88" y="704"/>
      <point x="43" y="664"/>
      <point x="43" y="637" type="curve" smooth="yes"/>
      <point x="43" y="621"/>
      <point x="53" y="612"/>
      <point x="67" y="612" type="curve" smooth="yes"/>
      <point x="80" y="612"/>
      <point x="90" y="622"/>
      <point x="90" y="635" type="curve" smooth="yes"/>
      <point x="90" y="645"/>
      <point x="85" y="654"/>
      <point x="69" y="660" type="curve"/>
      <point x="69" y="662" type="line"/>
      <point x="90" y="680"/>
      <point x="119" y="688"/>
      <point x="159" y="688" type="curve" smooth="yes"/>
      <point x="225" y="688"/>
      <point x="255" y="654"/>
      <point x="255" y="602" type="curve" smooth="yes"/>
      <point x="255" y="592" type="line" smooth="yes"/>
      <point x="255" y="553"/>
      <point x="229" y="513"/>
      <point x="174" y="464" type="curve" smooth="yes"/>
      <point x="46" y="349" type="line"/>
    </contour>
  </outline>
</glyph>
<glyph name="threesuperior" format="1">
  <advance width="349"/>
  <unicode hex="00B3"/>
  <outline>
    <contour>
      <point x="160" y="324" type="curve" smooth="yes" name="hr00"/>
      <point x="242" y="324"/>
      <point x="289" y="363"/>
      <point x="289" y="431" type="curve" smooth="yes"/>
      <point x="289" y="480"/>
      <point x="252" y="513"/>
      <point x="207" y="520" type="curve"/>
      <point x="207" y="523" type="line"/>
      <point x="250" y="533"/>
      <point x="282" y="560"/>
      <point x="282" y="610" type="curve" smooth="yes"/>
      <point x="282" y="670"/>
      <point x="240" y="704"/>
      <point x="168" y="704" type="curve" smooth="yes"/>
      <point x="97" y="704"/>
      <point x="51" y="664"/>
      <point x="51" y="637" type="curve" smooth="yes"/>
      <point x="51" y="621"/>
      <point x="61" y="612"/>
      <point x="75" y="612" type="curve" smooth="yes"/>
      <point x="88" y="612"/>
      <point x="98" y="622"/>
      <point x="98" y="635" type="curve" smooth="yes"/>
      <point x="98" y="645"/>
      <point x="93" y="654"/>
      <point x="77" y="660" type="curve"/>
      <point x="77" y="662" type="line"/>
      <point x="98" y="680"/>
      <point x="128" y="688"/>
      <point x="168" y="688" type="curve" smooth="yes"/>
      <point x="230" y="688"/>
      <point x="262" y="662"/>
      <point x="262" y="616" type="curve" smooth="yes"/>
      <point x="262" y="607" type="line" smooth="yes"/>
      <point x="262" y="556"/>
      <point x="231" y="529"/>
      <point x="157" y="529" type="curve" smooth="yes"/>
      <point x="119" y="529" type="line"/>
      <point x="119" y="513" type="line"/>
      <point x="158" y="513" type="line" smooth="yes"/>
      <point x="232" y="513"/>
      <point x="269" y="483"/>
      <point x="269" y="434" type="curve" smooth="yes"/>
      <point x="269" y="426" type="line" smooth="yes"/>
      <point x="269" y="369"/>
      <point x="231" y="340"/>
      <point x="160" y="340" type="curve" smooth="yes"/>
      <point x="121" y="340"/>
      <point x="92" y="348"/>
      <point x="72" y="365" type="curve"/>
      <point x="72" y="367" type="line"/>
      <point x="88" y="373"/>
      <point x="93" y="382"/>
      <point x="93" y="392" type="curve" smooth="yes"/>
      <point x="93" y="405"/>
      <point x="83" y="415"/>
      <point x="70" y="415" type="curve" smooth="yes"/>
      <point x="56" y="415"/>
      <point x="46" y="406"/>
      <point x="46" y="390" type="curve" smooth="yes"/>
      <point x="46" y="363"/>
      <point x="91" y="324"/>
    </contour>
  </outline>
</glyph>
<glyph name="acute" format="1">
  <advance width="600"/>
  <unicode hex="00B4"/>
  <outline>
    <contour>
      <point x="281" y="588" type="line" name="hr00"/>
      <point x="397" y="739" type="line"/>
      <point x="378" y="751" type="line"/>
      <point x="268" y="597" type="line"/>
    </contour>
    <contour>
      <point x="300" y="540" type="move" name="_top"/>
    </contour>
  </outline>
</glyph>
<glyph name="paragraph" format="1">
  <advance width="588"/>
  <unicode hex="00B6"/>
  <outline>
    <contour>
      <point x="263" y="-154" type="curve" smooth="yes" name="hr00"/>
      <point x="359" y="-154"/>
      <point x="423" y="-86"/>
      <point x="423" y="51" type="curve" smooth="yes"/>
      <point x="423" y="680" type="line"/>
      <point x="493" y="680" type="line"/>
      <point x="493" y="698" type="line"/>
      <point x="262" y="698" type="line" smooth="yes"/>
      <point x="146" y="698"/>
      <point x="50" y="631"/>
      <point x="50" y="514" type="curve" smooth="yes"/>
      <point x="50" y="397"/>
      <point x="146" y="330"/>
      <point x="262" y="330" type="curve"/>
      <point x="262" y="-139" type="line"/>
      <point x="187" y="-139"/>
      <point x="144" y="-109"/>
      <point x="130" y="-69" type="curve"/>
      <point x="130" y="-66" type="line"/>
      <point x="158" y="-60"/>
      <point x="172" y="-46"/>
      <point x="172" y="-29" type="curve" smooth="yes"/>
      <point x="172" y="-12"/>
      <point x="162" y="1"/>
      <point x="144" y="1" type="curve" smooth="yes"/>
      <point x="124" y="1"/>
      <point x="111" y="-15"/>
      <point x="111" y="-37" type="curve" smooth="yes"/>
      <point x="111" y="-110"/>
      <point x="177" y="-154"/>
    </contour>
    <contour>
      <point x="282" y="680" type="line"/>
      <point x="403" y="680" type="line"/>
      <point x="403" y="51" type="line" smooth="yes"/>
      <point x="403" y="-69"/>
      <point x="357" y="-129"/>
      <point x="282" y="-138" type="curve"/>
    </contour>
  </outline>
</glyph>
<glyph name="periodcentered" format="1">
  <advance width="296"/>
  <unicode hex="00B7"/>
  <outline>
    <contour>
      <point x="148" y="277" type="curve" smooth="yes" name="hr00"/>
      <point x="165" y="277"/>
      <point x="176" y="288"/>
      <point x="176" y="305" type="curve" smooth="yes"/>
      <point x="176" y="307" type="line" smooth="yes"/>
      <point x="176" y="324"/>
      <point x="165" y="335"/>
      <point x="148" y="335" type="curve" smooth="yes"/>
      <point x="131" y="335"/>
      <point x="120" y="324"/>
      <point x="120" y="307" type="curve" smooth="yes"/>
      <point x="120" y="305" type="line" smooth="yes"/>
      <point x="120" y="288"/>
      <point x="131" y="277"/>
    </contour>
  </outline>
</glyph>
<glyph name="cedilla" format="1">
  <advance width="600"/>
  <unicode hex="00B8"/>
  <outline>
    <contour>
      <point x="309" y="-202" type="curve" smooth="yes" name="hr00"/>
      <point x="360" y="-202"/>
      <point x="391" y="-169"/>
      <point x="391" y="-131" type="curve" smooth="yes"/>
      <point x="391" y="-95"/>
      <point x="363" y="-72"/>
      <point x="324" y="-72" type="curve" smooth="yes"/>
      <point x="315" y="-72"/>
      <point x="303" y="-73"/>
      <point x="294" y="-75" type="curve"/>
      <point x="292" y="-73" type="line"/>
      <point x="311" y="3" type="line"/>
      <point x="293" y="3" type="line"/>
      <point x="272" y="-84" type="line"/>
      <point x="309" y="-86" type="line" smooth="yes"/>
      <point x="354" y="-88"/>
      <point x="370" y="-107"/>
      <point x="370" y="-132" type="curve" smooth="yes"/>
      <point x="370" y="-167"/>
      <point x="345" y="-185"/>
      <point x="309" y="-185" type="curve" smooth="yes"/>
      <point x="279" y="-185"/>
      <point x="252" y="-176"/>
      <point x="238" y="-159" type="curve"/>
      <point x="229" y="-170" type="line"/>
      <point x="241" y="-187"/>
      <point x="271" y="-202"/>
    </contour>
    <contour>
      <point x="300" y="0" type="move" name="_bottom"/>
    </contour>
  </outline>
</glyph>
<glyph name="onesuperior" format="1">
  <advance width="365"/>
  <unicode hex="00B9"/>
  <outline>
    <contour>
      <point x="59" y="330" type="line" name="hr00"/>
      <point x="325" y="330" type="line"/>
      <point x="325" y="346" type="line"/>
      <point x="207" y="346" type="line"/>
      <point x="207" y="698" type="line"/>
      <point x="191" y="698" type="line"/>
      <point x="46" y="631" type="line"/>
      <point x="53" y="617" type="line"/>
      <point x="188" y="676" type="line"/>
      <point x="188" y="346" type="line"/>
      <point x="59" y="346" type="line"/>
    </contour>
  </outline>
</glyph>
<glyph name="ordmasculine" format="1">
  <advance width="364"/>
  <unicode hex="00BA"/>
  <outline>
    <contour>
      <point x="182" y="369" type="curve" name="hr00"/>
      <point x="106" y="369"/>
      <point x="66" y="435"/>
      <point x="66" y="511" type="curve" smooth="yes"/>
      <point x="66" y="547" type="line" smooth="yes"/>
      <point x="66" y="623"/>
      <point x="106" y="689"/>
      <point x="182" y="689" type="curve" smooth="yes"/>
      <point x="258" y="689"/>
      <point x="298" y="623"/>
      <point x="298" y="547" type="curve" smooth="yes"/>
      <point x="298" y="511" type="line" smooth="yes"/>
      <point x="298" y="435"/>
      <point x="258" y="369"/>
    </contour>
    <contour>
      <point x="182" y="354" type="curve" smooth="yes"/>
      <point x="269" y="354"/>
      <point x="319" y="422"/>
      <point x="319" y="529" type="curve" smooth="yes"/>
      <point x="319" y="636"/>
      <point x="269" y="704"/>
      <point x="182" y="704" type="curve" smooth="yes"/>
      <point x="95" y="704"/>
      <point x="45" y="636"/>
      <point x="45" y="529" type="curve" smooth="yes"/>
      <point x="45" y="422"/>
      <point x="95" y="354"/>
    </contour>
  </outline>
</glyph>
<glyph name="questiondown" format="1">
  <advance width="431"/>
  <unicode hex="00BF"/>
  <outline>
    <contour>
      <point x="224" y="-204" type="curve" smooth="yes"/>
      <point x="322" y="-204"/>
      <point x="396" y="-151"/>
      <point x="396" y="-104" type="curve" smooth="yes"/>
      <point x="396" y="-88"/>
      <point x="384" y="-74"/>
      <point x="366" y="-74" type="curve" smooth="yes"/>
      <point x="348" y="-74"/>
      <point x="337" y="-88"/>
      <point x="337" y="-104" type="curve" smooth="yes"/>
      <point x="337" y="-120"/>
      <point x="349" y="-133"/>
      <point x="364" y="-138" type="curve"/>
      <point x="364" y="-140" type="line"/>
      <point x="333" y="-167"/>
      <point x="290" y="-186"/>
      <point x="225" y="-186" type="curve" smooth="yes"/>
      <point x="121" y="-186"/>
      <point x="58" y="-125"/>
      <point x="58" y="-36" type="curve" smooth="yes"/>
      <point x="58" y="-10" type="line" smooth="yes"/>
      <point x="58" y="87"/>
      <point x="131" y="155"/>
      <point x="258" y="157" type="curve"/>
      <point x="258" y="330" type="line"/>
      <point x="237" y="330" type="line"/>
      <point x="237" y="175" type="line"/>
      <point x="105" y="162"/>
      <point x="35" y="89"/>
      <point x="35" y="-25" type="curve" smooth="yes"/>
      <point x="35" y="-132"/>
      <point x="110" y="-204"/>
    </contour>
    <contour>
      <point x="247" y="453" type="curve" smooth="yes"/>
      <point x="264" y="453"/>
      <point x="275" y="464"/>
      <point x="275" y="481" type="curve" smooth="yes" name="hr01"/>
      <point x="275" y="483" type="line" smooth="yes"/>
      <point x="275" y="500"/>
      <point x="264" y="511"/>
      <point x="247" y="511" type="curve" smooth="yes"/>
      <point x="230" y="511"/>
      <point x="219" y="500"/>
      <point x="219" y="483" type="curve" smooth="yes"/>
      <point x="219" y="481" type="line" smooth="yes"/>
      <point x="219" y="464"/>
      <point x="230" y="453"/>
    </contour>
  </outline>
</glyph>
<glyph name="AE" format="1">
  <advance width="931"/>
  <unicode hex="00C6"/>
  <outline>
    <contour>
      <point x="4" y="0" type="line"/>
      <point x="194" y="0" type="line"/>
      <point x="194" y="18" type="line"/>
      <point x="94" y="18" type="line"/>
      <point x="219" y="234" type="line"/>
      <point x="486" y="234" type="line"/>
      <point x="486" y="18" type="line"/>
      <point x="401" y="18" type="line"/>
      <point x="401" y="0" type="line"/>
      <point x="871" y="0" type="line"/>
      <point x="871" y="148" type="line"/>
      <point x="850" y="148" type="line"/>
      <point x="850" y="18" type="line"/>
      <point x="508" y="18" type="line"/>
      <point x="508" y="359" type="line"/>
      <point x="770" y="359" type="line"/>
      <point x="770" y="274" type="line"/>
      <point x="791" y="274" type="line"/>
      <point x="791" y="462" type="line"/>
      <point x="770" y="462" type="line"/>
      <point x="770" y="377" type="line"/>
      <point x="508" y="377" type="line"/>
      <point x="508" y="680" type="line"/>
      <point x="842" y="680" type="line" name="hr01"/>
      <point x="842" y="550" type="line"/>
      <point x="863" y="550" type="line"/>
      <point x="863" y="698" type="line"/>
      <point x="368" y="698" type="line"/>
      <point x="368" y="680" type="line"/>
      <point x="453" y="680" type="line"/>
      <point x="69" y="18" type="line"/>
      <point x="4" y="18" type="line"/>
    </contour>
    <contour>
      <point x="476" y="680" type="line"/>
      <point x="486" y="680" type="line"/>
      <point x="486" y="252" type="line"/>
      <point x="229" y="252" type="line"/>
    </contour>
    <contour>
      <point x="615" y="698" type="move" name="top"/>
    </contour>
  </outline>
</glyph>
<glyph name="Ccedilla" format="1">
  <advance width="653"/>
  <unicode hex="00C7"/>
  <outline>
    <contour>
      <point x="362" y="-202" type="curve" smooth="yes"/>
      <point x="413" y="-202"/>
      <point x="444" y="-169"/>
      <point x="444" y="-131" type="curve" smooth="yes"/>
      <point x="444" y="-95"/>
      <point x="416" y="-72"/>
      <point x="377" y="-72" type="curve" smooth="yes"/>
      <point x="368" y="-72"/>
      <point x="356" y="-73"/>
      <point x="347" y="-75" type="curve"/>
      <point x="345" y="-73" type="line"/>
      <point x="360" y="-12" type="line"/>
      <point x="480" y="-7"/>
      <point x="549" y="52"/>
      <point x="583" y="141" type="curve"/>
      <point x="567" y="148" type="line"/>
      <point x="533" y="59"/>
      <point x="465" y="6"/>
      <point x="346" y="6" type="curve" smooth="yes"/>
      <point x="188" y="6"/>
      <point x="89" y="112"/>
      <point x="89" y="327" type="curve" smooth="yes"/>
      <point x="89" y="371" type="line" smooth="yes"/>
      <point x="89" y="586"/>
      <point x="188" y="692"/>
      <point x="346" y="692" type="curve" smooth="yes"/>
      <point x="469" y="692"/>
      <point x="553" y="633"/>
      <point x="553" y="556" type="curve" smooth="yes"/>
      <point x="553" y="493" type="line"/>
      <point x="574" y="493" type="line"/>
      <point x="574" y="698" type="line" name="hr01"/>
      <point x="553" y="698" type="line"/>
      <point x="553" y="613" type="line"/>
      <point x="550" y="613" type="line"/>
      <point x="535" y="655"/>
      <point x="473" y="710"/>
      <point x="346" y="710" type="curve" smooth="yes" name="hr02"/>
      <point x="168" y="710"/>
      <point x="65" y="589"/>
      <point x="65" y="349" type="curve" smooth="yes"/>
      <point x="65" y="111"/>
      <point x="167" y="-10"/>
      <point x="342" y="-12" type="curve"/>
      <point x="325" y="-84" type="line"/>
      <point x="362" y="-86" type="line" smooth="yes"/>
      <point x="407" y="-88"/>
      <point x="423" y="-107"/>
      <point x="423" y="-132" type="curve" smooth="yes"/>
      <point x="423" y="-167"/>
      <point x="398" y="-185"/>
      <point x="362" y="-185" type="curve" smooth="yes"/>
      <point x="332" y="-185"/>
      <point x="305" y="-176"/>
      <point x="291" y="-159" type="curve"/>
      <point x="282" y="-170" type="line"/>
      <point x="294" y="-187"/>
      <point x="324" y="-202"/>
    </contour>
  </outline>
</glyph>
<glyph name="Oslash" format="1">
  <advance width="710"/>
  <unicode hex="00D8"/>
  <outline>
    <contour>
      <point x="102" y="-32" type="line" name="hr00"/>
      <point x="163" y="55" type="line"/>
      <point x="211" y="10"/>
      <point x="275" y="-12"/>
      <point x="355" y="-12" type="curve" smooth="yes"/>
      <point x="540" y="-12"/>
      <point x="645" y="109"/>
      <point x="645" y="349" type="curve" smooth="yes"/>
      <point x="645" y="475"/>
      <point x="616" y="569"/>
      <point x="561" y="629" type="curve"/>
      <point x="625" y="719" type="line"/>
      <point x="608" y="730" type="line"/>
      <point x="547" y="643" type="line"/>
      <point x="499" y="688"/>
      <point x="435" y="710"/>
      <point x="355" y="710" type="curve" smooth="yes"/>
      <point x="170" y="710"/>
      <point x="65" y="589"/>
      <point x="65" y="349" type="curve" smooth="yes"/>
      <point x="65" y="223"/>
      <point x="94" y="129"/>
      <point x="149" y="69" type="curve"/>
      <point x="85" y="-21" type="line"/>
    </contour>
    <contour>
      <point x="160" y="87" type="line"/>
      <point x="114" y="141"/>
      <point x="89" y="221"/>
      <point x="89" y="327" type="curve" smooth="yes"/>
      <point x="89" y="371" type="line" smooth="yes"/>
      <point x="89" y="582"/>
      <point x="190" y="692"/>
      <point x="355" y="692" type="curve" smooth="yes"/>
      <point x="429" y="692"/>
      <point x="491" y="670"/>
      <point x="536" y="626" type="curve"/>
    </contour>
    <contour>
      <point x="355" y="6" type="curve" smooth="yes"/>
      <point x="281" y="6"/>
      <point x="219" y="28"/>
      <point x="174" y="72" type="curve"/>
      <point x="550" y="611" type="line"/>
      <point x="596" y="557"/>
      <point x="621" y="477"/>
      <point x="621" y="371" type="curve" smooth="yes"/>
      <point x="621" y="327" type="line" smooth="yes"/>
      <point x="621" y="116"/>
      <point x="520" y="6"/>
    </contour>
    <contour>
      <point x="355" y="698" type="move" name="top"/>
    </contour>
  </outline>
</glyph>
<glyph name="Thorn" format="1">
  <advance width="589"/>
  <unicode hex="00DE"/>
  <outline>
    <contour>
      <point x="50" y="0" type="line" name="hr00"/>
      <point x="242" y="0" type="line"/>
      <point x="242" y="18" type="line"/>
      <point x="157" y="18" type="line"/>
      <point x="157" y="166" type="line"/>
      <point x="368" y="166" type="line" smooth="yes"/>
      <point x="482" y="166"/>
      <point x="544" y="237"/>
      <point x="544" y="349" type="curve" smooth="yes"/>
      <point x="544" y="461"/>
      <point x="482" y="532"/>
      <point x="368" y="532" type="curve" smooth="yes"/>
      <point x="157" y="532" type="line"/>
      <point x="157" y="680" type="line"/>
      <point x="242" y="680" type="line"/>
      <point x="242" y="698" type="line"/>
      <point x="50" y="698" type="line"/>
      <point x="50" y="680" type="line"/>
      <point x="135" y="680" type="line"/>
      <point x="135" y="18" type="line"/>
      <point x="50" y="18" type="line"/>
    </contour>
    <contour>
      <point x="157" y="514" type="line"/>
      <point x="368" y="514" type="line" smooth="yes"/>
      <point x="469" y="514"/>
      <point x="520" y="444"/>
      <point x="520" y="368" type="curve" smooth="yes"/>
      <point x="520" y="330" type="line" smooth="yes"/>
      <point x="520" y="254"/>
      <point x="469" y="184"/>
      <point x="368" y="184" type="curve"/>
      <point x="157" y="184" type="line"/>
    </contour>
  </outline>
</glyph>
<glyph name="germandbls" format="1">
  <advance width="648"/>
  <unicode hex="00DF"/>
  <outline>
    <contour>
      <point x="437" y="-12" type="curve" smooth="yes"/>
      <point x="531" y="-12"/>
      <point x="598" y="36"/>
      <point x="598" y="125" type="curve" smooth="yes"/>
      <point x="598" y="211"/>
      <point x="548" y="242"/>
      <point x="473" y="261" type="curve" smooth="yes"/>
      <point x="429" y="272" type="line" smooth="yes"/>
      <point x="357" y="290"/>
      <point x="322" y="311"/>
      <point x="322" y="378" type="curve" smooth="yes"/>
      <point x="322" y="455"/>
      <point x="402" y="488"/>
      <point x="509" y="488" type="curve" smooth="yes"/>
      <point x="527" y="488" type="line"/>
      <point x="527" y="539" type="line" smooth="yes"/>
      <point x="527" y="679"/>
      <point x="456" y="770"/>
      <point x="331" y="770" type="curve" smooth="yes"/>
      <point x="206" y="770"/>
      <point x="135" y="679"/>
      <point x="135" y="539" type="curve" smooth="yes"/>
      <point x="135" y="506" type="line"/>
      <point x="50" y="506" type="line"/>
      <point x="50" y="488" type="line"/>
      <point x="135" y="488" type="line"/>
      <point x="135" y="18" type="line" name="hr01"/>
      <point x="50" y="18" type="line"/>
      <point x="50" y="0" type="line"/>
      <point x="156" y="0" type="line"/>
      <point x="156" y="539" type="line" smooth="yes"/>
      <point x="156" y="673"/>
      <point x="219" y="752"/>
      <point x="331" y="752" type="curve" smooth="yes"/>
      <point x="443" y="752"/>
      <point x="506" y="673"/>
      <point x="506" y="539" type="curve" smooth="yes"/>
      <point x="506" y="506" type="line"/>
      <point x="385" y="506"/>
      <point x="301" y="467"/>
      <point x="301" y="377" type="curve" smooth="yes"/>
      <point x="301" y="297"/>
      <point x="349" y="271"/>
      <point x="425" y="252" type="curve" smooth="yes"/>
      <point x="469" y="241" type="line" smooth="yes"/>
      <point x="539" y="224"/>
      <point x="577" y="197"/>
      <point x="577" y="124" type="curve" smooth="yes"/>
      <point x="577" y="48"/>
      <point x="520" y="6"/>
      <point x="437" y="6" type="curve" smooth="yes" name="hr02"/>
      <point x="393" y="6"/>
      <point x="354" y="14"/>
      <point x="323" y="35" type="curve"/>
      <point x="323" y="37" type="line"/>
      <point x="336" y="42"/>
      <point x="345" y="52"/>
      <point x="345" y="65" type="curve" smooth="yes"/>
      <point x="345" y="81"/>
      <point x="335" y="91"/>
      <point x="319" y="91" type="curve" smooth="yes"/>
      <point x="303" y="91"/>
      <point x="293" y="81"/>
      <point x="293" y="65" type="curve" smooth="yes"/>
      <point x="293" y="25"/>
      <point x="359" y="-12"/>
    </contour>
  </outline>
</glyph>
<glyph name="agrave" format="1">
  <advance width="523"/>
  <unicode hex="00E0"/>
  <outline>
    <component base="a"/>
    <component base="grave" xOffset="-60"/>
    <contour>
      <point x="227.0" y="0.0" type="move" name="bottom"/>
    </contour>
    <contour>
      <point x="483.0" y="0.0" type="move" name="bottomright"/>
    </contour>
  </outline>
</glyph>
<glyph name="ae" format="1">
  <advance width="850"/>
  <unicode hex="00E6"/>
  <outline>
    <contour>
      <point x="218" y="-12" type="curve" smooth="yes" name="hr00"/>
      <point x="329" y="-12"/>
      <point x="391" y="51"/>
      <point x="404" y="121" type="curve"/>
      <point x="408" y="121" type="line"/>
      <point x="440" y="31"/>
      <point x="508" y="-12"/>
      <point x="597" y="-12" type="curve" smooth="yes"/>
      <point x="693" y="-12"/>
      <point x="749" y="51"/>
      <point x="777" y="104" type="curve"/>
      <point x="763" y="112" type="line"/>
      <point x="733" y="58"/>
      <point x="681" y="6"/>
      <point x="597" y="6" type="curve" smooth="yes"/>
      <point x="486" y="6"/>
      <point x="410" y="82"/>
      <point x="410" y="234" type="curve" smooth="yes"/>
      <point x="410" y="259" type="line"/>
      <point x="790" y="259" type="line"/>
      <point x="790" y="271" type="line" smooth="yes"/>
      <point x="790" y="421"/>
      <point x="714" y="518"/>
      <point x="600" y="518" type="curve" smooth="yes"/>
      <point x="508" y="518"/>
      <point x="442" y="471"/>
      <point x="408" y="382" type="curve"/>
      <point x="404" y="382" type="line"/>
      <point x="404" y="462"/>
      <point x="345" y="518"/>
      <point x="239" y="518" type="curve" smooth="yes"/>
      <point x="150" y="518"/>
      <point x="80" y="479"/>
      <point x="80" y="440" type="curve" smooth="yes"/>
      <point x="80" y="424"/>
      <point x="90" y="414"/>
      <point x="106" y="414" type="curve" smooth="yes"/>
      <point x="122" y="414"/>
      <point x="132" y="424"/>
      <point x="132" y="440" type="curve" smooth="yes"/>
      <point x="132" y="453"/>
      <point x="123" y="463"/>
      <point x="110" y="468" type="curve"/>
      <point x="110" y="470" type="line"/>
      <point x="131" y="487"/>
      <point x="169" y="500"/>
      <point x="237" y="500" type="curve" smooth="yes"/>
      <point x="335" y="500"/>
      <point x="387" y="453"/>
      <point x="387" y="360" type="curve" smooth="yes"/>
      <point x="387" y="275" type="line"/>
      <point x="274" y="275" type="line" smooth="yes"/>
      <point x="121" y="275"/>
      <point x="60" y="225"/>
      <point x="60" y="123" type="curve" smooth="yes"/>
      <point x="60" y="42"/>
      <point x="120" y="-12"/>
    </contour>
    <contour>
      <point x="221" y="6" type="curve"/>
      <point x="133" y="6"/>
      <point x="83" y="52"/>
      <point x="83" y="112" type="curve" smooth="yes"/>
      <point x="83" y="136" type="line" smooth="yes"/>
      <point x="83" y="214"/>
      <point x="132" y="259"/>
      <point x="280" y="259" type="curve" smooth="yes"/>
      <point x="387" y="259" type="line"/>
      <point x="387" y="144" type="line" smooth="yes"/>
      <point x="387" y="68"/>
      <point x="320" y="6"/>
    </contour>
    <contour>
      <point x="410" y="283" type="line"/>
      <point x="410" y="413"/>
      <point x="485" y="500"/>
      <point x="600" y="500" type="curve" smooth="yes"/>
      <point x="705" y="500"/>
      <point x="767" y="409"/>
      <point x="767" y="275" type="curve"/>
      <point x="410" y="275" type="line"/>
    </contour>
    <contour>
      <point x="398" y="540" type="move" name="top"/>
    </contour>
  </outline>
</glyph>
<glyph name="ccedilla" format="1">
  <advance width="496"/>
  <unicode hex="00E7"/>
  <outline>
    <contour>
      <point x="285" y="-202" type="curve" smooth="yes" name="hr00"/>
      <point x="336" y="-202"/>
      <point x="367" y="-169"/>
      <point x="367" y="-131" type="curve" smooth="yes"/>
      <point x="367" y="-95"/>
      <point x="339" y="-72"/>
      <point x="300" y="-72" type="curve" smooth="yes"/>
      <point x="291" y="-72"/>
      <point x="279" y="-73"/>
      <point x="270" y="-75" type="curve"/>
      <point x="268" y="-73" type="line"/>
      <point x="283" y="-12" type="line"/>
      <point x="380" y="-8"/>
      <point x="425" y="53"/>
      <point x="451" y="104" type="curve"/>
      <point x="437" y="112" type="line"/>
      <point x="407" y="58"/>
      <point x="363" y="6"/>
      <point x="275" y="6" type="curve" smooth="yes"/>
      <point x="162" y="6"/>
      <point x="83" y="93"/>
      <point x="83" y="229" type="curve" smooth="yes"/>
      <point x="83" y="277" type="line" smooth="yes"/>
      <point x="83" y="413"/>
      <point x="151" y="500"/>
      <point x="275" y="500" type="curve" smooth="yes"/>
      <point x="319" y="500"/>
      <point x="360" y="494"/>
      <point x="391" y="473" type="curve"/>
      <point x="391" y="471" type="line"/>
      <point x="378" y="466"/>
      <point x="368" y="455"/>
      <point x="368" y="442" type="curve" smooth="yes"/>
      <point x="368" y="426"/>
      <point x="378" y="416"/>
      <point x="394" y="416" type="curve" smooth="yes"/>
      <point x="410" y="416"/>
      <point x="420" y="426"/>
      <point x="420" y="442" type="curve" smooth="yes"/>
      <point x="420" y="482"/>
      <point x="354" y="518"/>
      <point x="275" y="518" type="curve" smooth="yes"/>
      <point x="146" y="518"/>
      <point x="60" y="427"/>
      <point x="60" y="253" type="curve" smooth="yes"/>
      <point x="60" y="83"/>
      <point x="142" y="-7"/>
      <point x="265" y="-12" type="curve"/>
      <point x="248" y="-84" type="line"/>
      <point x="285" y="-86" type="line" smooth="yes"/>
      <point x="330" y="-88"/>
      <point x="346" y="-107"/>
      <point x="346" y="-132" type="curve" smooth="yes"/>
      <point x="346" y="-167"/>
      <point x="321" y="-185"/>
      <point x="285" y="-185" type="curve" smooth="yes"/>
      <point x="255" y="-185"/>
      <point x="228" y="-176"/>
      <point x="214" y="-159" type="curve"/>
      <point x="205" y="-170" type="line"/>
      <point x="217" y="-187"/>
      <point x="247" y="-202"/>
    </contour>
  </outline>
</glyph>
<glyph name="eth" format="1">
  <advance width="545"/>
  <unicode hex="00F0"/>
  <outline>
    <contour>
      <point x="270" y="-12" type="curve" smooth="yes" name="hr00"/>
      <point x="397" y="-12"/>
      <point x="480" y="84"/>
      <point x="480" y="256" type="curve" smooth="yes"/>
      <point x="480" y="449"/>
      <point x="387" y="592"/>
      <point x="292" y="682" type="curve"/>
      <point x="394" y="756" type="line"/>
      <point x="384" y="770" type="line"/>
      <point x="279" y="694" type="line"/>
      <point x="249" y="720"/>
      <point x="220" y="742"/>
      <point x="194" y="758" type="curve"/>
      <point x="159" y="758" type="line"/>
      <point x="196" y="737"/>
      <point x="232" y="713"/>
      <point x="264" y="684" type="curve"/>
      <point x="154" y="604" type="line"/>
      <point x="164" y="590" type="line"/>
      <point x="277" y="672" type="line"/>
      <point x="344" y="610"/>
      <point x="398" y="531"/>
      <point x="432" y="438" type="curve"/>
      <point x="429" y="436" type="line"/>
      <point x="391" y="490"/>
      <point x="339" y="518"/>
      <point x="270" y="518" type="curve" smooth="yes"/>
      <point x="143" y="518"/>
      <point x="60" y="421"/>
      <point x="60" y="253" type="curve" smooth="yes"/>
      <point x="60" y="85"/>
      <point x="143" y="-12"/>
    </contour>
    <contour>
      <point x="270" y="6" type="curve"/>
      <point x="161" y="6"/>
      <point x="83" y="89"/>
      <point x="83" y="227" type="curve" smooth="yes"/>
      <point x="83" y="279" type="line" smooth="yes"/>
      <point x="83" y="417"/>
      <point x="161" y="500"/>
      <point x="270" y="500" type="curve" smooth="yes"/>
      <point x="379" y="500"/>
      <point x="457" y="417"/>
      <point x="457" y="279" type="curve" smooth="yes"/>
      <point x="457" y="227" type="line" smooth="yes"/>
      <point x="457" y="89"/>
      <point x="379" y="6"/>
    </contour>
  </outline>
</glyph>
<glyph name="divide" format="1">
  <advance width="600"/>
  <unicode hex="00F7"/>
  <outline>
    <contour>
      <point x="300" y="92" type="curve" smooth="yes" name="hr00"/>
      <point x="322" y="92"/>
      <point x="334" y="102"/>
      <point x="334" y="119" type="curve" smooth="yes"/>
      <point x="334" y="127" type="line" smooth="yes"/>
      <point x="334" y="144"/>
      <point x="322" y="154"/>
      <point x="300" y="154" type="curve" smooth="yes"/>
      <point x="278" y="154"/>
      <point x="266" y="144"/>
      <point x="266" y="127" type="curve" smooth="yes"/>
      <point x="266" y="119" type="line" smooth="yes"/>
      <point x="266" y="102"/>
      <point x="278" y="92"/>
    </contour>
    <contour>
      <point x="300" y="458" type="curve" smooth="yes"/>
      <point x="322" y="458"/>
      <point x="334" y="468"/>
      <point x="334" y="485" type="curve" smooth="yes"/>
      <point x="334" y="493" type="line" smooth="yes"/>
      <point x="334" y="510"/>
      <point x="322" y="520"/>
      <point x="300" y="520" type="curve" smooth="yes"/>
      <point x="278" y="520"/>
      <point x="266" y="510"/>
      <point x="266" y="493" type="curve" smooth="yes"/>
      <point x="266" y="485" type="line" smooth="yes"/>
      <point x="266" y="468"/>
      <point x="278" y="458"/>
    </contour>
    <contour>
      <point x="62" y="297" type="line"/>
      <point x="538" y="297" type="line"/>
      <point x="538" y="315" type="line"/>
      <point x="62" y="315" type="line"/>
    </contour>
  </outline>
</glyph>
<glyph name="oslash" format="1">
  <advance width="540"/>
  <unicode hex="00F8"/>
  <outline>
    <contour>
      <point x="51" y="-31" type="line" name="hr00"/>
      <point x="118" y="52" type="line"/>
      <point x="154" y="9"/>
      <point x="206" y="-12"/>
      <point x="270" y="-12" type="curve" smooth="yes"/>
      <point x="402" y="-12"/>
      <point x="480" y="78"/>
      <point x="480" y="253" type="curve" smooth="yes"/>
      <point x="480" y="333"/>
      <point x="464" y="396"/>
      <point x="433" y="440" type="curve"/>
      <point x="503" y="526" type="line"/>
      <point x="489" y="537" type="line"/>
      <point x="422" y="454" type="line"/>
      <point x="386" y="497"/>
      <point x="334" y="518"/>
      <point x="270" y="518" type="curve" smooth="yes"/>
      <point x="138" y="518"/>
      <point x="60" y="428"/>
      <point x="60" y="253" type="curve" smooth="yes"/>
      <point x="60" y="173"/>
      <point x="76" y="110"/>
      <point x="107" y="66" type="curve"/>
      <point x="37" y="-20" type="line"/>
    </contour>
    <contour>
      <point x="120" y="82" type="line"/>
      <point x="96" y="119"/>
      <point x="83" y="169"/>
      <point x="83" y="228" type="curve" smooth="yes"/>
      <point x="83" y="278" type="line" smooth="yes"/>
      <point x="83" y="414"/>
      <point x="150" y="500"/>
      <point x="270" y="500" type="curve" smooth="yes"/>
      <point x="331" y="500"/>
      <point x="378" y="478"/>
      <point x="409" y="439" type="curve"/>
    </contour>
    <contour>
      <point x="270" y="6" type="curve" smooth="yes"/>
      <point x="209" y="6"/>
      <point x="162" y="28"/>
      <point x="131" y="67" type="curve"/>
      <point x="420" y="424" type="line"/>
      <point x="444" y="387"/>
      <point x="457" y="337"/>
      <point x="457" y="278" type="curve" smooth="yes"/>
      <point x="457" y="228" type="line" smooth="yes"/>
      <point x="457" y="92"/>
      <point x="390" y="6"/>
    </contour>
    <contour>
      <point x="270" y="540" type="move" name="top"/>
    </contour>
  </outline>
</glyph>
<glyph name="thorn" format="1">
  <advance width="565"/>
  <unicode hex="00FE"/>
  <outline>
    <contour>
      <point x="20" y="-200" type="line" name="hr00"/>
      <point x="231" y="-200" type="line"/>
      <point x="231" y="-182" type="line"/>
      <point x="126" y="-182" type="line"/>
      <point x="126" y="85" type="line"/>
      <point x="129" y="85" type="line"/>
      <point x="150" y="35"/>
      <point x="204" y="-12"/>
      <point x="293" y="-12" type="curve" smooth="yes"/>
      <point x="426" y="-12"/>
      <point x="505" y="77"/>
      <point x="505" y="253" type="curve" smooth="yes"/>
      <point x="505" y="429"/>
      <point x="426" y="518"/>
      <point x="293" y="518" type="curve" smooth="yes"/>
      <point x="204" y="518"/>
      <point x="150" y="471"/>
      <point x="129" y="421" type="curve"/>
      <point x="126" y="421" type="line"/>
      <point x="126" y="764" type="line"/>
      <point x="20" y="754" type="line"/>
      <point x="20" y="741" type="line"/>
      <point x="105" y="736" type="line"/>
      <point x="105" y="-182" type="line"/>
      <point x="20" y="-182" type="line"/>
    </contour>
    <contour>
      <point x="293" y="6" type="curve"/>
      <point x="205" y="6"/>
      <point x="126" y="60"/>
      <point x="126" y="141" type="curve"/>
      <point x="126" y="365" type="line"/>
      <point x="126" y="446"/>
      <point x="205" y="500"/>
      <point x="293" y="500" type="curve" smooth="yes"/>
      <point x="414" y="500"/>
      <point x="482" y="414"/>
      <point x="482" y="277" type="curve" smooth="yes"/>
      <point x="482" y="229" type="line" smooth="yes"/>
      <point x="482" y="92"/>
      <point x="414" y="6"/>
    </contour>
  </outline>
</glyph>
<glyph name="Aogonek" format="1">
  <advance width="691"/>
  <unicode hex="0104"/>
  <outline>
    <contour>
      <point x="605" y="-202" type="curve" smooth="yes" name="hr00"/>
      <point x="641" y="-202"/>
      <point x="665" y="-187"/>
      <point x="678" y="-169" type="curve"/>
      <point x="667" y="-160" type="line"/>
      <point x="657" y="-172"/>
      <point x="639" y="-185"/>
      <point x="606" y="-185" type="curve" smooth="yes"/>
      <point x="571" y="-185"/>
      <point x="547" y="-170"/>
      <point x="547" y="-132" type="curve" smooth="yes"/>
      <point x="547" y="-82"/>
      <point x="588" y="-51"/>
      <point x="667" y="0" type="curve"/>
      <point x="667" y="18" type="line"/>
      <point x="607" y="18" type="line"/>
      <point x="360" y="698" type="line"/>
      <point x="332" y="698" type="line"/>
      <point x="85" y="18" type="line"/>
      <point x="25" y="18" type="line"/>
      <point x="25" y="0" type="line"/>
      <point x="213" y="0" type="line"/>
      <point x="213" y="18" type="line"/>
      <point x="108" y="18" type="line"/>
      <point x="186" y="234" type="line"/>
      <point x="506" y="234" type="line"/>
      <point x="584" y="18" type="line"/>
      <point x="478" y="18" type="line"/>
      <point x="478" y="0" type="line"/>
      <point x="638" y="0" type="line"/>
      <point x="640" y="-3" type="line"/>
      <point x="551" y="-55"/>
      <point x="526" y="-96"/>
      <point x="526" y="-135" type="curve" smooth="yes"/>
      <point x="526" y="-179"/>
      <point x="560" y="-202"/>
    </contour>
    <contour>
      <point x="344" y="675" type="line"/>
      <point x="347" y="675" type="line"/>
      <point x="499" y="252" type="line"/>
      <point x="193" y="252" type="line"/>
    </contour>
  </outline>
</glyph>
<glyph name="aogonek" format="1">
  <advance width="523"/>
  <unicode hex="0105"/>
  <outline>
    <contour>
      <point x="428" y="-202" type="curve" smooth="yes"/>
      <point x="464" y="-202"/>
      <point x="488" y="-187"/>
      <point x="501" y="-169" type="curve"/>
      <point x="490" y="-160" type="line"/>
      <point x="480" y="-172"/>
      <point x="462" y="-185"/>
      <point x="429" y="-185" type="curve" smooth="yes"/>
      <point x="394" y="-185"/>
      <point x="370" y="-170"/>
      <point x="370" y="-132" type="curve" smooth="yes"/>
      <point x="370" y="-84"/>
      <point x="407" y="-55"/>
      <point x="476" y="-7" type="curve" smooth="yes"/>
      <point x="489" y="2" type="line"/>
      <point x="489" y="14" type="line"/>
      <point x="408" y="14" type="line"/>
      <point x="408" y="363" type="line" smooth="yes"/>
      <point x="408" y="464"/>
      <point x="343" y="518"/>
      <point x="241" y="518" type="curve" smooth="yes"/>
      <point x="151" y="518"/>
      <point x="80" y="479"/>
      <point x="80" y="440" type="curve" smooth="yes"/>
      <point x="80" y="424"/>
      <point x="90" y="414"/>
      <point x="106" y="414" type="curve" smooth="yes"/>
      <point x="122" y="414"/>
      <point x="132" y="424"/>
      <point x="132" y="440" type="curve" smooth="yes"/>
      <point x="132" y="453"/>
      <point x="123" y="463"/>
      <point x="110" y="468" type="curve"/>
      <point x="110" y="470" type="line"/>
      <point x="131" y="487"/>
      <point x="170" y="500"/>
      <point x="239" y="500" type="curve" smooth="yes"/>
      <point x="333" y="500"/>
      <point x="387" y="453"/>
      <point x="387" y="360" type="curve" smooth="yes"/>
      <point x="387" y="268" type="line"/>
      <point x="274" y="268" type="line" smooth="yes"/>
      <point x="121" y="268"/>
      <point x="60" y="220"/>
      <point x="60" y="123" type="curve" smooth="yes" name="hr01"/>
      <point x="60" y="42"/>
      <point x="120" y="-12"/>
      <point x="218" y="-12" type="curve" smooth="yes"/>
      <point x="318" y="-12"/>
      <point x="368" y="43"/>
      <point x="385" y="90" type="curve"/>
      <point x="388" y="90" type="line"/>
      <point x="388" y="35" type="line" smooth="yes"/>
      <point x="388" y="-3"/>
      <point x="406" y="-7"/>
      <point x="428" y="-7" type="curve" smooth="yes" name="hr02"/>
      <point x="436" y="-7"/>
      <point x="449" y="-5"/>
      <point x="460" y="-1" type="curve"/>
      <point x="462" y="-4" type="line"/>
      <point x="373" y="-56"/>
      <point x="349" y="-96"/>
      <point x="349" y="-135" type="curve" smooth="yes"/>
      <point x="349" y="-179"/>
      <point x="383" y="-202"/>
    </contour>
    <contour>
      <point x="221" y="6" type="curve" name="hr03"/>
      <point x="133" y="6"/>
      <point x="83" y="52"/>
      <point x="83" y="112" type="curve" smooth="yes"/>
      <point x="83" y="136" type="line" smooth="yes"/>
      <point x="83" y="210"/>
      <point x="132" y="252"/>
      <point x="280" y="252" type="curve" smooth="yes"/>
      <point x="387" y="252" type="line"/>
      <point x="387" y="144" type="line" smooth="yes"/>
      <point x="387" y="68"/>
      <point x="317" y="6"/>
    </contour>
  </outline>
</glyph>
<glyph name="ccircumflex" format="1">
  <advance width="496"/>
  <unicode hex="0109"/>
  <outline>
    <component base="c"/>
    <component base="circumflex" xOffset="-25"/>
    <contour>
      <point x="275.0" y="0.0" type="move" name="bottom"/>
    </contour>
  </outline>
</glyph>
<glyph name="dcaron" format="1">
  <advance width="575"/>
  <unicode hex="010F"/>
  <outline>
    <component base="d"/>
    <component base="caronslovak" xOffset="228"/>
    <contour>
      <point x="273.0" y="0.0" type="move" name="bottom"/>
    </contour>
  </outline>
</glyph>
<glyph name="Dcroat" format="1">
  <advance width="673"/>
  <unicode hex="0110"/>
  <outline>
    <contour>
      <point x="50" y="0" type="line" name="hr00"/>
      <point x="312" y="0" type="line" smooth="yes"/>
      <point x="511" y="0"/>
      <point x="608" y="118"/>
      <point x="608" y="349" type="curve" smooth="yes"/>
      <point x="608" y="580"/>
      <point x="511" y="698"/>
      <point x="312" y="698" type="curve" smooth="yes"/>
      <point x="50" y="698" type="line"/>
      <point x="50" y="680" type="line"/>
      <point x="135" y="680" type="line"/>
      <point x="135" y="358" type="line"/>
      <point x="35" y="358" type="line"/>
      <point x="35" y="340" type="line"/>
      <point x="135" y="340" type="line"/>
      <point x="135" y="18" type="line"/>
      <point x="50" y="18" type="line"/>
    </contour>
    <contour>
      <point x="157" y="340" type="line"/>
      <point x="329" y="340" type="line"/>
      <point x="329" y="358" type="line"/>
      <point x="157" y="358" type="line"/>
      <point x="157" y="680" type="line"/>
      <point x="313" y="680" type="line" smooth="yes"/>
      <point x="500" y="680"/>
      <point x="584" y="562"/>
      <point x="584" y="381" type="curve" smooth="yes"/>
      <point x="584" y="317" type="line" smooth="yes"/>
      <point x="584" y="136"/>
      <point x="500" y="18"/>
      <point x="313" y="18" type="curve"/>
      <point x="157" y="18" type="line"/>
    </contour>
  </outline>
</glyph>
<glyph name="Ebreve" format="1">
  <advance width="580"/>
  <unicode hex="0114"/>
  <outline>
    <component base="E"/>
    <component base="breve.case" xOffset="6"/>
    <contour>
      <point x="306.0" y="0.0" type="move" name="bottom"/>
    </contour>
    <contour>
      <point x="520.0" y="0.0" type="move" name="bottomright"/>
    </contour>
  </outline>
</glyph>
<glyph name="Eogonek" format="1">
  <advance width="580"/>
  <unicode hex="0118"/>
  <outline>
    <contour>
      <point x="459" y="-202" type="curve" smooth="yes"/>
      <point x="495" y="-202"/>
      <point x="519" y="-187"/>
      <point x="532" y="-169" type="curve"/>
      <point x="521" y="-160" type="line"/>
      <point x="511" y="-172"/>
      <point x="493" y="-185"/>
      <point x="460" y="-185" type="curve" smooth="yes"/>
      <point x="425" y="-185"/>
      <point x="401" y="-170"/>
      <point x="401" y="-132" type="curve" smooth="yes"/>
      <point x="401" y="-82"/>
      <point x="441" y="-51"/>
      <point x="520" y="0" type="curve"/>
      <point x="520" y="148" type="line"/>
      <point x="499" y="148" type="line"/>
      <point x="499" y="18" type="line"/>
      <point x="157" y="18" type="line"/>
      <point x="157" y="359" type="line"/>
      <point x="419" y="359" type="line"/>
      <point x="419" y="274" type="line"/>
      <point x="440" y="274" type="line"/>
      <point x="440" y="462" type="line"/>
      <point x="419" y="462" type="line"/>
      <point x="419" y="377" type="line"/>
      <point x="157" y="377" type="line"/>
      <point x="157" y="680" type="line"/>
      <point x="491" y="680" type="line" name="hr01"/>
      <point x="491" y="550" type="line"/>
      <point x="512" y="550" type="line"/>
      <point x="512" y="698" type="line"/>
      <point x="50" y="698" type="line"/>
      <point x="50" y="680" type="line"/>
      <point x="135" y="680" type="line"/>
      <point x="135" y="18" type="line"/>
      <point x="50" y="18" type="line"/>
      <point x="50" y="0" type="line"/>
      <point x="491" y="0" type="line"/>
      <point x="493" y="-3" type="line"/>
      <point x="404" y="-55"/>
      <point x="380" y="-96"/>
      <point x="380" y="-135" type="curve" smooth="yes"/>
      <point x="380" y="-179"/>
      <point x="414" y="-202"/>
    </contour>
  </outline>
</glyph>
<glyph name="eogonek" format="1">
  <advance width="531"/>
  <unicode hex="0119"/>
  <outline>
    <contour>
      <point x="313" y="-202" type="curve" smooth="yes" name="hr00"/>
      <point x="349" y="-202"/>
      <point x="373" y="-187"/>
      <point x="386" y="-169" type="curve"/>
      <point x="375" y="-160" type="line"/>
      <point x="365" y="-172"/>
      <point x="347" y="-185"/>
      <point x="314" y="-185" type="curve" smooth="yes"/>
      <point x="279" y="-185"/>
      <point x="255" y="-170"/>
      <point x="255" y="-132" type="curve" smooth="yes"/>
      <point x="255" y="-78"/>
      <point x="302" y="-33"/>
      <point x="377" y="14" type="curve" smooth="yes"/>
      <point x="412" y="36"/>
      <point x="442" y="70"/>
      <point x="460" y="104" type="curve"/>
      <point x="446" y="112" type="line"/>
      <point x="416" y="58"/>
      <point x="362" y="6"/>
      <point x="275" y="6" type="curve" smooth="yes"/>
      <point x="161" y="6"/>
      <point x="83" y="82"/>
      <point x="83" y="234" type="curve" smooth="yes"/>
      <point x="83" y="275" type="line"/>
      <point x="471" y="275" type="line"/>
      <point x="471" y="284" type="line" smooth="yes"/>
      <point x="471" y="421"/>
      <point x="395" y="518"/>
      <point x="276" y="518" type="curve" smooth="yes"/>
      <point x="147" y="518"/>
      <point x="60" y="424"/>
      <point x="60" y="253" type="curve" smooth="yes"/>
      <point x="60" y="71"/>
      <point x="150" y="-12"/>
      <point x="273" y="-12" type="curve" smooth="yes"/>
      <point x="293" y="-12"/>
      <point x="310" y="-9"/>
      <point x="324" y="-6" type="curve"/>
      <point x="325" y="-8" type="line"/>
      <point x="254" y="-49"/>
      <point x="234" y="-99"/>
      <point x="234" y="-135" type="curve" smooth="yes"/>
      <point x="234" y="-179"/>
      <point x="268" y="-202"/>
    </contour>
    <contour>
      <point x="83" y="291" type="line"/>
      <point x="86" y="417"/>
      <point x="163" y="500"/>
      <point x="276" y="500" type="curve" smooth="yes"/>
      <point x="383" y="500"/>
      <point x="447" y="412"/>
      <point x="448" y="291" type="curve"/>
    </contour>
  </outline>
</glyph>
<glyph name="Gcommaaccent" format="1">
  <advance width="757"/>
  <unicode hex="0122"/>
  <outline>
    <component base="G"/>
    <component base="commabelowcomb" xOffset="356"/>
    <contour>
      <point x="365.0" y="698.0" type="move" name="top"/>
    </contour>
  </outline>
</glyph>
<glyph name="Hbar" format="1">
  <advance width="742"/>
  <unicode hex="0126"/>
  <outline>
    <contour>
      <point x="50" y="0" type="line" name="hr00"/>
      <point x="242" y="0" type="line"/>
      <point x="242" y="18" type="line"/>
      <point x="157" y="18" type="line"/>
      <point x="157" y="358" type="line"/>
      <point x="585" y="358" type="line"/>
      <point x="585" y="18" type="line"/>
      <point x="500" y="18" type="line"/>
      <point x="500" y="0" type="line"/>
      <point x="692" y="0" type="line"/>
      <point x="692" y="18" type="line"/>
      <point x="607" y="18" type="line"/>
      <point x="607" y="537" type="line"/>
      <point x="707" y="537" type="line"/>
      <point x="707" y="554" type="line"/>
      <point x="607" y="554" type="line"/>
      <point x="607" y="680" type="line"/>
      <point x="692" y="680" type="line"/>
      <point x="692" y="698" type="line"/>
      <point x="500" y="698" type="line"/>
      <point x="500" y="680" type="line"/>
      <point x="585" y="680" type="line"/>
      <point x="585" y="554" type="line"/>
      <point x="157" y="554" type="line"/>
      <point x="157" y="680" type="line"/>
      <point x="242" y="680" type="line"/>
      <point x="242" y="698" type="line"/>
      <point x="50" y="698" type="line"/>
      <point x="50" y="680" type="line"/>
      <point x="135" y="680" type="line"/>
      <point x="135" y="554" type="line"/>
      <point x="35" y="554" type="line"/>
      <point x="35" y="537" type="line"/>
      <point x="135" y="537" type="line"/>
      <point x="135" y="18" type="line"/>
      <point x="50" y="18" type="line"/>
    </contour>
    <contour>
      <point x="157" y="537" type="line"/>
      <point x="585" y="537" type="line"/>
      <point x="585" y="376" type="line"/>
      <point x="157" y="376" type="line"/>
    </contour>
  </outline>
</glyph>
<glyph name="hbar" format="1">
  <advance width="580"/>
  <unicode hex="0127"/>
  <outline>
    <contour>
      <point x="30" y="0" type="line" name="hr00"/>
      <point x="221" y="0" type="line"/>
      <point x="221" y="18" type="line"/>
      <point x="136" y="18" type="line"/>
      <point x="136" y="363" type="line"/>
      <point x="136" y="455"/>
      <point x="209" y="500"/>
      <point x="292" y="500" type="curve" smooth="yes"/>
      <point x="391" y="500"/>
      <point x="444" y="445"/>
      <point x="444" y="322" type="curve" smooth="yes"/>
      <point x="444" y="18" type="line"/>
      <point x="359" y="18" type="line"/>
      <point x="359" y="0" type="line"/>
      <point x="550" y="0" type="line"/>
      <point x="550" y="18" type="line"/>
      <point x="465" y="18" type="line"/>
      <point x="465" y="326" type="line" smooth="yes"/>
      <point x="465" y="453"/>
      <point x="409" y="518"/>
      <point x="296" y="518" type="curve" smooth="yes"/>
      <point x="204" y="518"/>
      <point x="157" y="474"/>
      <point x="139" y="423" type="curve"/>
      <point x="136" y="423" type="line"/>
      <point x="136" y="630" type="line"/>
      <point x="310" y="630" type="line"/>
      <point x="310" y="647" type="line"/>
      <point x="136" y="647" type="line"/>
      <point x="136" y="764" type="line"/>
      <point x="115" y="760" type="line"/>
      <point x="115" y="647" type="line"/>
      <point x="15" y="647" type="line"/>
      <point x="15" y="630" type="line"/>
      <point x="115" y="630" type="line"/>
      <point x="115" y="18" type="line"/>
      <point x="30" y="18" type="line"/>
    </contour>
  </outline>
</glyph>
<glyph name="Itilde" format="1">
  <advance width="292"/>
  <unicode hex="0128"/>
  <outline>
    <component base="I"/>
    <component base="tilde.case" xOffset="-154"/>
    <contour>
      <point x="146.0" y="0.0" type="move" name="bottom"/>
    </contour>
    <contour>
      <point x="242.0" y="0.0" type="move" name="bottomright"/>
    </contour>
  </outline>
</glyph>
<glyph name="Iogonek" format="1">
  <advance width="292"/>
  <unicode hex="012E"/>
  <outline>
    <contour>
      <point x="181" y="-202" type="curve" smooth="yes" name="hr00"/>
      <point x="217" y="-202"/>
      <point x="241" y="-187"/>
      <point x="254" y="-169" type="curve"/>
      <point x="243" y="-160" type="line"/>
      <point x="233" y="-172"/>
      <point x="215" y="-185"/>
      <point x="182" y="-185" type="curve" smooth="yes"/>
      <point x="147" y="-185"/>
      <point x="123" y="-170"/>
      <point x="123" y="-132" type="curve" smooth="yes"/>
      <point x="123" y="-82"/>
      <point x="163" y="-51"/>
      <point x="242" y="0" type="curve"/>
      <point x="242" y="18" type="line"/>
      <point x="157" y="18" type="line"/>
      <point x="157" y="680" type="line"/>
      <point x="242" y="680" type="line"/>
      <point x="242" y="698" type="line"/>
      <point x="50" y="698" type="line"/>
      <point x="50" y="680" type="line"/>
      <point x="135" y="680" type="line"/>
      <point x="135" y="18" type="line"/>
      <point x="50" y="18" type="line"/>
      <point x="50" y="0" type="line"/>
      <point x="213" y="0" type="line"/>
      <point x="215" y="-3" type="line"/>
      <point x="126" y="-55"/>
      <point x="102" y="-96"/>
      <point x="102" y="-135" type="curve" smooth="yes"/>
      <point x="102" y="-179"/>
      <point x="136" y="-202"/>
    </contour>
  </outline>
</glyph>
<glyph name="iogonek" format="1">
  <advance width="266"/>
  <unicode hex="012F"/>
  <outline>
    <contour>
      <point x="171" y="-202" type="curve" smooth="yes"/>
      <point x="207" y="-202"/>
      <point x="231" y="-187"/>
      <point x="244" y="-169" type="curve"/>
      <point x="233" y="-160" type="line"/>
      <point x="223" y="-172"/>
      <point x="205" y="-185"/>
      <point x="172" y="-185" type="curve" smooth="yes"/>
      <point x="137" y="-185"/>
      <point x="113" y="-170"/>
      <point x="113" y="-132" type="curve" smooth="yes"/>
      <point x="113" y="-82"/>
      <point x="153" y="-51"/>
      <point x="232" y="0" type="curve"/>
      <point x="232" y="18" type="line"/>
      <point x="147" y="18" type="line"/>
      <point x="147" y="512" type="line"/>
      <point x="41" y="502" type="line"/>
      <point x="41" y="489" type="line"/>
      <point x="126" y="484" type="line"/>
      <point x="126" y="18" type="line"/>
      <point x="41" y="18" type="line"/>
      <point x="41" y="0" type="line"/>
      <point x="203" y="0" type="line"/>
      <point x="205" y="-3" type="line"/>
      <point x="116" y="-55"/>
      <point x="92" y="-96"/>
      <point x="92" y="-135" type="curve" smooth="yes"/>
      <point x="92" y="-179"/>
      <point x="126" y="-202"/>
    </contour>
    <contour>
      <point x="136" y="669" type="curve" smooth="yes"/>
      <point x="153" y="669"/>
      <point x="162" y="680"/>
      <point x="162" y="694" type="curve" smooth="yes" name="hr01"/>
      <point x="162" y="696" type="line" smooth="yes"/>
      <point x="162" y="710"/>
      <point x="153" y="721"/>
      <point x="136" y="721" type="curve" smooth="yes"/>
      <point x="119" y="721"/>
      <point x="110" y="710"/>
      <point x="110" y="696" type="curve" smooth="yes"/>
      <point x="110" y="694" type="line" smooth="yes"/>
      <point x="110" y="680"/>
      <point x="119" y="669"/>
    </contour>
  </outline>
</glyph>
<glyph name="dotlessi" format="1">
  <advance width="266"/>
  <unicode hex="0131"/>
  <outline>
    <contour>
      <point x="41" y="0" type="line" name="hr00"/>
      <point x="232" y="0" type="line"/>
      <point x="232" y="18" type="line"/>
      <point x="147" y="18" type="line"/>
      <point x="147" y="512" type="line"/>
      <point x="41" y="502" type="line"/>
      <point x="41" y="489" type="line"/>
      <point x="126" y="484" type="line"/>
      <point x="126" y="18" type="line"/>
      <point x="41" y="18" type="line"/>
    </contour>
    <contour>
      <point x="136" y="540" type="move" name="top"/>
    </contour>
  </outline>
</glyph>
<glyph name="Kcommaaccent" format="1">
  <advance width="667"/>
  <unicode hex="0136"/>
  <outline>
    <component base="K"/>
    <component base="commabelowcomb" xOffset="346"/>
    <contour>
      <point x="344.0" y="698.0" type="move" name="top"/>
    </contour>
  </outline>
</glyph>
<glyph name="kgreenlandic" format="1">
  <advance width="552"/>
  <unicode hex="0138"/>
  <outline>
    <contour>
      <point x="40" y="0" type="line"/>
      <point x="231" y="0" type="line"/>
      <point x="231" y="18" type="line"/>
      <point x="146" y="18" type="line"/>
      <point x="146" y="185" type="line"/>
      <point x="239" y="277" type="line"/>
      <point x="446" y="18" type="line"/>
      <point x="371" y="18" type="line"/>
      <point x="371" y="0" type="line"/>
      <point x="537" y="0" type="line"/>
      <point x="537" y="18" type="line"/>
      <point x="472" y="18" type="line"/>
      <point x="253" y="291" type="line"/>
      <point x="442" y="488" type="line"/>
      <point x="507" y="488" type="line"/>
      <point x="507" y="506" type="line"/>
      <point x="336" y="506" type="line"/>
      <point x="336" y="488" type="line"/>
      <point x="416" y="488" type="line"/>
      <point x="237" y="299" type="line"/>
      <point x="149" y="208" type="line"/>
      <point x="146" y="208" type="line"/>
      <point x="146" y="512" type="line" name="hr01"/>
      <point x="40" y="502" type="line"/>
      <point x="40" y="489" type="line"/>
      <point x="125" y="484" type="line"/>
      <point x="125" y="18" type="line"/>
      <point x="40" y="18" type="line"/>
    </contour>
  </outline>
</glyph>
<glyph name="Lslash" format="1">
  <advance width="547"/>
  <unicode hex="0141"/>
  <outline>
    <contour>
      <point x="50" y="0" type="line" name="hr00"/>
      <point x="501" y="0" type="line"/>
      <point x="501" y="148" type="line"/>
      <point x="480" y="148" type="line"/>
      <point x="480" y="18" type="line"/>
      <point x="157" y="18" type="line"/>
      <point x="157" y="311" type="line"/>
      <point x="317" y="362" type="line"/>
      <point x="317" y="381" type="line"/>
      <point x="157" y="330" type="line"/>
      <point x="157" y="680" type="line"/>
      <point x="242" y="680" type="line"/>
      <point x="242" y="698" type="line"/>
      <point x="50" y="698" type="line"/>
      <point x="50" y="680" type="line"/>
      <point x="135" y="680" type="line"/>
      <point x="135" y="323" type="line"/>
      <point x="30" y="290" type="line"/>
      <point x="30" y="271" type="line"/>
      <point x="135" y="304" type="line"/>
      <point x="135" y="18" type="line"/>
      <point x="50" y="18" type="line"/>
    </contour>
  </outline>
</glyph>
<glyph name="lslash" format="1">
  <advance width="271"/>
  <unicode hex="0142"/>
  <outline>
    <contour>
      <point x="40" y="0" type="line" name="hr00"/>
      <point x="231" y="0" type="line"/>
      <point x="231" y="18" type="line"/>
      <point x="146" y="18" type="line"/>
      <point x="146" y="358" type="line"/>
      <point x="241" y="389" type="line"/>
      <point x="241" y="408" type="line"/>
      <point x="146" y="377" type="line"/>
      <point x="146" y="764" type="line"/>
      <point x="40" y="754" type="line"/>
      <point x="40" y="741" type="line"/>
      <point x="125" y="736" type="line"/>
      <point x="125" y="370" type="line"/>
      <point x="40" y="342" type="line"/>
      <point x="40" y="323" type="line"/>
      <point x="125" y="351" type="line"/>
      <point x="125" y="18" type="line"/>
      <point x="40" y="18" type="line"/>
    </contour>
  </outline>
</glyph>
